G04*
G04 #@! TF.GenerationSoftware,Altium Limited,Altium Designer,21.3.2 (30)*
G04*
G04 Layer_Physical_Order=2*
G04 Layer_Color=16711680*
%FSTAX24Y24*%
%MOIN*%
G70*
G04*
G04 #@! TF.SameCoordinates,920B054E-F007-431E-A758-220852BF9C0E*
G04*
G04*
G04 #@! TF.FilePolarity,Positive*
G04*
G01*
G75*
%ADD14C,0.0100*%
G04:AMPARAMS|DCode=29|XSize=80mil|YSize=90mil|CornerRadius=8mil|HoleSize=0mil|Usage=FLASHONLY|Rotation=90.000|XOffset=0mil|YOffset=0mil|HoleType=Round|Shape=RoundedRectangle|*
%AMROUNDEDRECTD29*
21,1,0.0800,0.0740,0,0,90.0*
21,1,0.0640,0.0900,0,0,90.0*
1,1,0.0160,0.0370,0.0320*
1,1,0.0160,0.0370,-0.0320*
1,1,0.0160,-0.0370,-0.0320*
1,1,0.0160,-0.0370,0.0320*
%
%ADD29ROUNDEDRECTD29*%
%ADD69C,0.0400*%
%ADD70C,0.0300*%
%ADD72C,0.0200*%
%ADD73C,0.0500*%
%ADD76C,0.0600*%
%ADD78C,0.0800*%
%ADD79C,0.0600*%
G04:AMPARAMS|DCode=80|XSize=60mil|YSize=60mil|CornerRadius=6mil|HoleSize=0mil|Usage=FLASHONLY|Rotation=270.000|XOffset=0mil|YOffset=0mil|HoleType=Round|Shape=RoundedRectangle|*
%AMROUNDEDRECTD80*
21,1,0.0600,0.0480,0,0,270.0*
21,1,0.0480,0.0600,0,0,270.0*
1,1,0.0120,-0.0240,-0.0240*
1,1,0.0120,-0.0240,0.0240*
1,1,0.0120,0.0240,0.0240*
1,1,0.0120,0.0240,-0.0240*
%
%ADD80ROUNDEDRECTD80*%
%ADD81C,0.1050*%
G04:AMPARAMS|DCode=82|XSize=105mil|YSize=105mil|CornerRadius=10.5mil|HoleSize=0mil|Usage=FLASHONLY|Rotation=180.000|XOffset=0mil|YOffset=0mil|HoleType=Round|Shape=RoundedRectangle|*
%AMROUNDEDRECTD82*
21,1,0.1050,0.0840,0,0,180.0*
21,1,0.0840,0.1050,0,0,180.0*
1,1,0.0210,-0.0420,0.0420*
1,1,0.0210,0.0420,0.0420*
1,1,0.0210,0.0420,-0.0420*
1,1,0.0210,-0.0420,-0.0420*
%
%ADD82ROUNDEDRECTD82*%
G04:AMPARAMS|DCode=83|XSize=60mil|YSize=60mil|CornerRadius=6mil|HoleSize=0mil|Usage=FLASHONLY|Rotation=0.000|XOffset=0mil|YOffset=0mil|HoleType=Round|Shape=RoundedRectangle|*
%AMROUNDEDRECTD83*
21,1,0.0600,0.0480,0,0,0.0*
21,1,0.0480,0.0600,0,0,0.0*
1,1,0.0120,0.0240,-0.0240*
1,1,0.0120,-0.0240,-0.0240*
1,1,0.0120,-0.0240,0.0240*
1,1,0.0120,0.0240,0.0240*
%
%ADD83ROUNDEDRECTD83*%
%ADD84C,0.0850*%
G04:AMPARAMS|DCode=85|XSize=85mil|YSize=85mil|CornerRadius=8.5mil|HoleSize=0mil|Usage=FLASHONLY|Rotation=90.000|XOffset=0mil|YOffset=0mil|HoleType=Round|Shape=RoundedRectangle|*
%AMROUNDEDRECTD85*
21,1,0.0850,0.0680,0,0,90.0*
21,1,0.0680,0.0850,0,0,90.0*
1,1,0.0170,0.0340,0.0340*
1,1,0.0170,0.0340,-0.0340*
1,1,0.0170,-0.0340,-0.0340*
1,1,0.0170,-0.0340,0.0340*
%
%ADD85ROUNDEDRECTD85*%
%ADD86C,0.0750*%
G04:AMPARAMS|DCode=87|XSize=85mil|YSize=85mil|CornerRadius=8.5mil|HoleSize=0mil|Usage=FLASHONLY|Rotation=180.000|XOffset=0mil|YOffset=0mil|HoleType=Round|Shape=RoundedRectangle|*
%AMROUNDEDRECTD87*
21,1,0.0850,0.0680,0,0,180.0*
21,1,0.0680,0.0850,0,0,180.0*
1,1,0.0170,-0.0340,0.0340*
1,1,0.0170,0.0340,0.0340*
1,1,0.0170,0.0340,-0.0340*
1,1,0.0170,-0.0340,-0.0340*
%
%ADD87ROUNDEDRECTD87*%
%ADD88C,0.1200*%
%ADD89C,0.0300*%
G36*
X150499Y06185D02*
X150497Y061849D01*
X150493Y061847D01*
X150489Y061844D01*
X150477Y061834D01*
X15044Y061799D01*
X150428Y061787D01*
X150287Y061928D01*
X15035Y061999D01*
X150499Y06185D01*
D02*
G37*
G36*
X146059Y060904D02*
X146062Y060903D01*
X146068Y060902D01*
X146083Y060901D01*
X146135Y0609D01*
X146152Y0609D01*
Y0607D01*
X146057Y060695D01*
Y060905D01*
X146059Y060904D01*
D02*
G37*
G36*
X149541Y0609D02*
X149515Y060871D01*
X149491Y060841D01*
X149469Y06081D01*
X149451Y060777D01*
X149435Y060744D01*
X149423Y060709D01*
X149413Y060673D01*
X149406Y060636D01*
X149401Y060598D01*
X1494Y060559D01*
X1492Y0605D01*
X149198Y060538D01*
X149192Y060572D01*
X149182Y060602D01*
X149168Y060628D01*
X14915Y06065D01*
X149128Y060668D01*
X149102Y060682D01*
X149072Y060692D01*
X149038Y060698D01*
X149Y0607D01*
X149059Y0609D01*
X149098Y060901D01*
X149136Y060906D01*
X149173Y060913D01*
X149209Y060923D01*
X149244Y060935D01*
X149277Y060951D01*
X14931Y060969D01*
X149341Y060991D01*
X149371Y061015D01*
X1494Y061041D01*
X149541Y0609D01*
D02*
G37*
G36*
X149163Y056172D02*
X1491Y056101D01*
X148952Y05625D01*
X148953Y056251D01*
X148957Y056253D01*
X148961Y056256D01*
X148973Y056266D01*
X14901Y056301D01*
X149022Y056313D01*
X149163Y056172D01*
D02*
G37*
G36*
X148011Y066489D02*
X147997Y063503D01*
X1485Y063D01*
X1505Y063D01*
X151Y0625D01*
Y05025D01*
X15Y04925D01*
X1485D01*
X14725Y048D01*
X143654D01*
X143635Y048046D01*
X144184Y048596D01*
X1448D01*
X144878Y048612D01*
X144944Y048656D01*
X145309Y049021D01*
X14531Y049022D01*
X145318Y049025D01*
X14533Y04903D01*
X145347Y049034D01*
X145368Y049039D01*
X145392Y049042D01*
X145459Y049047D01*
X145498Y049047D01*
X145512Y04905D01*
X145559D01*
X145674Y049081D01*
X145776Y04914D01*
X14586Y049224D01*
X145919Y049326D01*
X14595Y049441D01*
Y049559D01*
X145919Y049674D01*
X14586Y049776D01*
X145776Y04986D01*
X145674Y049919D01*
X145559Y04995D01*
X145441D01*
X145326Y049919D01*
X145224Y04986D01*
X14514Y049776D01*
X145081Y049674D01*
X14505Y049559D01*
Y049512D01*
X145047Y049498D01*
X145047Y049459D01*
X145042Y049392D01*
X145039Y049368D01*
X145034Y049347D01*
X14503Y04933D01*
X145025Y049318D01*
X145022Y04931D01*
X145021Y049309D01*
X144716Y049004D01*
X14458D01*
X144574Y049054D01*
X144674Y049081D01*
X144776Y04914D01*
X14486Y049224D01*
X144919Y049326D01*
X14495Y049441D01*
Y049559D01*
X144919Y049674D01*
X14486Y049776D01*
X144776Y04986D01*
X144674Y049919D01*
X144559Y04995D01*
X144441D01*
X144326Y049919D01*
X144224Y04986D01*
X14414Y049776D01*
X144081Y049674D01*
X14405Y049559D01*
Y049512D01*
X144047Y049498D01*
X144047Y049459D01*
X144042Y049392D01*
X144039Y049368D01*
X144034Y049347D01*
X14403Y04933D01*
X144025Y049318D01*
X144022Y04931D01*
X144021Y049309D01*
X142666Y047954D01*
X141027D01*
X141026Y047954D01*
X141025Y047955D01*
X141023Y047957D01*
X14102Y047959D01*
X141013Y047966D01*
X141002Y047973D01*
X140984Y04799D01*
X140916Y04803D01*
X14084Y04805D01*
X14076D01*
X140684Y04803D01*
X140616Y04799D01*
X14056Y047934D01*
X14052Y047866D01*
X1405Y04779D01*
Y047768D01*
X140489Y047756D01*
X14045Y047734D01*
X140389Y04775D01*
X14031D01*
X140234Y04773D01*
X140166Y04769D01*
X14011Y047634D01*
X14007Y047566D01*
X14005Y04749D01*
Y04741D01*
X14007Y047334D01*
X14011Y047266D01*
X140166Y04721D01*
X140234Y04717D01*
X14031Y04715D01*
X140389D01*
X140466Y04717D01*
X14051Y047196D01*
X1427D01*
X142778Y047212D01*
X142844Y047256D01*
X142954Y047365D01*
X143Y047346D01*
Y04225D01*
X1439Y04135D01*
X143881Y041304D01*
X143434D01*
X143154Y041584D01*
X143154Y041585D01*
X143154Y041586D01*
X143153Y041589D01*
X143153Y041592D01*
X143153Y041602D01*
X14315Y041615D01*
Y041639D01*
X14313Y041716D01*
X14309Y041784D01*
X143034Y04184D01*
X142966Y04188D01*
X142889Y0419D01*
X14281D01*
X142734Y04188D01*
X142666Y04184D01*
X14261Y041784D01*
X14257Y041716D01*
X14255Y041639D01*
Y041561D01*
X14257Y041484D01*
X14261Y041416D01*
X142666Y04136D01*
X142734Y04132D01*
X14281Y0413D01*
X142835D01*
X142848Y041297D01*
X142858Y041297D01*
X142861Y041297D01*
X142864Y041296D01*
X142865Y041296D01*
X142866Y041295D01*
X143206Y040956D01*
X143272Y040912D01*
X14335Y040896D01*
X144166D01*
X148446Y036616D01*
X148446Y036616D01*
X148446Y036614D01*
X148447Y036611D01*
X148447Y036608D01*
X148447Y036598D01*
X14845Y036585D01*
Y03656D01*
X14847Y036484D01*
X14851Y036416D01*
X148566Y03636D01*
X148634Y03632D01*
X14871Y0363D01*
X14879D01*
X148866Y03632D01*
X148934Y03636D01*
X14899Y036416D01*
X14903Y036484D01*
X14905Y03656D01*
Y036639D01*
X14903Y036716D01*
X14899Y036784D01*
X148934Y03684D01*
X148866Y03688D01*
X14879Y0369D01*
X148765D01*
X148752Y036903D01*
X148742Y036903D01*
X148739Y036903D01*
X148736Y036904D01*
X148734Y036904D01*
X148734Y036904D01*
X144438Y0412D01*
X144459Y04125D01*
X14925D01*
X151Y0395D01*
Y034368D01*
X150989Y034356D01*
X15095Y034334D01*
X150947Y034335D01*
X150928Y034342D01*
X150909Y034345D01*
X15089Y03435D01*
X15087D01*
X15085Y034353D01*
X150203D01*
Y035625D01*
X150564Y035986D01*
X150564Y035986D01*
X150612Y036049D01*
X150642Y036122D01*
X150653Y0362D01*
Y0365D01*
X15065Y03652D01*
Y036539D01*
X150645Y036559D01*
X150642Y036578D01*
X150635Y036597D01*
X15063Y036616D01*
X15062Y036633D01*
X150612Y036651D01*
X1506Y036667D01*
X15059Y036684D01*
X150576Y036698D01*
X150564Y036714D01*
X150548Y036726D01*
X150534Y03674D01*
X150517Y03675D01*
X150501Y036762D01*
X150483Y03677D01*
X150466Y03678D01*
X150447Y036785D01*
X150428Y036792D01*
X150409Y036795D01*
X150389Y0368D01*
X15037D01*
X15035Y036803D01*
X15033Y0368D01*
X15031D01*
X150291Y036795D01*
X150272Y036792D01*
X150253Y036785D01*
X150234Y03678D01*
X150217Y03677D01*
X150199Y036762D01*
X150183Y03675D01*
X150166Y03674D01*
X150152Y036726D01*
X150136Y036714D01*
X150124Y036698D01*
X15011Y036684D01*
X1501Y036667D01*
X150088Y036651D01*
X15008Y036633D01*
X15007Y036616D01*
X150065Y036597D01*
X150058Y036578D01*
X150055Y036559D01*
X15005Y036539D01*
Y03652D01*
X150047Y0365D01*
Y036325D01*
X149775Y036053D01*
X145375D01*
X144992Y036436D01*
X144991Y036441D01*
X144956Y036527D01*
X1449Y0366D01*
X144827Y036656D01*
X144741Y036691D01*
X14465Y036703D01*
X142906D01*
X142877Y036753D01*
X142919Y036826D01*
X14295Y036941D01*
Y037059D01*
X142919Y037174D01*
X14286Y037276D01*
X142776Y03736D01*
X142674Y037419D01*
X142559Y03745D01*
X142441D01*
X142326Y037419D01*
X142224Y03736D01*
X14214Y037276D01*
X142081Y037174D01*
X14205Y037059D01*
Y036941D01*
X142081Y036826D01*
X142123Y036753D01*
X142094Y036703D01*
X140696D01*
X14065Y03675D01*
X140577Y036806D01*
X140491Y036841D01*
X1404Y036853D01*
X135546D01*
X135386Y037013D01*
X135412Y037058D01*
X135441Y03705D01*
X135559D01*
X135674Y037081D01*
X135776Y03714D01*
X13586Y037224D01*
X135919Y037326D01*
X13595Y037441D01*
Y037559D01*
X135919Y037674D01*
X13586Y037776D01*
X135776Y03786D01*
X135674Y037919D01*
X135559Y03795D01*
X135441D01*
X135326Y037919D01*
X135224Y03786D01*
X13514Y037776D01*
X135081Y037674D01*
X13505Y037559D01*
Y037441D01*
X13506Y037405D01*
X135016Y037376D01*
X134977Y037406D01*
X134891Y037441D01*
X1348Y037453D01*
X132797D01*
X131999Y038251D01*
X132018Y038297D01*
X132062D01*
X132177Y038328D01*
X132279Y038387D01*
X132363Y038471D01*
X132422Y038573D01*
X132453Y038688D01*
Y038806D01*
X132422Y038921D01*
X132363Y039023D01*
X132279Y039107D01*
X132177Y039166D01*
X132062Y039197D01*
X131944D01*
X131829Y039166D01*
X131727Y039107D01*
X131643Y039023D01*
X131583Y038921D01*
X131553Y038806D01*
Y038763D01*
X131507Y038743D01*
X13025Y04D01*
X130199D01*
X12995Y04025D01*
X129877Y040306D01*
X129791Y040341D01*
X1297Y040353D01*
X127808D01*
X127789Y040403D01*
X12786Y040474D01*
X127919Y040576D01*
X12795Y040691D01*
Y040809D01*
X127919Y040924D01*
X12786Y041026D01*
X127776Y04111D01*
X127674Y041169D01*
X127559Y0412D01*
X127441D01*
X127326Y041169D01*
X127224Y04111D01*
X12714Y041026D01*
X127081Y040924D01*
X12705Y040809D01*
Y040691D01*
X127081Y040576D01*
X12714Y040474D01*
X127211Y040403D01*
X127192Y040353D01*
X127052D01*
X126991Y040356D01*
X126944Y040365D01*
X126907Y040377D01*
X126879Y040392D01*
X126859Y040409D01*
X126842Y040429D01*
X126827Y040457D01*
X126815Y040494D01*
X126806Y040541D01*
X126803Y040602D01*
Y045354D01*
X126897Y045448D01*
X126945Y045493D01*
X126989Y04553D01*
X127028Y045558D01*
X12706Y045576D01*
X127083Y045586D01*
X127093Y045588D01*
X127159Y04553D01*
X12737Y04532D01*
X127452Y045265D01*
X12755Y045245D01*
X130949D01*
X130954Y045195D01*
X130931Y045191D01*
X130862Y045144D01*
X130815Y045075D01*
X130799Y044993D01*
Y044513D01*
X130815Y044431D01*
X130862Y044361D01*
X130931Y044315D01*
X131013Y044299D01*
X131493D01*
X131575Y044315D01*
X131645Y044361D01*
X131691Y044431D01*
X131707Y044513D01*
Y044993D01*
X131691Y045075D01*
X131645Y045144D01*
X131575Y045191D01*
X131493Y045207D01*
X131414D01*
X131409Y045257D01*
X131448Y045265D01*
X13153Y04532D01*
X131968Y045758D01*
X132016Y04577D01*
X132084Y04581D01*
X13214Y045866D01*
X13218Y045934D01*
X1322Y04601D01*
Y04609D01*
X13218Y046166D01*
X13214Y046234D01*
X132084Y04629D01*
X132016Y04633D01*
X131939Y04635D01*
X131861D01*
X131784Y04633D01*
X131716Y04629D01*
X13166Y046234D01*
X13162Y046166D01*
X131608Y046119D01*
X1316Y046111D01*
X131244Y045755D01*
X127656D01*
X127503Y045908D01*
X127414Y046002D01*
X127365Y046062D01*
X127353Y046079D01*
Y049624D01*
X127353Y049629D01*
X127355Y049719D01*
X12736Y049724D01*
X127419Y049826D01*
X12745Y049941D01*
Y049941D01*
X127537Y050038D01*
X128746Y051247D01*
X13445D01*
X134541Y051259D01*
X134627Y051294D01*
X1347Y05135D01*
X134756Y051423D01*
X134791Y051509D01*
X134803Y0516D01*
X134791Y051691D01*
X134756Y051777D01*
X1347Y05185D01*
X134627Y051906D01*
X134541Y051941D01*
X13445Y051953D01*
X1286D01*
X128509Y051941D01*
X128424Y051906D01*
X12835Y05185D01*
X12745Y050949D01*
X1274Y05097D01*
Y051053D01*
X127373Y051154D01*
X12732Y051246D01*
X127246Y05132D01*
X127154Y051373D01*
X127075Y051394D01*
Y051D01*
X127D01*
Y050925D01*
X126606D01*
X126627Y050846D01*
X12668Y050754D01*
X126754Y05068D01*
X126846Y050627D01*
X126947Y0506D01*
X12703D01*
X127051Y05055D01*
X127016Y050515D01*
X127013Y050512D01*
X126948Y05045D01*
X126941D01*
X126826Y050419D01*
X126724Y05036D01*
X12664Y050276D01*
X126581Y050174D01*
X12655Y050059D01*
Y049941D01*
X126581Y049826D01*
X12664Y049724D01*
X12664Y049723D01*
X126647Y049594D01*
Y046533D01*
X126645Y046465D01*
X126637Y0464D01*
X126625Y046338D01*
X126609Y046278D01*
X126588Y046221D01*
X126562Y046165D01*
X126531Y046111D01*
X126496Y046059D01*
X126455Y046008D01*
X126409Y045958D01*
X1262Y04575D01*
X126144Y045677D01*
X126109Y045591D01*
X126097Y0455D01*
Y040602D01*
X126094Y040541D01*
X126085Y040494D01*
X126073Y040457D01*
X126058Y040429D01*
X126041Y040409D01*
X126021Y040392D01*
X125993Y040377D01*
X125956Y040365D01*
X125909Y040356D01*
X125848Y040353D01*
X123316D01*
X123295Y040403D01*
X123363Y040471D01*
X123422Y040573D01*
X123453Y040688D01*
Y040806D01*
X123422Y040921D01*
X123363Y041023D01*
X123279Y041107D01*
X123177Y041166D01*
X123062Y041197D01*
X122944D01*
X122829Y041166D01*
X122727Y041107D01*
X122643Y041023D01*
X122583Y040921D01*
X122553Y040806D01*
Y040688D01*
X122583Y040573D01*
X122643Y040471D01*
X12271Y040403D01*
X12269Y040353D01*
X118816D01*
X118795Y040403D01*
X118863Y040471D01*
X118922Y040573D01*
X118953Y040688D01*
Y040806D01*
X118922Y040921D01*
X118863Y041023D01*
X118779Y041107D01*
X118677Y041166D01*
X118562Y041197D01*
X118444D01*
X118329Y041166D01*
X118227Y041107D01*
X118143Y041023D01*
X118083Y040921D01*
X118053Y040806D01*
Y040688D01*
X118083Y040573D01*
X118143Y040471D01*
X11821Y040403D01*
X11819Y040353D01*
X117796D01*
X1173Y04085D01*
X117227Y040906D01*
X117141Y040941D01*
X11705Y040953D01*
X117027Y04095D01*
X11696D01*
X116884Y04093D01*
X116816Y04089D01*
X11676Y040834D01*
X11672Y040766D01*
X1167Y04069D01*
Y040623D01*
X116697Y0406D01*
X116709Y040509D01*
X116744Y040423D01*
X1168Y04035D01*
X117105Y040046D01*
X117085Y04D01*
X11525D01*
X114749Y040501D01*
X114768Y040547D01*
X114812D01*
X114927Y040578D01*
X115029Y040637D01*
X115113Y040721D01*
X115172Y040823D01*
X115203Y040938D01*
Y041056D01*
X115172Y041171D01*
X115113Y041273D01*
X115029Y041357D01*
X114927Y041416D01*
X114812Y041447D01*
X114694D01*
X114579Y041416D01*
X114477Y041357D01*
X114393Y041273D01*
X114333Y041171D01*
X114306Y041068D01*
X114274Y041049D01*
X114253Y041043D01*
X11425Y041045D01*
Y042745D01*
X1143Y04275D01*
X114315Y042675D01*
X114361Y042605D01*
X114431Y042559D01*
X114513Y042543D01*
X114993D01*
X115075Y042559D01*
X115144Y042605D01*
X115191Y042675D01*
X115207Y042757D01*
Y043237D01*
X115191Y043319D01*
X115144Y043388D01*
X115075Y043435D01*
X114993Y043451D01*
X114513D01*
X114431Y043435D01*
X114361Y043388D01*
X114315Y043319D01*
X1143Y043243D01*
X11425Y043248D01*
Y04375D01*
X11475Y04425D01*
X11575D01*
X117Y0455D01*
Y0485D01*
X11775Y04925D01*
X11875D01*
X119046Y049546D01*
X1202D01*
X120317Y049562D01*
X120427Y049607D01*
X120521Y049679D01*
X123325Y052484D01*
X123387Y052541D01*
X123468Y052605D01*
X123551Y052662D01*
X123638Y052711D01*
X123727Y052753D01*
X123819Y052786D01*
X123915Y052813D01*
X124014Y052832D01*
X124117Y052843D01*
X124201Y052846D01*
X145762D01*
X146496Y052112D01*
Y0509D01*
X146512Y050783D01*
X146557Y050673D01*
X146629Y050579D01*
X147168Y050041D01*
X147262Y049968D01*
X147371Y049923D01*
X147488Y049908D01*
X147537D01*
X147654Y049905D01*
X147672Y049904D01*
X147689Y049818D01*
X147741Y049741D01*
X147818Y049689D01*
X14791Y04967D01*
X14859D01*
X148682Y049689D01*
X148759Y049741D01*
X148811Y049818D01*
X14883Y04991D01*
Y05059D01*
X148811Y050682D01*
X148759Y050759D01*
X148682Y050811D01*
X14859Y05083D01*
X14791D01*
X147839Y050815D01*
X147676D01*
X147404Y051088D01*
Y0523D01*
X147404Y0523D01*
X147388Y052417D01*
X147343Y052527D01*
X147271Y052621D01*
X147271Y052621D01*
X146271Y053621D01*
X146177Y053693D01*
X146067Y053738D01*
X14595Y053754D01*
X124386D01*
X124303Y053758D01*
X124222Y053773D01*
X124155Y053795D01*
X124101Y053824D01*
X124059Y053859D01*
X124024Y053901D01*
X123995Y053955D01*
X123973Y054022D01*
X123958Y054103D01*
X123954Y054182D01*
Y05449D01*
X123954Y054491D01*
Y05525D01*
Y05625D01*
X12395Y05628D01*
Y056309D01*
X123942Y056338D01*
X123938Y056367D01*
X123927Y056395D01*
X123919Y056424D01*
X123904Y056449D01*
X123893Y056477D01*
X123875Y056501D01*
X12386Y056526D01*
X123839Y056547D01*
X123821Y056571D01*
X123797Y056589D01*
X123776Y05661D01*
X123751Y056625D01*
X123727Y056643D01*
X123699Y056654D01*
X123674Y056669D01*
X123645Y056677D01*
X123617Y056688D01*
X123588Y056692D01*
X123559Y0567D01*
X123529D01*
X1235Y056704D01*
X123471Y0567D01*
X123441D01*
X123412Y056692D01*
X123383Y056688D01*
X123355Y056677D01*
X123326Y056669D01*
X123301Y056654D01*
X123273Y056643D01*
X123249Y056625D01*
X123224Y05661D01*
X123203Y056589D01*
X123179Y056571D01*
X123161Y056547D01*
X12314Y056526D01*
X123125Y056501D01*
X123107Y056477D01*
X123096Y056449D01*
X123081Y056424D01*
X123073Y056395D01*
X123062Y056367D01*
X123058Y056338D01*
X12305Y056309D01*
Y05628D01*
X123046Y05625D01*
Y05525D01*
Y054491D01*
X123046Y05449D01*
Y05401D01*
X123046Y054009D01*
Y054001D01*
X123043Y053917D01*
X123032Y053814D01*
X123013Y053715D01*
X122986Y053619D01*
X122953Y053527D01*
X122911Y053438D01*
X122862Y053351D01*
X122805Y053268D01*
X122741Y053187D01*
X122684Y053125D01*
X120044Y050486D01*
X12Y050513D01*
Y0515D01*
X12175Y05325D01*
Y05675D01*
X1235Y0585D01*
X1445D01*
X14575Y05975D01*
X14575Y060511D01*
X1458Y06054D01*
X145834Y06052D01*
X145911Y0605D01*
X14599D01*
X146066Y06052D01*
X146107Y060545D01*
X146119Y060545D01*
X149024D01*
X149034Y060543D01*
X149041Y060541D01*
X149043Y060534D01*
X149045Y060524D01*
Y056556D01*
X148882Y056392D01*
X148834Y05638D01*
X148766Y05634D01*
X14871Y056284D01*
X14867Y056216D01*
X14865Y056139D01*
Y056075D01*
X148645Y05605D01*
X148665Y055952D01*
X14872Y05587D01*
X148802Y055814D01*
X1489Y055795D01*
X148925Y0558D01*
X148989D01*
X149066Y05582D01*
X149134Y05586D01*
X14919Y055916D01*
X14923Y055984D01*
X149242Y056031D01*
X14925Y056039D01*
X14948Y05627D01*
X149535Y056352D01*
X149555Y05645D01*
Y060594D01*
X149557Y060613D01*
X149562Y060639D01*
X149568Y060662D01*
X149577Y060685D01*
X149587Y060707D01*
X149599Y060729D01*
X149614Y06075D01*
X149626Y060765D01*
X150568Y061708D01*
X150616Y06172D01*
X150684Y06176D01*
X15074Y061816D01*
X15078Y061884D01*
X1508Y061961D01*
Y062039D01*
X15078Y062116D01*
X15074Y062184D01*
X150684Y06224D01*
X150616Y06228D01*
X15054Y0623D01*
X150461D01*
X150384Y06228D01*
X150316Y06224D01*
X15026Y062184D01*
X15022Y062116D01*
X150208Y062069D01*
X1502Y062061D01*
X149265Y061126D01*
X14925Y061114D01*
X149229Y061099D01*
X149207Y061087D01*
X149185Y061077D01*
X149162Y061068D01*
X149139Y061062D01*
X149113Y061057D01*
X149094Y061055D01*
X146109D01*
X146066Y06108D01*
X14599Y0611D01*
X145911D01*
X145834Y06108D01*
X1458Y06106D01*
X14575Y061088D01*
X145749Y063831D01*
X1445Y065007D01*
X144264Y065261D01*
X144264Y065769D01*
X144264Y066489D01*
X1445Y06675D01*
X14775D01*
X148011Y066489D01*
D02*
G37*
G36*
X123806Y054086D02*
X123824Y053984D01*
X123854Y053894D01*
X123896Y053816D01*
X12395Y05375D01*
X124016Y053696D01*
X124094Y053654D01*
X124184Y053624D01*
X124286Y053606D01*
X1244Y0536D01*
X124224Y053D01*
X124106Y052996D01*
X123991Y052983D01*
X12388Y052962D01*
X123772Y052932D01*
X123668Y052894D01*
X123568Y052847D01*
X12347Y052792D01*
X123377Y052728D01*
X123287Y052656D01*
X1232Y052576D01*
X122776Y053D01*
X122856Y053087D01*
X122928Y053177D01*
X122992Y05327D01*
X123047Y053368D01*
X123094Y053468D01*
X123132Y053572D01*
X123162Y05368D01*
X123183Y053791D01*
X123196Y053906D01*
X1232Y054024D01*
X1238Y0542D01*
X123806Y054086D01*
D02*
G37*
G36*
X123413Y066331D02*
Y061331D01*
X121413Y059331D01*
Y057081D01*
X121163Y056831D01*
Y053581D01*
X119913Y052331D01*
X117163D01*
X116413Y051581D01*
Y050515D01*
X116374Y050485D01*
X116316Y0505D01*
X116184D01*
X116057Y050466D01*
X115943Y0504D01*
X11585Y050307D01*
X115784Y050193D01*
X11575Y050066D01*
Y049934D01*
X115784Y049807D01*
X11585Y049693D01*
X115943Y0496D01*
X116057Y049534D01*
X116184Y0495D01*
X116316D01*
X116374Y049515D01*
X116413Y049485D01*
Y048081D01*
X11625Y047918D01*
Y045918D01*
X115413Y045081D01*
X114413D01*
X114163Y044831D01*
X113849Y044517D01*
X113803Y044536D01*
Y045911D01*
X115014Y047123D01*
X11534D01*
X115414Y047132D01*
X115484Y047161D01*
X115543Y047207D01*
X115589Y047266D01*
X115618Y047336D01*
X115627Y04741D01*
Y04809D01*
X115618Y048164D01*
X115589Y048234D01*
X115543Y048293D01*
X115484Y048339D01*
X115414Y048368D01*
X11534Y048377D01*
X11466D01*
X114586Y048368D01*
X114516Y048339D01*
X114457Y048293D01*
X114411Y048234D01*
X114382Y048164D01*
X114373Y04809D01*
Y047764D01*
X113129Y046521D01*
X113057Y046427D01*
X113012Y046317D01*
X112996Y0462D01*
X113012Y046083D01*
X113057Y045973D01*
X113097Y045921D01*
Y04095D01*
X113109Y040859D01*
X113144Y040773D01*
X1132Y0407D01*
X11505Y03885D01*
X115123Y038794D01*
X115209Y038759D01*
X1153Y038747D01*
X129304D01*
X129955Y038096D01*
X129927Y038056D01*
X129841Y038091D01*
X12975Y038103D01*
X1257D01*
X125609Y038091D01*
X125523Y038056D01*
X12545Y038D01*
X12485Y0374D01*
X124794Y037327D01*
X124791Y037318D01*
X124781Y037316D01*
X124738Y037321D01*
X124717Y037371D01*
X124675Y037425D01*
X124621Y037467D01*
X124558Y037493D01*
X12449Y037502D01*
X12401D01*
X123942Y037493D01*
X123879Y037467D01*
X123825Y037425D01*
X123783Y037371D01*
X123757Y037308D01*
X123748Y03724D01*
Y03676D01*
X123757Y036692D01*
X123783Y036629D01*
X123825Y036575D01*
X123879Y036533D01*
X123942Y036507D01*
X124005Y036498D01*
X124008Y036493D01*
X124003Y03644D01*
X12394Y036403D01*
X123847Y03631D01*
X123781Y036196D01*
X123747Y036069D01*
Y035937D01*
X123781Y03581D01*
X123847Y035696D01*
X12394Y035603D01*
X124054Y035537D01*
X124181Y035503D01*
X124313D01*
X12444Y035537D01*
X124554Y035603D01*
X124647Y035696D01*
X124697Y035782D01*
X124747Y035769D01*
Y034446D01*
X12375Y03345D01*
X123694Y033377D01*
X123659Y033291D01*
X123647Y0332D01*
Y030084D01*
X123646Y03008D01*
X123645Y030029D01*
X123642Y029992D01*
X123639Y029978D01*
X12358D01*
X1235Y029967D01*
X123426Y029936D01*
X123362Y029888D01*
X123314Y029824D01*
X123283Y02975D01*
X123272Y02967D01*
Y02883D01*
X123283Y02875D01*
X123314Y028676D01*
X123362Y028612D01*
X123426Y028564D01*
X1235Y028533D01*
X12358Y028522D01*
X12442D01*
X1245Y028533D01*
X124574Y028564D01*
X124638Y028612D01*
X124686Y028676D01*
X124717Y02875D01*
X124728Y02883D01*
Y02967D01*
X124717Y02975D01*
X124686Y029824D01*
X124638Y029888D01*
X124574Y029936D01*
X1245Y029967D01*
X12442Y029978D01*
X124361D01*
X124358Y029992D01*
X124355Y030029D01*
X124354Y03008D01*
X124353Y030084D01*
Y033054D01*
X12535Y03405D01*
X125406Y034123D01*
X125441Y034209D01*
X125453Y0343D01*
Y034916D01*
X125503Y034923D01*
X125534Y034807D01*
X1256Y034693D01*
X125693Y0346D01*
X125807Y034534D01*
X125934Y0345D01*
X126066D01*
X126193Y034534D01*
X126307Y0346D01*
X1264Y034693D01*
X126466Y034807D01*
X1265Y034934D01*
Y035066D01*
X126466Y035193D01*
X1264Y035307D01*
X126307Y0354D01*
X126193Y035466D01*
X126155Y035476D01*
Y035528D01*
X12619Y035537D01*
X126304Y035603D01*
X126397Y035696D01*
X126463Y03581D01*
X126497Y035937D01*
Y036069D01*
X126463Y036196D01*
X126397Y03631D01*
X126304Y036403D01*
X126227Y036448D01*
X12624Y036498D01*
X126308Y036507D01*
X126371Y036533D01*
X126425Y036575D01*
X126467Y036629D01*
X126493Y036692D01*
X126502Y03676D01*
Y03724D01*
X126493Y037308D01*
X126477Y037347D01*
X126507Y037397D01*
X128243D01*
X128273Y037347D01*
X128257Y037308D01*
X128248Y03724D01*
Y03676D01*
X128257Y036692D01*
X128283Y036629D01*
X128325Y036575D01*
X128379Y036533D01*
X128442Y036507D01*
X128505Y036498D01*
X128508Y036493D01*
X128503Y03644D01*
X12844Y036403D01*
X128347Y03631D01*
X128281Y036196D01*
X128247Y036069D01*
Y035937D01*
X128281Y03581D01*
X128347Y035696D01*
X12844Y035603D01*
X128554Y035537D01*
X128681Y035503D01*
X128813D01*
X12894Y035537D01*
X129054Y035603D01*
X129147Y035696D01*
X129213Y03581D01*
X129247Y035937D01*
Y036069D01*
X129213Y036196D01*
X129147Y03631D01*
X129054Y036403D01*
X128977Y036448D01*
X12899Y036498D01*
X129058Y036507D01*
X129121Y036533D01*
X129175Y036575D01*
X129217Y036629D01*
X129243Y036692D01*
X129252Y03676D01*
Y03724D01*
X129243Y037308D01*
X129227Y037347D01*
X129257Y037397D01*
X129604D01*
X129837Y037164D01*
X129839Y037161D01*
X129944Y037048D01*
X129978Y037006D01*
X129998Y036977D01*
Y036878D01*
X129997Y036876D01*
X129998Y036874D01*
Y03676D01*
X130007Y036692D01*
X130033Y036629D01*
X130075Y036575D01*
X130129Y036533D01*
X130192Y036507D01*
X130255Y036498D01*
X130258Y036493D01*
X130253Y03644D01*
X13019Y036403D01*
X130097Y03631D01*
X130031Y036196D01*
X129997Y036069D01*
Y035937D01*
X130031Y03581D01*
X130097Y035696D01*
X13019Y035603D01*
X130304Y035537D01*
X130342Y035527D01*
Y035475D01*
X130307Y035466D01*
X130193Y0354D01*
X1301Y035307D01*
X130034Y035193D01*
X13Y035066D01*
Y034934D01*
X130034Y034807D01*
X1301Y034693D01*
X130193Y0346D01*
X130307Y034534D01*
X130434Y0345D01*
X130566D01*
X130693Y034534D01*
X130807Y0346D01*
X1309Y034693D01*
X130966Y034807D01*
X131Y034934D01*
Y035066D01*
X130966Y035193D01*
X1309Y035307D01*
X130807Y0354D01*
X130693Y035466D01*
X130655Y035476D01*
Y035528D01*
X13069Y035537D01*
X130804Y035603D01*
X130897Y035696D01*
X130963Y03581D01*
X130997Y035937D01*
Y036004D01*
X131047Y036025D01*
X131752Y03532D01*
X131815Y035272D01*
X131888Y035242D01*
X131966Y035232D01*
X131966Y035232D01*
X132075D01*
X132081Y03523D01*
X132093Y03523D01*
X132165Y035189D01*
X132254Y035165D01*
X132346D01*
X132435Y035189D01*
X132515Y035235D01*
X13258Y0353D01*
X132626Y03538D01*
X13265Y035469D01*
Y035561D01*
X132627Y035647D01*
X132626Y035656D01*
X132654Y035697D01*
X134204D01*
X1346Y0353D01*
X134673Y035244D01*
X134759Y035209D01*
X13485Y035197D01*
X1444D01*
X144491Y035209D01*
X144577Y035244D01*
X14465Y0353D01*
X1447Y03535D01*
X144714Y035369D01*
X14473Y035385D01*
X144742Y035405D01*
X144753Y03542D01*
X144758Y035424D01*
X144806Y035433D01*
X144814Y035431D01*
X145413Y034831D01*
Y031331D01*
X144413Y030331D01*
Y028581D01*
X143913Y028081D01*
X115413D01*
X114913Y028581D01*
Y031331D01*
X114163Y032081D01*
X112913D01*
X112229Y032765D01*
Y062397D01*
X112663Y062831D01*
X114163D01*
X115163Y063831D01*
X115163Y066331D01*
X115602Y066771D01*
X122974D01*
X123413Y066331D01*
D02*
G37*
G36*
X14785Y05065D02*
X147826Y050025D01*
X147823Y050032D01*
X147813Y050038D01*
X147796Y050044D01*
X147772Y050049D01*
X147742Y050052D01*
X147661Y050058D01*
X147488Y050061D01*
Y050662D01*
X14785Y05065D01*
D02*
G37*
G36*
X127427Y050144D02*
X1273Y050003D01*
X127003Y0503D01*
X127007Y050301D01*
X127013Y050305D01*
X127022Y050311D01*
X127045Y050332D01*
X12712Y050403D01*
X127144Y050427D01*
X127427Y050144D01*
D02*
G37*
G36*
X127208Y049782D02*
X127206Y049775D01*
X127205Y049765D01*
X127203Y049734D01*
X1272Y049631D01*
X1272Y049596D01*
X1268D01*
X12679Y049786D01*
X12721D01*
X127208Y049782D01*
D02*
G37*
G36*
X145497Y0492D02*
X145454Y0492D01*
X145376Y049194D01*
X145342Y04919D01*
X14531Y049183D01*
X145282Y049175D01*
X145257Y049166D01*
X145235Y049155D01*
X145215Y049142D01*
X145199Y049128D01*
X145128Y049199D01*
X145142Y049215D01*
X145155Y049235D01*
X145166Y049257D01*
X145175Y049282D01*
X145183Y04931D01*
X14519Y049342D01*
X145194Y049376D01*
X1452Y049454D01*
X1452Y049497D01*
X145497Y0492D01*
D02*
G37*
G36*
X144497D02*
X144454Y0492D01*
X144376Y049194D01*
X144342Y04919D01*
X14431Y049183D01*
X144282Y049175D01*
X144257Y049166D01*
X144235Y049155D01*
X144215Y049142D01*
X144199Y049128D01*
X144128Y049199D01*
X144142Y049215D01*
X144155Y049235D01*
X144166Y049257D01*
X144175Y049282D01*
X144183Y04931D01*
X14419Y049342D01*
X144194Y049376D01*
X1442Y049454D01*
X1442Y049497D01*
X144497Y0492D01*
D02*
G37*
G36*
X140918Y047845D02*
X140929Y047835D01*
X140941Y047827D01*
X140953Y04782D01*
X140965Y047814D01*
X140978Y047809D01*
X140991Y047805D01*
X141004Y047802D01*
X141018Y047801D01*
X141031Y0478D01*
Y0477D01*
X141018Y047699D01*
X141004Y047698D01*
X140991Y047695D01*
X140978Y047691D01*
X140965Y047686D01*
X140953Y04768D01*
X140941Y047673D01*
X140929Y047665D01*
X140918Y047655D01*
X140907Y047645D01*
Y047855D01*
X140918Y047845D01*
D02*
G37*
G36*
X131898Y0459D02*
X131897Y045899D01*
X131893Y045897D01*
X131889Y045894D01*
X131877Y045884D01*
X13184Y045849D01*
X131828Y045837D01*
X131687Y045978D01*
X13175Y046048D01*
X131898Y0459D01*
D02*
G37*
G36*
X127Y04605D02*
X127075Y045925D01*
X1272Y04605D01*
X127203Y046036D01*
X127211Y046018D01*
X127225Y045995D01*
X127244Y045968D01*
X127299Y045901D01*
X127424Y045768D01*
X127476Y045715D01*
X127335Y045574D01*
X127282Y045626D01*
X127164Y045729D01*
X12715Y045736D01*
X127115Y045743D01*
X127076Y045742D01*
X127035Y045732D01*
X126992Y045713D01*
X126945Y045687D01*
X126895Y045651D01*
X126843Y045607D01*
X126788Y045555D01*
X126517Y04585D01*
X126571Y045908D01*
X126619Y045968D01*
X126661Y04603D01*
X126698Y046095D01*
X126729Y046162D01*
X126755Y046232D01*
X126775Y046303D01*
X126789Y046378D01*
X126797Y046454D01*
X1268Y046533D01*
X127Y04605D01*
D02*
G37*
G36*
X143Y041583D02*
X143002Y041569D01*
X143004Y041555D01*
X143007Y041541D01*
X143012Y041528D01*
X143017Y041516D01*
X143024Y041504D01*
X143031Y041493D01*
X14304Y041482D01*
X143049Y041472D01*
X142978Y041401D01*
X142968Y04141D01*
X142957Y041419D01*
X142946Y041426D01*
X142934Y041433D01*
X142922Y041438D01*
X142909Y041443D01*
X142895Y041446D01*
X142881Y041448D01*
X142867Y04145D01*
X142851Y04145D01*
X143Y041599D01*
X143Y041583D01*
D02*
G37*
G36*
X126654Y040524D02*
X126666Y040456D01*
X126686Y040396D01*
X126714Y040344D01*
X12675Y0403D01*
X126794Y040264D01*
X126846Y040236D01*
X126906Y040216D01*
X126974Y040204D01*
X12705Y0402D01*
X12645Y0398D01*
X12585Y0402D01*
X125926Y040204D01*
X125994Y040216D01*
X126054Y040236D01*
X126106Y040264D01*
X12615Y0403D01*
X126186Y040344D01*
X126214Y040396D01*
X126234Y040456D01*
X126246Y040524D01*
X12625Y0406D01*
X12665D01*
X126654Y040524D01*
D02*
G37*
G36*
X130262Y037453D02*
X130372Y037359D01*
X130421Y037325D01*
X130466Y037299D01*
X130506Y037282D01*
X130542Y037274D01*
X130574Y037274D01*
X130601Y037282D01*
X130624Y037299D01*
X130201Y036876D01*
X130218Y036899D01*
X130226Y036926D01*
X130226Y036958D01*
X130218Y036994D01*
X130201Y037034D01*
X130175Y037079D01*
X130141Y037128D01*
X130098Y037181D01*
X129988Y0373D01*
X1302Y037512D01*
X130262Y037453D01*
D02*
G37*
G36*
X125718Y036718D02*
X125705Y036733D01*
X125687Y036747D01*
X125666Y03676D01*
X12564Y03677D01*
X125611Y036779D01*
X125577Y036787D01*
X125539Y036793D01*
X125497Y036797D01*
X1254Y0368D01*
Y0371D01*
X125458Y037102D01*
X12551Y037106D01*
X125556Y037113D01*
X125596Y037124D01*
X125629Y037137D01*
X125657Y037154D01*
X125678Y037173D01*
X125692Y037196D01*
X125701Y037221D01*
X125703Y03725D01*
X125718Y036718D01*
D02*
G37*
G36*
X148632Y03679D02*
X148643Y036781D01*
X148654Y036774D01*
X148666Y036767D01*
X148678Y036762D01*
X148691Y036757D01*
X148705Y036754D01*
X148719Y036752D01*
X148733Y03675D01*
X148749Y03675D01*
X1486Y036602D01*
X1486Y036617D01*
X148598Y036631D01*
X148596Y036645D01*
X148593Y036659D01*
X148588Y036672D01*
X148583Y036684D01*
X148576Y036696D01*
X148569Y036707D01*
X14856Y036718D01*
X148551Y036728D01*
X148622Y036799D01*
X148632Y03679D01*
D02*
G37*
G36*
X130652Y036996D02*
X130658Y036988D01*
X130684Y036961D01*
X13073Y036914D01*
X130799Y036983D01*
X130788Y036967D01*
X130782Y036949D01*
X130782Y036928D01*
X130788Y036904D01*
X130799Y036877D01*
X130816Y036847D01*
X130839Y036815D01*
X130868Y036779D01*
X130941Y0367D01*
X1308Y036559D01*
X130759Y036598D01*
X130685Y036661D01*
X130653Y036684D01*
X130623Y036701D01*
X130596Y036712D01*
X130572Y036718D01*
X130551Y036718D01*
X130533Y036712D01*
X130517Y036701D01*
X130585Y036769D01*
X1305Y03685D01*
X13065Y037D01*
X130652Y036996D01*
D02*
G37*
G36*
X132207Y035633D02*
X13218Y035424D01*
X132178Y035426D01*
X132174Y035428D01*
X132169Y035429D01*
X132161Y035431D01*
X132153Y035432D01*
X132116Y035434D01*
X132084Y035434D01*
X132119Y035634D01*
X132207Y035633D01*
D02*
G37*
G36*
X124151Y030017D02*
X124156Y029966D01*
X124164Y029921D01*
X124174Y029882D01*
X124187Y029849D01*
X124204Y029822D01*
X124223Y029801D01*
X124246Y029786D01*
X124271Y029777D01*
X1243Y029773D01*
X1237D01*
X123729Y029777D01*
X123754Y029786D01*
X123777Y029801D01*
X123796Y029822D01*
X123813Y029849D01*
X123826Y029882D01*
X123836Y029921D01*
X123844Y029966D01*
X123848Y030017D01*
X12385Y030075D01*
X12415D01*
X124151Y030017D01*
D02*
G37*
G36*
X149597Y034475D02*
X149411Y034289D01*
X149411Y034289D01*
X147175Y032053D01*
X14655D01*
X14653Y03205D01*
X14651D01*
X146491Y032045D01*
X146472Y032042D01*
X146453Y032035D01*
X146434Y03203D01*
X146417Y03202D01*
X146399Y032012D01*
X146383Y032D01*
X146366Y03199D01*
X146352Y031976D01*
X146336Y031964D01*
X146324Y031948D01*
X14631Y031934D01*
X1463Y031917D01*
X146288Y031901D01*
X14628Y031883D01*
X14627Y031866D01*
X146265Y031847D01*
X146258Y031828D01*
X146255Y031809D01*
X14625Y03179D01*
Y03177D01*
X146247Y03175D01*
X14625Y03173D01*
Y031711D01*
X146255Y031691D01*
X146258Y031672D01*
X146265Y031653D01*
X14627Y031634D01*
X14628Y031617D01*
X146288Y031599D01*
X1463Y031583D01*
X14631Y031566D01*
X146324Y031552D01*
X146336Y031536D01*
X146352Y031524D01*
X146366Y03151D01*
X146383Y0315D01*
X146399Y031488D01*
X146417Y03148D01*
X146434Y03147D01*
X146453Y031465D01*
X146472Y031458D01*
X146491Y031455D01*
X14651Y03145D01*
X14653D01*
X14655Y031447D01*
X1473D01*
X147378Y031458D01*
X147451Y031488D01*
X147514Y031536D01*
X149725Y033747D01*
X15085D01*
X15087Y03375D01*
X15089D01*
X150909Y033755D01*
X150928Y033758D01*
X150947Y033765D01*
X15095Y033766D01*
X150989Y033744D01*
X151Y033732D01*
Y0325D01*
X15025Y03175D01*
X149D01*
X14825Y031D01*
Y0285D01*
X14775Y028D01*
X1455D01*
X145Y0285D01*
Y03D01*
X146Y031D01*
X146Y03525D01*
X145849Y035401D01*
X145868Y035447D01*
X149597D01*
Y034475D01*
D02*
G37*
%LPC*%
G36*
X145326Y066325D02*
X145174D01*
X145028Y066286D01*
X144897Y06621D01*
X14479Y066103D01*
X144714Y065972D01*
X144675Y065826D01*
Y065674D01*
X144714Y065528D01*
X14479Y065397D01*
X144897Y06529D01*
X145028Y065214D01*
X145174Y065175D01*
X145326D01*
X145472Y065214D01*
X145603Y06529D01*
X14571Y065397D01*
X145786Y065528D01*
X145825Y065674D01*
Y065826D01*
X145786Y065972D01*
X14571Y066103D01*
X145603Y06621D01*
X145472Y066286D01*
X145326Y066325D01*
D02*
G37*
G36*
X14709Y06633D02*
X14641D01*
X146318Y066311D01*
X146241Y066259D01*
X146189Y066182D01*
X14617Y06609D01*
Y06541D01*
X146189Y065318D01*
X146241Y065241D01*
X146318Y065189D01*
X14641Y06517D01*
X14709D01*
X147182Y065189D01*
X147259Y065241D01*
X147311Y065318D01*
X14733Y06541D01*
Y06609D01*
X147311Y066182D01*
X147259Y066259D01*
X147182Y066311D01*
X14709Y06633D01*
D02*
G37*
G36*
X122575Y056644D02*
Y056325D01*
X122894D01*
X122873Y056404D01*
X12282Y056496D01*
X122746Y05657D01*
X122654Y056623D01*
X122575Y056644D01*
D02*
G37*
G36*
X122425D02*
X122346Y056623D01*
X122254Y05657D01*
X12218Y056496D01*
X122127Y056404D01*
X122106Y056325D01*
X122425D01*
Y056644D01*
D02*
G37*
G36*
X122894Y056175D02*
X122575D01*
Y055856D01*
X122654Y055877D01*
X122746Y05593D01*
X12282Y056004D01*
X122873Y056096D01*
X122894Y056175D01*
D02*
G37*
G36*
X122425D02*
X122106D01*
X122127Y056096D01*
X12218Y056004D01*
X122254Y05593D01*
X122346Y055877D01*
X122425Y055856D01*
Y056175D01*
D02*
G37*
G36*
X122575Y055644D02*
Y055325D01*
X122894D01*
X122873Y055404D01*
X12282Y055496D01*
X122746Y05557D01*
X122654Y055623D01*
X122575Y055644D01*
D02*
G37*
G36*
X122425D02*
X122346Y055623D01*
X122254Y05557D01*
X12218Y055496D01*
X122127Y055404D01*
X122106Y055325D01*
X122425D01*
Y055644D01*
D02*
G37*
G36*
X149578Y055397D02*
Y055078D01*
X149897D01*
X149876Y055157D01*
X149823Y055248D01*
X149749Y055323D01*
X149658Y055376D01*
X149578Y055397D01*
D02*
G37*
G36*
X149428D02*
X149349Y055376D01*
X149258Y055323D01*
X149183Y055248D01*
X14913Y055157D01*
X149109Y055078D01*
X149428D01*
Y055397D01*
D02*
G37*
G36*
X122894Y055175D02*
X122575D01*
Y054856D01*
X122654Y054877D01*
X122746Y05493D01*
X12282Y055004D01*
X122873Y055096D01*
X122894Y055175D01*
D02*
G37*
G36*
X122425D02*
X122106D01*
X122127Y055096D01*
X12218Y055004D01*
X122254Y05493D01*
X122346Y054877D01*
X122425Y054856D01*
Y055175D01*
D02*
G37*
G36*
X148539Y05845D02*
X148461D01*
X148384Y05843D01*
X148316Y05839D01*
X14826Y058334D01*
X14822Y058266D01*
X1482Y05819D01*
Y058165D01*
X148197Y058152D01*
X148197Y058142D01*
X148197Y058139D01*
X148196Y058136D01*
X148196Y058134D01*
X148195Y058134D01*
X146506Y056444D01*
X146462Y056378D01*
X146446Y0563D01*
Y055227D01*
X146446Y055226D01*
X146445Y055225D01*
X146443Y055223D01*
X146441Y05522D01*
X146434Y055213D01*
X146427Y055202D01*
X14641Y055184D01*
X14637Y055116D01*
X14635Y05504D01*
Y05496D01*
X14637Y054884D01*
X14641Y054816D01*
X146466Y05476D01*
X146534Y05472D01*
X14661Y0547D01*
X14669D01*
X146766Y05472D01*
X146834Y05476D01*
X14689Y054816D01*
X14693Y054884D01*
X14695Y05496D01*
Y05504D01*
X14693Y055116D01*
X14689Y055184D01*
X146873Y055202D01*
X146866Y055213D01*
X146859Y05522D01*
X146857Y055223D01*
X146855Y055225D01*
X146854Y055226D01*
X146854Y055227D01*
Y056216D01*
X148484Y057846D01*
X148484Y057846D01*
X148486Y057846D01*
X148489Y057847D01*
X148492Y057847D01*
X148502Y057847D01*
X148515Y05785D01*
X148539D01*
X148616Y05787D01*
X148684Y05791D01*
X14874Y057966D01*
X14878Y058034D01*
X1488Y05811D01*
Y05819D01*
X14878Y058266D01*
X14874Y058334D01*
X148684Y05839D01*
X148616Y05843D01*
X148539Y05845D01*
D02*
G37*
G36*
X149897Y054928D02*
X149578D01*
Y054609D01*
X149658Y05463D01*
X149749Y054683D01*
X149823Y054757D01*
X149876Y054848D01*
X149897Y054928D01*
D02*
G37*
G36*
X149428D02*
X149109D01*
X14913Y054848D01*
X149183Y054757D01*
X149258Y054683D01*
X149349Y05463D01*
X149428Y054609D01*
Y054928D01*
D02*
G37*
G36*
X148559Y05545D02*
X148441D01*
X148326Y055419D01*
X148224Y05536D01*
X14814Y055276D01*
X148081Y055174D01*
X14805Y055059D01*
Y054941D01*
X148081Y054826D01*
X14814Y054724D01*
X148224Y05464D01*
X148326Y054581D01*
X148441Y05455D01*
X148559D01*
X148674Y054581D01*
X148776Y05464D01*
X14886Y054724D01*
X148919Y054826D01*
X14895Y054941D01*
Y055059D01*
X148919Y055174D01*
X14886Y055276D01*
X148776Y05536D01*
X148674Y055419D01*
X148559Y05545D01*
D02*
G37*
G36*
X147743Y055457D02*
X147263D01*
X147181Y055441D01*
X147112Y055394D01*
X147065Y055325D01*
X147049Y055243D01*
Y054763D01*
X147065Y054681D01*
X147112Y054611D01*
X147181Y054565D01*
X147263Y054549D01*
X147743D01*
X147825Y054565D01*
X147895Y054611D01*
X147941Y054681D01*
X147957Y054763D01*
Y055243D01*
X147941Y055325D01*
X147895Y055394D01*
X147825Y055441D01*
X147743Y055457D01*
D02*
G37*
G36*
X122575Y054644D02*
Y054325D01*
X122894D01*
X122873Y054404D01*
X12282Y054496D01*
X122746Y05457D01*
X122654Y054623D01*
X122575Y054644D01*
D02*
G37*
G36*
X122425D02*
X122346Y054623D01*
X122254Y05457D01*
X12218Y054496D01*
X122127Y054404D01*
X122106Y054325D01*
X122425D01*
Y054644D01*
D02*
G37*
G36*
X144809Y0552D02*
X144691D01*
X144576Y055169D01*
X144474Y05511D01*
X14439Y055026D01*
X144331Y054924D01*
X1443Y054809D01*
Y054691D01*
X144331Y054576D01*
X14439Y054474D01*
X144474Y05439D01*
X144576Y054331D01*
X144691Y0543D01*
X144809D01*
X144924Y054331D01*
X145026Y05439D01*
X14511Y054474D01*
X145169Y054576D01*
X1452Y054691D01*
Y054809D01*
X145169Y054924D01*
X14511Y055026D01*
X145026Y05511D01*
X144924Y055169D01*
X144809Y0552D01*
D02*
G37*
G36*
X141309D02*
X141191D01*
X141076Y055169D01*
X140974Y05511D01*
X14089Y055026D01*
X140831Y054924D01*
X1408Y054809D01*
Y054691D01*
X140831Y054576D01*
X14089Y054474D01*
X140974Y05439D01*
X141076Y054331D01*
X141191Y0543D01*
X141309D01*
X141424Y054331D01*
X141526Y05439D01*
X14161Y054474D01*
X141669Y054576D01*
X1417Y054691D01*
Y054809D01*
X141669Y054924D01*
X14161Y055026D01*
X141526Y05511D01*
X141424Y055169D01*
X141309Y0552D01*
D02*
G37*
G36*
X137809D02*
X137691D01*
X137576Y055169D01*
X137474Y05511D01*
X13739Y055026D01*
X137331Y054924D01*
X1373Y054809D01*
Y054691D01*
X137331Y054576D01*
X13739Y054474D01*
X137474Y05439D01*
X137576Y054331D01*
X137691Y0543D01*
X137809D01*
X137924Y054331D01*
X138026Y05439D01*
X13811Y054474D01*
X138169Y054576D01*
X1382Y054691D01*
Y054809D01*
X138169Y054924D01*
X13811Y055026D01*
X138026Y05511D01*
X137924Y055169D01*
X137809Y0552D01*
D02*
G37*
G36*
X134309D02*
X134191D01*
X134076Y055169D01*
X133974Y05511D01*
X13389Y055026D01*
X133831Y054924D01*
X1338Y054809D01*
Y054691D01*
X133831Y054576D01*
X13389Y054474D01*
X133974Y05439D01*
X134076Y054331D01*
X134191Y0543D01*
X134309D01*
X134424Y054331D01*
X134526Y05439D01*
X13461Y054474D01*
X134669Y054576D01*
X1347Y054691D01*
Y054809D01*
X134669Y054924D01*
X13461Y055026D01*
X134526Y05511D01*
X134424Y055169D01*
X134309Y0552D01*
D02*
G37*
G36*
X130809D02*
X130691D01*
X130576Y055169D01*
X130474Y05511D01*
X13039Y055026D01*
X130331Y054924D01*
X1303Y054809D01*
Y054691D01*
X130331Y054576D01*
X13039Y054474D01*
X130474Y05439D01*
X130576Y054331D01*
X130691Y0543D01*
X130809D01*
X130924Y054331D01*
X131026Y05439D01*
X13111Y054474D01*
X131169Y054576D01*
X1312Y054691D01*
Y054809D01*
X131169Y054924D01*
X13111Y055026D01*
X131026Y05511D01*
X130924Y055169D01*
X130809Y0552D01*
D02*
G37*
G36*
X127309D02*
X127191D01*
X127076Y055169D01*
X126974Y05511D01*
X12689Y055026D01*
X126831Y054924D01*
X1268Y054809D01*
Y054691D01*
X126831Y054576D01*
X12689Y054474D01*
X126974Y05439D01*
X127076Y054331D01*
X127191Y0543D01*
X127309D01*
X127424Y054331D01*
X127526Y05439D01*
X12761Y054474D01*
X127669Y054576D01*
X1277Y054691D01*
Y054809D01*
X127669Y054924D01*
X12761Y055026D01*
X127526Y05511D01*
X127424Y055169D01*
X127309Y0552D01*
D02*
G37*
G36*
X143806Y055197D02*
X143688D01*
X143573Y055167D01*
X143471Y055107D01*
X143387Y055023D01*
X143328Y054921D01*
X143297Y054806D01*
Y054688D01*
X143328Y054573D01*
X143387Y054471D01*
X143471Y054387D01*
X143573Y054328D01*
X143688Y054297D01*
X143806D01*
X143921Y054328D01*
X144023Y054387D01*
X144107Y054471D01*
X144166Y054573D01*
X144197Y054688D01*
Y054806D01*
X144166Y054921D01*
X144107Y055023D01*
X144023Y055107D01*
X143921Y055167D01*
X143806Y055197D01*
D02*
G37*
G36*
X140306D02*
X140188D01*
X140073Y055167D01*
X139971Y055107D01*
X139887Y055023D01*
X139828Y054921D01*
X139797Y054806D01*
Y054688D01*
X139828Y054573D01*
X139887Y054471D01*
X139971Y054387D01*
X140073Y054328D01*
X140188Y054297D01*
X140306D01*
X140421Y054328D01*
X140523Y054387D01*
X140607Y054471D01*
X140666Y054573D01*
X140697Y054688D01*
Y054806D01*
X140666Y054921D01*
X140607Y055023D01*
X140523Y055107D01*
X140421Y055167D01*
X140306Y055197D01*
D02*
G37*
G36*
X136806D02*
X136688D01*
X136573Y055167D01*
X136471Y055107D01*
X136387Y055023D01*
X136328Y054921D01*
X136297Y054806D01*
Y054688D01*
X136328Y054573D01*
X136387Y054471D01*
X136471Y054387D01*
X136573Y054328D01*
X136688Y054297D01*
X136806D01*
X136921Y054328D01*
X137023Y054387D01*
X137107Y054471D01*
X137166Y054573D01*
X137197Y054688D01*
Y054806D01*
X137166Y054921D01*
X137107Y055023D01*
X137023Y055107D01*
X136921Y055167D01*
X136806Y055197D01*
D02*
G37*
G36*
X133306D02*
X133188D01*
X133073Y055167D01*
X132971Y055107D01*
X132887Y055023D01*
X132828Y054921D01*
X132797Y054806D01*
Y054688D01*
X132828Y054573D01*
X132887Y054471D01*
X132971Y054387D01*
X133073Y054328D01*
X133188Y054297D01*
X133306D01*
X133421Y054328D01*
X133523Y054387D01*
X133607Y054471D01*
X133666Y054573D01*
X133697Y054688D01*
Y054806D01*
X133666Y054921D01*
X133607Y055023D01*
X133523Y055107D01*
X133421Y055167D01*
X133306Y055197D01*
D02*
G37*
G36*
X129806D02*
X129688D01*
X129573Y055167D01*
X129471Y055107D01*
X129387Y055023D01*
X129328Y054921D01*
X129297Y054806D01*
Y054688D01*
X129328Y054573D01*
X129387Y054471D01*
X129471Y054387D01*
X129573Y054328D01*
X129688Y054297D01*
X129806D01*
X129921Y054328D01*
X130023Y054387D01*
X130107Y054471D01*
X130166Y054573D01*
X130197Y054688D01*
Y054806D01*
X130166Y054921D01*
X130107Y055023D01*
X130023Y055107D01*
X129921Y055167D01*
X129806Y055197D01*
D02*
G37*
G36*
X126306D02*
X126188D01*
X126073Y055167D01*
X125971Y055107D01*
X125887Y055023D01*
X125828Y054921D01*
X125797Y054806D01*
Y054688D01*
X125828Y054573D01*
X125887Y054471D01*
X125971Y054387D01*
X126073Y054328D01*
X126188Y054297D01*
X126306D01*
X126421Y054328D01*
X126523Y054387D01*
X126607Y054471D01*
X126666Y054573D01*
X126697Y054688D01*
Y054806D01*
X126666Y054921D01*
X126607Y055023D01*
X126523Y055107D01*
X126421Y055167D01*
X126306Y055197D01*
D02*
G37*
G36*
X14299Y055204D02*
X14251D01*
X142428Y055188D01*
X142359Y055141D01*
X142312Y055072D01*
X142296Y05499D01*
Y05451D01*
X142312Y054428D01*
X142359Y054359D01*
X142428Y054312D01*
X14251Y054296D01*
X14299D01*
X143072Y054312D01*
X143141Y054359D01*
X143188Y054428D01*
X143204Y05451D01*
Y05499D01*
X143188Y055072D01*
X143141Y055141D01*
X143072Y055188D01*
X14299Y055204D01*
D02*
G37*
G36*
X13949D02*
X13901D01*
X138928Y055188D01*
X138859Y055141D01*
X138812Y055072D01*
X138796Y05499D01*
Y05451D01*
X138812Y054428D01*
X138859Y054359D01*
X138928Y054312D01*
X13901Y054296D01*
X13949D01*
X139572Y054312D01*
X139641Y054359D01*
X139688Y054428D01*
X139704Y05451D01*
Y05499D01*
X139688Y055072D01*
X139641Y055141D01*
X139572Y055188D01*
X13949Y055204D01*
D02*
G37*
G36*
X13599D02*
X13551D01*
X135428Y055188D01*
X135359Y055141D01*
X135312Y055072D01*
X135296Y05499D01*
Y05451D01*
X135312Y054428D01*
X135359Y054359D01*
X135428Y054312D01*
X13551Y054296D01*
X13599D01*
X136072Y054312D01*
X136141Y054359D01*
X136188Y054428D01*
X136204Y05451D01*
Y05499D01*
X136188Y055072D01*
X136141Y055141D01*
X136072Y055188D01*
X13599Y055204D01*
D02*
G37*
G36*
X13249D02*
X13201D01*
X131928Y055188D01*
X131859Y055141D01*
X131812Y055072D01*
X131796Y05499D01*
Y05451D01*
X131812Y054428D01*
X131859Y054359D01*
X131928Y054312D01*
X13201Y054296D01*
X13249D01*
X132572Y054312D01*
X132641Y054359D01*
X132688Y054428D01*
X132704Y05451D01*
Y05499D01*
X132688Y055072D01*
X132641Y055141D01*
X132572Y055188D01*
X13249Y055204D01*
D02*
G37*
G36*
X12899D02*
X12851D01*
X128428Y055188D01*
X128359Y055141D01*
X128312Y055072D01*
X128296Y05499D01*
Y05451D01*
X128312Y054428D01*
X128359Y054359D01*
X128428Y054312D01*
X12851Y054296D01*
X12899D01*
X129072Y054312D01*
X129141Y054359D01*
X129188Y054428D01*
X129204Y05451D01*
Y05499D01*
X129188Y055072D01*
X129141Y055141D01*
X129072Y055188D01*
X12899Y055204D01*
D02*
G37*
G36*
X12549D02*
X12501D01*
X124928Y055188D01*
X124859Y055141D01*
X124812Y055072D01*
X124796Y05499D01*
Y05451D01*
X124812Y054428D01*
X124859Y054359D01*
X124928Y054312D01*
X12501Y054296D01*
X12549D01*
X125572Y054312D01*
X125641Y054359D01*
X125688Y054428D01*
X125704Y05451D01*
Y05499D01*
X125688Y055072D01*
X125641Y055141D01*
X125572Y055188D01*
X12549Y055204D01*
D02*
G37*
G36*
X122894Y054175D02*
X122575D01*
Y053856D01*
X122654Y053877D01*
X122746Y05393D01*
X12282Y054004D01*
X122873Y054096D01*
X122894Y054175D01*
D02*
G37*
G36*
X122425D02*
X122106D01*
X122127Y054096D01*
X12218Y054004D01*
X122254Y05393D01*
X122346Y053877D01*
X122425Y053856D01*
Y054175D01*
D02*
G37*
G36*
X148325Y052273D02*
Y051825D01*
X148773D01*
X148739Y051953D01*
X14867Y052072D01*
X148572Y05217D01*
X148453Y052239D01*
X148325Y052273D01*
D02*
G37*
G36*
X148175D02*
X148047Y052239D01*
X147928Y05217D01*
X14783Y052072D01*
X147761Y051953D01*
X147727Y051825D01*
X148175D01*
Y052273D01*
D02*
G37*
G36*
X148773Y051675D02*
X148325D01*
Y051227D01*
X148453Y051261D01*
X148572Y05133D01*
X14867Y051428D01*
X148739Y051547D01*
X148773Y051675D01*
D02*
G37*
G36*
X148175D02*
X147727D01*
X147761Y051547D01*
X14783Y051428D01*
X147928Y05133D01*
X148047Y051261D01*
X148175Y051227D01*
Y051675D01*
D02*
G37*
G36*
X126925Y051394D02*
X126846Y051373D01*
X126754Y05132D01*
X12668Y051246D01*
X126627Y051154D01*
X126606Y051075D01*
X126925D01*
Y051394D01*
D02*
G37*
G36*
X126075D02*
Y051075D01*
X126394D01*
X126373Y051154D01*
X12632Y051246D01*
X126246Y05132D01*
X126154Y051373D01*
X126075Y051394D01*
D02*
G37*
G36*
X125925D02*
X125846Y051373D01*
X125754Y05132D01*
X12568Y051246D01*
X125627Y051154D01*
X125606Y051075D01*
X125925D01*
Y051394D01*
D02*
G37*
G36*
X125075D02*
Y051075D01*
X125394D01*
X125373Y051154D01*
X12532Y051246D01*
X125246Y05132D01*
X125154Y051373D01*
X125075Y051394D01*
D02*
G37*
G36*
X124925D02*
X124846Y051373D01*
X124754Y05132D01*
X12468Y051246D01*
X124627Y051154D01*
X124606Y051075D01*
X124925D01*
Y051394D01*
D02*
G37*
G36*
X126394Y050925D02*
X126075D01*
Y050606D01*
X126154Y050627D01*
X126246Y05068D01*
X12632Y050754D01*
X126373Y050846D01*
X126394Y050925D01*
D02*
G37*
G36*
X125925D02*
X125606D01*
X125627Y050846D01*
X12568Y050754D01*
X125754Y05068D01*
X125846Y050627D01*
X125925Y050606D01*
Y050925D01*
D02*
G37*
G36*
X125394D02*
X125075D01*
Y050606D01*
X125154Y050627D01*
X125246Y05068D01*
X12532Y050754D01*
X125373Y050846D01*
X125394Y050925D01*
D02*
G37*
G36*
X124925D02*
X124606D01*
X124627Y050846D01*
X12468Y050754D01*
X124754Y05068D01*
X124846Y050627D01*
X124925Y050606D01*
Y050925D01*
D02*
G37*
G36*
X14245Y052754D02*
X13735D01*
X137272Y052738D01*
X137206Y052694D01*
X133156Y048644D01*
X133112Y048578D01*
X133096Y0485D01*
Y048127D01*
X133096Y048126D01*
X133095Y048125D01*
X133093Y048123D01*
X133091Y04812D01*
X133084Y048113D01*
X133077Y048102D01*
X13306Y048084D01*
X13302Y048016D01*
X133Y04794D01*
Y04786D01*
X13302Y047784D01*
X13306Y047716D01*
X133116Y04766D01*
X133184Y04762D01*
X13326Y0476D01*
X13334D01*
X133416Y04762D01*
X133484Y04766D01*
X13354Y047716D01*
X13358Y047784D01*
X1336Y04786D01*
Y04794D01*
X13358Y048016D01*
X13354Y048084D01*
X133523Y048102D01*
X133516Y048113D01*
X133509Y04812D01*
X133507Y048123D01*
X133505Y048125D01*
X133504Y048126D01*
X133504Y048127D01*
Y048416D01*
X137204Y052116D01*
X137254Y052095D01*
X13727Y052034D01*
X13731Y051966D01*
X137327Y051948D01*
X137334Y051937D01*
X137341Y05193D01*
X137343Y051927D01*
X137345Y051925D01*
X137346Y051924D01*
X137346Y051923D01*
Y05175D01*
X137362Y051672D01*
X137406Y051606D01*
X138056Y050956D01*
X138122Y050912D01*
X1382Y050896D01*
X139816D01*
X141038Y049674D01*
X141046Y049665D01*
Y04926D01*
X141062Y049178D01*
X141109Y049109D01*
X141178Y049062D01*
X14126Y049046D01*
X14174D01*
X141822Y049062D01*
X141891Y049109D01*
X141938Y049178D01*
X141954Y04926D01*
Y049646D01*
X142004Y049678D01*
X14201Y049675D01*
X142029Y049661D01*
X142031Y049651D01*
X142036Y049629D01*
X142039Y049605D01*
X142044Y049538D01*
X142044Y049499D01*
X142047Y049485D01*
Y049438D01*
X142078Y049323D01*
X142137Y049221D01*
X142221Y049137D01*
X142323Y049078D01*
X142438Y049047D01*
X142556D01*
X142671Y049078D01*
X142773Y049137D01*
X142857Y049221D01*
X142916Y049323D01*
X142947Y049438D01*
Y049556D01*
X142916Y049671D01*
X142857Y049773D01*
X142773Y049857D01*
X142671Y049917D01*
X142556Y049947D01*
X142509D01*
X142495Y04995D01*
X142456Y04995D01*
X142389Y049955D01*
X142365Y049958D01*
X142343Y049963D01*
X142327Y049967D01*
X142314Y049972D01*
X142307Y049976D01*
X142306Y049976D01*
X142088Y050194D01*
X142022Y050238D01*
X141944Y050254D01*
X141384D01*
X141226Y050412D01*
X141228Y05042D01*
X141286Y050457D01*
X141311Y05045D01*
X14139D01*
X141466Y05047D01*
X141534Y05051D01*
X14159Y050566D01*
X141608Y050596D01*
X1448D01*
X144878Y050612D01*
X144944Y050656D01*
X145309Y051021D01*
X14531Y051022D01*
X145318Y051025D01*
X14533Y05103D01*
X145347Y051034D01*
X145368Y051039D01*
X145392Y051042D01*
X145459Y051047D01*
X145498Y051047D01*
X145512Y05105D01*
X145559D01*
X145674Y051081D01*
X145776Y05114D01*
X14586Y051224D01*
X145919Y051326D01*
X14595Y051441D01*
Y051559D01*
X145919Y051674D01*
X14586Y051776D01*
X145776Y05186D01*
X145674Y051919D01*
X145559Y05195D01*
X145441D01*
X145326Y051919D01*
X145224Y05186D01*
X14514Y051776D01*
X145081Y051674D01*
X14505Y051559D01*
Y051512D01*
X145047Y051498D01*
X145047Y051459D01*
X145042Y051392D01*
X145039Y051368D01*
X145034Y051347D01*
X14503Y05133D01*
X145025Y051318D01*
X145022Y05131D01*
X145021Y051309D01*
X144716Y051004D01*
X14458D01*
X144574Y051054D01*
X144674Y051081D01*
X144776Y05114D01*
X14486Y051224D01*
X144919Y051326D01*
X14495Y051441D01*
Y051559D01*
X144919Y051674D01*
X14486Y051776D01*
X144776Y05186D01*
X144674Y051919D01*
X144559Y05195D01*
X144441D01*
X144326Y051919D01*
X144224Y05186D01*
X14414Y051776D01*
X144081Y051674D01*
X14405Y051559D01*
Y051441D01*
X144081Y051326D01*
X14414Y051224D01*
X144224Y05114D01*
X144326Y051081D01*
X144426Y051054D01*
X14442Y051004D01*
X14358D01*
X143574Y051054D01*
X143674Y051081D01*
X143776Y05114D01*
X14386Y051224D01*
X143919Y051326D01*
X14395Y051441D01*
Y051559D01*
X143919Y051674D01*
X14386Y051776D01*
X143776Y05186D01*
X143674Y051919D01*
X143559Y05195D01*
X143512D01*
X143498Y051953D01*
X143459Y051953D01*
X143392Y051958D01*
X143368Y051961D01*
X143347Y051966D01*
X14333Y05197D01*
X143318Y051975D01*
X14331Y051978D01*
X143309Y051979D01*
X142594Y052694D01*
X142528Y052738D01*
X14245Y052754D01*
D02*
G37*
G36*
X126059Y05045D02*
X125941D01*
X125826Y050419D01*
X125724Y05036D01*
X12564Y050276D01*
X125581Y050174D01*
X12555Y050059D01*
Y049941D01*
X125581Y049826D01*
X12564Y049724D01*
X125724Y04964D01*
X125826Y049581D01*
X125941Y04955D01*
X126059D01*
X126174Y049581D01*
X126276Y04964D01*
X12636Y049724D01*
X126419Y049826D01*
X12645Y049941D01*
Y050059D01*
X126419Y050174D01*
X12636Y050276D01*
X126276Y05036D01*
X126174Y050419D01*
X126059Y05045D01*
D02*
G37*
G36*
X12524Y050454D02*
X12476D01*
X124678Y050438D01*
X124609Y050391D01*
X124562Y050322D01*
X124546Y05024D01*
Y04976D01*
X124562Y049678D01*
X124609Y049609D01*
X124678Y049562D01*
X12476Y049546D01*
X12524D01*
X125322Y049562D01*
X125391Y049609D01*
X125438Y049678D01*
X125454Y04976D01*
Y05024D01*
X125438Y050322D01*
X125391Y050391D01*
X125322Y050438D01*
X12524Y050454D01*
D02*
G37*
G36*
X143559Y04995D02*
X143441D01*
X143326Y049919D01*
X143224Y04986D01*
X14314Y049776D01*
X143081Y049674D01*
X14305Y049559D01*
Y049441D01*
X143081Y049326D01*
X14314Y049224D01*
X143224Y04914D01*
X143326Y049081D01*
X143441Y04905D01*
X143559D01*
X143674Y049081D01*
X143776Y04914D01*
X14386Y049224D01*
X143919Y049326D01*
X14395Y049441D01*
Y049559D01*
X143919Y049674D01*
X14386Y049776D01*
X143776Y04986D01*
X143674Y049919D01*
X143559Y04995D01*
D02*
G37*
G36*
X12874Y049954D02*
X12826D01*
X128178Y049938D01*
X128109Y049891D01*
X128062Y049822D01*
X128046Y04974D01*
Y04926D01*
X128062Y049178D01*
X128109Y049109D01*
X128178Y049062D01*
X12826Y049046D01*
X12874D01*
X128822Y049062D01*
X128891Y049109D01*
X128938Y049178D01*
X128954Y04926D01*
Y04974D01*
X128938Y049822D01*
X128891Y049891D01*
X128822Y049938D01*
X12874Y049954D01*
D02*
G37*
G36*
X128559Y04895D02*
X128441D01*
X128326Y048919D01*
X128224Y04886D01*
X12814Y048776D01*
X128081Y048674D01*
X12805Y048559D01*
Y048441D01*
X128081Y048326D01*
X12814Y048224D01*
X128224Y04814D01*
X128326Y048081D01*
X128441Y04805D01*
X128559D01*
X128674Y048081D01*
X128776Y04814D01*
X12886Y048224D01*
X128919Y048326D01*
X12895Y048441D01*
Y048559D01*
X128919Y048674D01*
X12886Y048776D01*
X128776Y04886D01*
X128674Y048919D01*
X128559Y04895D01*
D02*
G37*
G36*
Y04795D02*
X128441D01*
X128326Y047919D01*
X128224Y04786D01*
X12814Y047776D01*
X128081Y047674D01*
X12805Y047559D01*
Y047441D01*
X128081Y047326D01*
X12814Y047224D01*
X128224Y04714D01*
X128326Y047081D01*
X128441Y04705D01*
X128559D01*
X128674Y047081D01*
X128776Y04714D01*
X12886Y047224D01*
X128919Y047326D01*
X12895Y047441D01*
Y047559D01*
X128919Y047674D01*
X12886Y047776D01*
X128776Y04786D01*
X128674Y047919D01*
X128559Y04795D01*
D02*
G37*
G36*
Y04695D02*
X128441D01*
X128326Y046919D01*
X128224Y04686D01*
X12814Y046776D01*
X128081Y046674D01*
X12805Y046559D01*
Y046441D01*
X128081Y046326D01*
X12814Y046224D01*
X128224Y04614D01*
X128326Y046081D01*
X128441Y04605D01*
X128559D01*
X128674Y046081D01*
X128776Y04614D01*
X12886Y046224D01*
X128919Y046326D01*
X12895Y046441D01*
Y046559D01*
X128919Y046674D01*
X12886Y046776D01*
X128776Y04686D01*
X128674Y046919D01*
X128559Y04695D01*
D02*
G37*
G36*
X133328Y045147D02*
Y044828D01*
X133647D01*
X133626Y044907D01*
X133573Y044998D01*
X133499Y045073D01*
X133408Y045126D01*
X133328Y045147D01*
D02*
G37*
G36*
X133178D02*
X133099Y045126D01*
X133008Y045073D01*
X132933Y044998D01*
X13288Y044907D01*
X132859Y044828D01*
X133178D01*
Y045147D01*
D02*
G37*
G36*
X133647Y044678D02*
X133328D01*
Y044359D01*
X133408Y04438D01*
X133499Y044433D01*
X133573Y044507D01*
X133626Y044598D01*
X133647Y044678D01*
D02*
G37*
G36*
X133178D02*
X132859D01*
X13288Y044598D01*
X132933Y044507D01*
X133008Y044433D01*
X133099Y04438D01*
X133178Y044359D01*
Y044678D01*
D02*
G37*
G36*
X132309Y0452D02*
X132191D01*
X132076Y045169D01*
X131974Y04511D01*
X13189Y045026D01*
X131831Y044924D01*
X1318Y044809D01*
Y044691D01*
X131831Y044576D01*
X13189Y044474D01*
X131974Y04439D01*
X132076Y044331D01*
X132191Y0443D01*
X132309D01*
X132424Y044331D01*
X132526Y04439D01*
X13261Y044474D01*
X132669Y044576D01*
X1327Y044691D01*
Y044809D01*
X132669Y044924D01*
X13261Y045026D01*
X132526Y04511D01*
X132424Y045169D01*
X132309Y0452D01*
D02*
G37*
G36*
X12774Y043204D02*
X12726D01*
X127178Y043188D01*
X127109Y043141D01*
X127062Y043072D01*
X127046Y04299D01*
Y04251D01*
X127062Y042428D01*
X127109Y042359D01*
X127178Y042312D01*
X12726Y042296D01*
X12774D01*
X127822Y042312D01*
X127891Y042359D01*
X127938Y042428D01*
X127954Y04251D01*
Y04299D01*
X127938Y043072D01*
X127891Y043141D01*
X127822Y043188D01*
X12774Y043204D01*
D02*
G37*
G36*
X123243Y043201D02*
X122763D01*
X122681Y043185D01*
X122611Y043138D01*
X122565Y043069D01*
X122549Y042987D01*
Y042507D01*
X122565Y042425D01*
X122611Y042355D01*
X122681Y042309D01*
X122763Y042293D01*
X123243D01*
X123325Y042309D01*
X123394Y042355D01*
X123441Y042425D01*
X123457Y042507D01*
Y042987D01*
X123441Y043069D01*
X123394Y043138D01*
X123325Y043185D01*
X123243Y043201D01*
D02*
G37*
G36*
X118743D02*
X118263D01*
X118181Y043185D01*
X118111Y043138D01*
X118065Y043069D01*
X118049Y042987D01*
Y042507D01*
X118065Y042425D01*
X118111Y042355D01*
X118181Y042309D01*
X118263Y042293D01*
X118743D01*
X118825Y042309D01*
X118894Y042355D01*
X118941Y042425D01*
X118957Y042507D01*
Y042987D01*
X118941Y043069D01*
X118894Y043138D01*
X118825Y043185D01*
X118743Y043201D01*
D02*
G37*
G36*
X114809Y04245D02*
X114691D01*
X114576Y042419D01*
X114474Y04236D01*
X11439Y042276D01*
X114331Y042174D01*
X1143Y042059D01*
Y041941D01*
X114331Y041826D01*
X11439Y041724D01*
X114474Y04164D01*
X114576Y041581D01*
X114691Y04155D01*
X114809D01*
X114924Y041581D01*
X115026Y04164D01*
X11511Y041724D01*
X115169Y041826D01*
X1152Y041941D01*
Y042059D01*
X115169Y042174D01*
X11511Y042276D01*
X115026Y04236D01*
X114924Y042419D01*
X114809Y04245D01*
D02*
G37*
G36*
X127556Y042203D02*
X127438D01*
X127323Y042172D01*
X127221Y042113D01*
X127137Y042029D01*
X127078Y041927D01*
X127047Y041812D01*
Y041694D01*
X127078Y041579D01*
X127137Y041477D01*
X127221Y041393D01*
X127323Y041334D01*
X127438Y041303D01*
X127556D01*
X127671Y041334D01*
X127773Y041393D01*
X127857Y041477D01*
X127917Y041579D01*
X127947Y041694D01*
Y041812D01*
X127917Y041927D01*
X127857Y042029D01*
X127773Y042113D01*
X127671Y042172D01*
X127556Y042203D01*
D02*
G37*
G36*
X123059Y0422D02*
X122941D01*
X122826Y042169D01*
X122724Y04211D01*
X12264Y042026D01*
X122581Y041924D01*
X12255Y041809D01*
Y041691D01*
X122581Y041576D01*
X12264Y041474D01*
X122724Y04139D01*
X122826Y041331D01*
X122941Y0413D01*
X123059D01*
X123174Y041331D01*
X123276Y04139D01*
X12336Y041474D01*
X123419Y041576D01*
X12345Y041691D01*
Y041809D01*
X123419Y041924D01*
X12336Y042026D01*
X123276Y04211D01*
X123174Y042169D01*
X123059Y0422D01*
D02*
G37*
G36*
X118559D02*
X118441D01*
X118326Y042169D01*
X118224Y04211D01*
X11814Y042026D01*
X118081Y041924D01*
X11805Y041809D01*
Y041691D01*
X118081Y041576D01*
X11814Y041474D01*
X118224Y04139D01*
X118326Y041331D01*
X118441Y0413D01*
X118559D01*
X118674Y041331D01*
X118776Y04139D01*
X11886Y041474D01*
X118919Y041576D01*
X11895Y041691D01*
Y041809D01*
X118919Y041924D01*
X11886Y042026D01*
X118776Y04211D01*
X118674Y042169D01*
X118559Y0422D01*
D02*
G37*
G36*
X132243Y041201D02*
X131763D01*
X131681Y041185D01*
X131611Y041138D01*
X131565Y041069D01*
X131549Y040987D01*
Y040507D01*
X131565Y040425D01*
X131611Y040355D01*
X131681Y040309D01*
X131763Y040293D01*
X132243D01*
X132325Y040309D01*
X132394Y040355D01*
X132441Y040425D01*
X132457Y040507D01*
Y040987D01*
X132441Y041069D01*
X132394Y041138D01*
X132325Y041185D01*
X132243Y041201D01*
D02*
G37*
G36*
X147575Y039894D02*
Y039575D01*
X147894D01*
X147873Y039654D01*
X14782Y039746D01*
X147746Y03982D01*
X147654Y039873D01*
X147575Y039894D01*
D02*
G37*
G36*
X147425D02*
X147346Y039873D01*
X147254Y03982D01*
X14718Y039746D01*
X147127Y039654D01*
X147106Y039575D01*
X147425D01*
Y039894D01*
D02*
G37*
G36*
X132059Y0402D02*
X131941D01*
X131826Y040169D01*
X131724Y04011D01*
X13164Y040026D01*
X131581Y039924D01*
X13155Y039809D01*
Y039691D01*
X131581Y039576D01*
X13164Y039474D01*
X131724Y03939D01*
X131826Y039331D01*
X131941Y0393D01*
X132059D01*
X132174Y039331D01*
X132276Y03939D01*
X13236Y039474D01*
X132419Y039576D01*
X13245Y039691D01*
Y039809D01*
X132419Y039924D01*
X13236Y040026D01*
X132276Y04011D01*
X132174Y040169D01*
X132059Y0402D01*
D02*
G37*
G36*
X147894Y039425D02*
X147575D01*
Y039106D01*
X147654Y039127D01*
X147746Y03918D01*
X14782Y039254D01*
X147873Y039346D01*
X147894Y039425D01*
D02*
G37*
G36*
X147425D02*
X147106D01*
X147127Y039346D01*
X14718Y039254D01*
X147254Y03918D01*
X147346Y039127D01*
X147425Y039106D01*
Y039425D01*
D02*
G37*
G36*
X148562Y039953D02*
X148444D01*
X148329Y039922D01*
X148227Y039863D01*
X148143Y039779D01*
X148084Y039677D01*
X148053Y039562D01*
Y039444D01*
X148084Y039329D01*
X148143Y039227D01*
X148227Y039143D01*
X148329Y039083D01*
X148444Y039053D01*
X148562D01*
X148677Y039083D01*
X148779Y039143D01*
X148863Y039227D01*
X148922Y039329D01*
X148953Y039444D01*
Y039562D01*
X148922Y039677D01*
X148863Y039779D01*
X148779Y039863D01*
X148677Y039922D01*
X148562Y039953D01*
D02*
G37*
G36*
X14974Y039954D02*
X14926D01*
X149178Y039938D01*
X149109Y039891D01*
X149062Y039822D01*
X149046Y03974D01*
Y03926D01*
X149062Y039178D01*
X149109Y039109D01*
X149178Y039062D01*
X14926Y039046D01*
X14974D01*
X149822Y039062D01*
X149891Y039109D01*
X149938Y039178D01*
X149954Y03926D01*
Y03974D01*
X149938Y039822D01*
X149891Y039891D01*
X149822Y039938D01*
X14974Y039954D01*
D02*
G37*
G36*
X13574D02*
X13526D01*
X135178Y039938D01*
X135109Y039891D01*
X135062Y039822D01*
X135046Y03974D01*
Y03926D01*
X135062Y039178D01*
X135109Y039109D01*
X135178Y039062D01*
X13526Y039046D01*
X13574D01*
X135822Y039062D01*
X135891Y039109D01*
X135938Y039178D01*
X135954Y03926D01*
Y03974D01*
X135938Y039822D01*
X135891Y039891D01*
X135822Y039938D01*
X13574Y039954D01*
D02*
G37*
G36*
X140389Y0435D02*
X14031D01*
X140234Y04348D01*
X140166Y04344D01*
X14011Y043384D01*
X14007Y043316D01*
X14005Y043239D01*
Y043161D01*
X14007Y043084D01*
X14011Y043016D01*
X140127Y042998D01*
X140134Y042987D01*
X140141Y04298D01*
X140143Y042977D01*
X140145Y042975D01*
X140146Y042974D01*
X140146Y042973D01*
Y041184D01*
X138924Y039963D01*
X138915Y039954D01*
X13851D01*
X138428Y039938D01*
X138359Y039891D01*
X138312Y039822D01*
X138296Y03974D01*
Y03926D01*
X138312Y039178D01*
X138359Y039109D01*
X138428Y039062D01*
X13851Y039046D01*
X13899D01*
X139072Y039062D01*
X139141Y039109D01*
X139188Y039178D01*
X139204Y03926D01*
Y039665D01*
X13921Y039671D01*
X140353Y040815D01*
X140403Y04081D01*
X140406Y040806D01*
X142038Y039174D01*
X142046Y039165D01*
Y03876D01*
X142062Y038678D01*
X142109Y038609D01*
X142178Y038562D01*
X14226Y038546D01*
X14274D01*
X142822Y038562D01*
X142891Y038609D01*
X142938Y038678D01*
X142954Y03876D01*
Y03924D01*
X142938Y039322D01*
X142891Y039391D01*
X142822Y039438D01*
X14274Y039454D01*
X142335D01*
X142329Y039459D01*
X140754Y041034D01*
Y042461D01*
X14078Y042487D01*
X140781Y042488D01*
X140785Y042491D01*
X14079Y042493D01*
X140795Y042496D01*
X1408Y042498D01*
X140818Y042504D01*
X140828Y042507D01*
X14084Y042514D01*
X140866Y04252D01*
X140934Y04256D01*
X14099Y042616D01*
X14103Y042684D01*
X14105Y042761D01*
Y042839D01*
X14103Y042916D01*
X14099Y042984D01*
X140934Y04304D01*
X140866Y04308D01*
X140789Y0431D01*
X14071D01*
X140684Y043093D01*
X140643Y043134D01*
X14065Y043161D01*
Y043239D01*
X14063Y043316D01*
X14059Y043384D01*
X140534Y04344D01*
X140466Y04348D01*
X140389Y0435D01*
D02*
G37*
G36*
X138806Y038953D02*
X138688D01*
X138573Y038922D01*
X138471Y038863D01*
X138387Y038779D01*
X138328Y038677D01*
X138297Y038562D01*
Y038444D01*
X138328Y038329D01*
X138387Y038227D01*
X138471Y038143D01*
X138573Y038084D01*
X138688Y038053D01*
X138806D01*
X138921Y038084D01*
X139023Y038143D01*
X139107Y038227D01*
X139167Y038329D01*
X139197Y038444D01*
Y038562D01*
X139167Y038677D01*
X139107Y038779D01*
X139023Y038863D01*
X138921Y038922D01*
X138806Y038953D01*
D02*
G37*
G36*
X135556D02*
X135438D01*
X135323Y038922D01*
X135221Y038863D01*
X135137Y038779D01*
X135078Y038677D01*
X135047Y038562D01*
Y038444D01*
X135078Y038329D01*
X135137Y038227D01*
X135221Y038143D01*
X135323Y038084D01*
X135438Y038053D01*
X135556D01*
X135671Y038084D01*
X135773Y038143D01*
X135857Y038227D01*
X135917Y038329D01*
X135947Y038444D01*
Y038562D01*
X135917Y038677D01*
X135857Y038779D01*
X135773Y038863D01*
X135671Y038922D01*
X135556Y038953D01*
D02*
G37*
G36*
X142556Y038453D02*
X142438D01*
X142323Y038422D01*
X142221Y038363D01*
X142137Y038279D01*
X142078Y038177D01*
X142047Y038062D01*
Y037944D01*
X142078Y037829D01*
X142137Y037727D01*
X142221Y037643D01*
X142323Y037584D01*
X142438Y037553D01*
X142556D01*
X142671Y037584D01*
X142773Y037643D01*
X142857Y037727D01*
X142917Y037829D01*
X142947Y037944D01*
Y038062D01*
X142917Y038177D01*
X142857Y038279D01*
X142773Y038363D01*
X142671Y038422D01*
X142556Y038453D01*
D02*
G37*
G36*
X138809Y03795D02*
X138691D01*
X138576Y037919D01*
X138474Y03786D01*
X13839Y037776D01*
X138331Y037674D01*
X1383Y037559D01*
Y037441D01*
X138331Y037326D01*
X13839Y037224D01*
X138474Y03714D01*
X138576Y037081D01*
X138691Y03705D01*
X138809D01*
X138924Y037081D01*
X139026Y03714D01*
X13911Y037224D01*
X139169Y037326D01*
X1392Y037441D01*
Y037559D01*
X139169Y037674D01*
X13911Y037776D01*
X139026Y03786D01*
X138924Y037919D01*
X138809Y03795D01*
D02*
G37*
%LPD*%
G36*
X148498Y058D02*
X148483Y058D01*
X148469Y057998D01*
X148455Y057996D01*
X148441Y057993D01*
X148428Y057988D01*
X148416Y057983D01*
X148404Y057976D01*
X148393Y057969D01*
X148382Y05796D01*
X148372Y057951D01*
X148301Y058022D01*
X14831Y058032D01*
X148319Y058043D01*
X148326Y058054D01*
X148333Y058066D01*
X148338Y058078D01*
X148343Y058091D01*
X148346Y058105D01*
X148348Y058119D01*
X14835Y058133D01*
X14835Y058148D01*
X148498Y058D01*
D02*
G37*
G36*
X146701Y055218D02*
X146702Y055204D01*
X146705Y055191D01*
X146709Y055178D01*
X146714Y055165D01*
X14672Y055153D01*
X146727Y055141D01*
X146735Y055129D01*
X146745Y055118D01*
X146755Y055107D01*
X146545D01*
X146555Y055118D01*
X146565Y055129D01*
X146573Y055141D01*
X14658Y055153D01*
X146586Y055165D01*
X146591Y055178D01*
X146595Y055191D01*
X146598Y055204D01*
X146599Y055218D01*
X1466Y055231D01*
X1467D01*
X146701Y055218D01*
D02*
G37*
G36*
X137645Y052032D02*
X137635Y052021D01*
X137627Y052009D01*
X13762Y051997D01*
X137614Y051985D01*
X137609Y051972D01*
X137605Y051959D01*
X137602Y051946D01*
X137601Y051932D01*
X1376Y051919D01*
X1375D01*
X137499Y051932D01*
X137498Y051946D01*
X137495Y051959D01*
X137491Y051972D01*
X137486Y051985D01*
X13748Y051997D01*
X137473Y052009D01*
X137465Y052021D01*
X137455Y052032D01*
X137445Y052043D01*
X137655D01*
X137645Y052032D01*
D02*
G37*
G36*
X13815Y051883D02*
X138152Y051869D01*
X138154Y051855D01*
X138157Y051841D01*
X138162Y051828D01*
X138167Y051816D01*
X138174Y051804D01*
X138181Y051793D01*
X13819Y051782D01*
X138199Y051772D01*
X138128Y051701D01*
X138118Y05171D01*
X138107Y051719D01*
X138096Y051726D01*
X138084Y051733D01*
X138072Y051738D01*
X138059Y051743D01*
X138045Y051746D01*
X138031Y051748D01*
X138017Y05175D01*
X138001Y05175D01*
X13815Y051898D01*
X13815Y051883D01*
D02*
G37*
G36*
X143215Y051858D02*
X143235Y051845D01*
X143257Y051834D01*
X143282Y051825D01*
X14331Y051817D01*
X143342Y05181D01*
X143376Y051806D01*
X143454Y0518D01*
X143497Y0518D01*
X1432Y051503D01*
X1432Y051546D01*
X143194Y051624D01*
X14319Y051658D01*
X143183Y05169D01*
X143175Y051718D01*
X143166Y051743D01*
X143155Y051765D01*
X143142Y051785D01*
X143128Y051801D01*
X143199Y051872D01*
X143215Y051858D01*
D02*
G37*
G36*
X145497Y0512D02*
X145454Y0512D01*
X145376Y051194D01*
X145342Y05119D01*
X14531Y051183D01*
X145282Y051175D01*
X145257Y051166D01*
X145235Y051155D01*
X145215Y051142D01*
X145199Y051128D01*
X145128Y051199D01*
X145142Y051215D01*
X145155Y051235D01*
X145166Y051257D01*
X145175Y051282D01*
X145183Y05131D01*
X14519Y051342D01*
X145194Y051376D01*
X1452Y051454D01*
X1452Y051497D01*
X145497Y0512D01*
D02*
G37*
G36*
X143021Y051691D02*
X143022Y05169D01*
X143025Y051682D01*
X14303Y05167D01*
X143034Y051653D01*
X143039Y051632D01*
X143042Y051608D01*
X143047Y051541D01*
X143047Y051502D01*
X14305Y051488D01*
Y051441D01*
X143081Y051326D01*
X14314Y051224D01*
X143224Y05114D01*
X143326Y051081D01*
X143426Y051054D01*
X14342Y051004D01*
X141785D01*
X14178Y051054D01*
X141822Y051062D01*
X141891Y051109D01*
X141938Y051178D01*
X141954Y05126D01*
Y05174D01*
X141938Y051822D01*
X141891Y051891D01*
X141822Y051938D01*
X14174Y051954D01*
X14126D01*
X141178Y051938D01*
X141109Y051891D01*
X141062Y051822D01*
X141046Y05174D01*
Y05126D01*
X141062Y051178D01*
X141109Y051109D01*
X141178Y051062D01*
X141187Y05106D01*
X141196Y051008D01*
X141166Y05099D01*
X14111Y050934D01*
X14107Y050866D01*
X14105Y050789D01*
Y050711D01*
X141057Y050686D01*
X14102Y050628D01*
X141012Y050626D01*
X140194Y051444D01*
X140128Y051488D01*
X14005Y051504D01*
X138684D01*
X138305Y051884D01*
X138304Y051884D01*
X138304Y051886D01*
X138303Y051889D01*
X138303Y051892D01*
X138303Y051902D01*
X1383Y051915D01*
Y05194D01*
X13828Y052016D01*
X13824Y052084D01*
X138184Y05214D01*
X138116Y05218D01*
X13804Y0522D01*
X137961D01*
X1379Y052184D01*
X137876Y052187D01*
X137843Y052214D01*
X13783Y052266D01*
X137812Y052296D01*
X137841Y052346D01*
X142366D01*
X143021Y051691D01*
D02*
G37*
G36*
X141221Y049851D02*
X141258Y049819D01*
X141274Y049808D01*
X141289Y049799D01*
X141302Y049794D01*
X141314Y049791D01*
X141325Y049791D01*
X141334Y049793D01*
X141341Y049799D01*
X141201Y049659D01*
X141207Y049666D01*
X141209Y049675D01*
X141209Y049686D01*
X141206Y049698D01*
X141201Y049711D01*
X141192Y049726D01*
X141181Y049742D01*
X141166Y04976D01*
X141129Y0498D01*
X1412Y049871D01*
X141221Y049851D01*
D02*
G37*
G36*
X142212Y049855D02*
X142231Y049842D01*
X142254Y049831D01*
X142279Y049822D01*
X142307Y049814D01*
X142339Y049808D01*
X142373Y049803D01*
X142451Y049797D01*
X142494Y049797D01*
X142197Y0495D01*
X142197Y049543D01*
X142191Y049621D01*
X142186Y049655D01*
X14218Y049687D01*
X142172Y049715D01*
X142163Y04974D01*
X142152Y049763D01*
X142139Y049782D01*
X142125Y049798D01*
X142196Y049869D01*
X142212Y049855D01*
D02*
G37*
G36*
X133351Y048118D02*
X133352Y048104D01*
X133355Y048091D01*
X133359Y048078D01*
X133364Y048065D01*
X13337Y048053D01*
X133377Y048041D01*
X133385Y048029D01*
X133395Y048018D01*
X133405Y048007D01*
X133195D01*
X133205Y048018D01*
X133215Y048029D01*
X133223Y048041D01*
X13323Y048053D01*
X133236Y048065D01*
X133241Y048078D01*
X133245Y048091D01*
X133248Y048104D01*
X133249Y048118D01*
X13325Y048131D01*
X13335D01*
X133351Y048118D01*
D02*
G37*
%LPC*%
G36*
X142572Y051891D02*
Y051572D01*
X142891D01*
X14287Y051652D01*
X142817Y051743D01*
X142742Y051817D01*
X142651Y05187D01*
X142572Y051891D01*
D02*
G37*
G36*
X142422D02*
X142342Y05187D01*
X142251Y051817D01*
X142177Y051743D01*
X142124Y051652D01*
X142103Y051572D01*
X142422D01*
Y051891D01*
D02*
G37*
G36*
X142891Y051422D02*
X142572D01*
Y051103D01*
X142651Y051124D01*
X142742Y051177D01*
X142817Y051252D01*
X14287Y051343D01*
X142891Y051422D01*
D02*
G37*
G36*
X142422D02*
X142103D01*
X142124Y051343D01*
X142177Y051252D01*
X142251Y051177D01*
X142342Y051124D01*
X142422Y051103D01*
Y051422D01*
D02*
G37*
%LPD*%
G36*
X140445Y043082D02*
X140435Y043071D01*
X140427Y043059D01*
X14042Y043047D01*
X140414Y043035D01*
X140409Y043022D01*
X140405Y043009D01*
X140402Y042996D01*
X140401Y042982D01*
X1404Y042969D01*
X1403D01*
X140299Y042982D01*
X140298Y042996D01*
X140295Y043009D01*
X140291Y043022D01*
X140286Y043035D01*
X14028Y043047D01*
X140273Y043059D01*
X140265Y043071D01*
X140255Y043082D01*
X140245Y043093D01*
X140455D01*
X140445Y043082D01*
D02*
G37*
G36*
X140787Y042655D02*
X140772Y04265D01*
X140743Y04264D01*
X14073Y042635D01*
X140717Y042628D01*
X140705Y042621D01*
X140694Y042614D01*
X140683Y042606D01*
X140673Y042597D01*
X140663Y042588D01*
X140572Y042639D01*
X140582Y042649D01*
X14059Y04266D01*
X140597Y042672D01*
X140603Y042683D01*
X140607Y042695D01*
X140609Y042708D01*
X14061Y04272D01*
X14061Y042733D01*
X140608Y042747D01*
X140605Y04276D01*
X140787Y042655D01*
D02*
G37*
G36*
X139121Y0398D02*
X139101Y039779D01*
X13907Y039743D01*
X139058Y039726D01*
X13905Y039712D01*
X139044Y039698D01*
X139041Y039686D01*
Y039676D01*
X139044Y039666D01*
X13905Y039659D01*
X138909Y0398D01*
X138916Y039794D01*
X138926Y039791D01*
X138936D01*
X138948Y039794D01*
X138962Y0398D01*
X138976Y039808D01*
X138993Y03982D01*
X13901Y039834D01*
X13905Y039871D01*
X139121Y0398D01*
D02*
G37*
G36*
X142221Y039351D02*
X142258Y039319D01*
X142274Y039308D01*
X142289Y039299D01*
X142302Y039294D01*
X142314Y039291D01*
X142325Y039291D01*
X142334Y039293D01*
X142341Y039299D01*
X142201Y039159D01*
X142207Y039166D01*
X142209Y039175D01*
X142209Y039186D01*
X142206Y039198D01*
X142201Y039211D01*
X142192Y039226D01*
X142181Y039242D01*
X142166Y03926D01*
X142129Y0393D01*
X1422Y039371D01*
X142221Y039351D01*
D02*
G37*
%LPC*%
G36*
X12267Y066228D02*
X12183D01*
X12175Y066217D01*
X121713Y066202D01*
X1217Y066199D01*
X121688Y066191D01*
X121678Y066187D01*
X121671Y066185D01*
X121651Y066172D01*
X12163Y066164D01*
X121591Y066152D01*
X121536Y066141D01*
X121471Y066131D01*
X121054Y066105D01*
X120924Y066104D01*
X120919Y066103D01*
X120653D01*
X120593Y066142D01*
X120461Y066197D01*
X120321Y066225D01*
X120179D01*
X120039Y066197D01*
X119907Y066142D01*
X119788Y066063D01*
X119687Y065962D01*
X119608Y065843D01*
X119553Y065711D01*
X119525Y065571D01*
Y065429D01*
X119553Y065289D01*
X119608Y065157D01*
X119687Y065038D01*
X119788Y064937D01*
X119907Y064858D01*
X120039Y064803D01*
X120179Y064775D01*
X120321D01*
X120461Y064803D01*
X120593Y064858D01*
X120653Y064897D01*
X120919D01*
X120924Y064896D01*
X121057Y064895D01*
X121286Y064886D01*
X121468Y06487D01*
X121536Y064859D01*
X121591Y064848D01*
X121596Y064846D01*
X121598Y064841D01*
X121609Y064786D01*
X121619Y064721D01*
X121645Y064304D01*
X121646Y064174D01*
X121647Y064169D01*
Y06225D01*
X121659Y062132D01*
X121693Y062019D01*
X121749Y061915D01*
X121824Y061824D01*
X121915Y061749D01*
X122019Y061693D01*
X122132Y061659D01*
X12225Y061647D01*
X122368Y061659D01*
X122481Y061693D01*
X122585Y061749D01*
X122676Y061824D01*
X122751Y061915D01*
X122807Y062019D01*
X122841Y062132D01*
X122853Y06225D01*
Y064169D01*
X122854Y064174D01*
X122855Y064307D01*
X122864Y064536D01*
X12288Y064718D01*
X122891Y064786D01*
X122902Y064841D01*
X122914Y06488D01*
X122922Y064901D01*
X122935Y064921D01*
X122937Y064928D01*
X122941Y064938D01*
X122949Y06495D01*
X122952Y064963D01*
X122967Y065D01*
X122978Y06508D01*
Y06592D01*
X122967Y066D01*
X122936Y066074D01*
X122888Y066138D01*
X122824Y066186D01*
X12275Y066217D01*
X12267Y066228D01*
D02*
G37*
G36*
X118325Y066122D02*
Y065575D01*
X118872D01*
X118851Y065682D01*
X118804Y065796D01*
X118735Y065898D01*
X118648Y065985D01*
X118546Y066054D01*
X118432Y066101D01*
X118325Y066122D01*
D02*
G37*
G36*
X116325D02*
Y065575D01*
X116872D01*
X116851Y065682D01*
X116804Y065796D01*
X116735Y065898D01*
X116648Y065985D01*
X116546Y066054D01*
X116432Y066101D01*
X116325Y066122D01*
D02*
G37*
G36*
X118175D02*
X118068Y066101D01*
X117954Y066054D01*
X117852Y065985D01*
X117765Y065898D01*
X117696Y065796D01*
X117649Y065682D01*
X117628Y065575D01*
X118175D01*
Y066122D01*
D02*
G37*
G36*
X116175D02*
X116068Y066101D01*
X115954Y066054D01*
X115852Y065985D01*
X115765Y065898D01*
X115696Y065796D01*
X115649Y065682D01*
X115628Y065575D01*
X116175D01*
Y066122D01*
D02*
G37*
G36*
X118872Y065425D02*
X118325D01*
Y064878D01*
X118432Y064899D01*
X118546Y064946D01*
X118648Y065015D01*
X118735Y065102D01*
X118804Y065204D01*
X118851Y065318D01*
X118872Y065425D01*
D02*
G37*
G36*
X116872D02*
X116325D01*
Y064878D01*
X116432Y064899D01*
X116546Y064946D01*
X116648Y065015D01*
X116735Y065102D01*
X116804Y065204D01*
X116851Y065318D01*
X116872Y065425D01*
D02*
G37*
G36*
X118175D02*
X117628D01*
X117649Y065318D01*
X117696Y065204D01*
X117765Y065102D01*
X117852Y065015D01*
X117954Y064946D01*
X118068Y064899D01*
X118175Y064878D01*
Y065425D01*
D02*
G37*
G36*
X116175D02*
X115628D01*
X115649Y065318D01*
X115696Y065204D01*
X115765Y065102D01*
X115852Y065015D01*
X115954Y064946D01*
X116068Y064899D01*
X116175Y064878D01*
Y065425D01*
D02*
G37*
G36*
X120326Y063825D02*
X120174D01*
X120028Y063786D01*
X119897Y06371D01*
X11979Y063603D01*
X119714Y063472D01*
X119675Y063326D01*
Y063174D01*
X119714Y063028D01*
X11979Y062897D01*
X119897Y06279D01*
X120028Y062714D01*
X120174Y062675D01*
X120326D01*
X120472Y062714D01*
X120603Y06279D01*
X12071Y062897D01*
X120786Y063028D01*
X120825Y063174D01*
Y063326D01*
X120786Y063472D01*
X12071Y063603D01*
X120603Y06371D01*
X120472Y063786D01*
X120326Y063825D01*
D02*
G37*
G36*
X11549Y050403D02*
X115325D01*
Y050075D01*
X115653D01*
Y05024D01*
X115641Y050302D01*
X115605Y050355D01*
X115552Y050391D01*
X11549Y050403D01*
D02*
G37*
G36*
X115175D02*
X11501D01*
X114948Y050391D01*
X114895Y050355D01*
X114859Y050302D01*
X114847Y05024D01*
Y050075D01*
X115175D01*
Y050403D01*
D02*
G37*
G36*
X115653Y049925D02*
X115325D01*
Y049597D01*
X11549D01*
X115552Y049609D01*
X115605Y049645D01*
X115641Y049698D01*
X115653Y04976D01*
Y049925D01*
D02*
G37*
G36*
X115175D02*
X114847D01*
Y04976D01*
X114859Y049698D01*
X114895Y049645D01*
X114948Y049609D01*
X11501Y049597D01*
X115175D01*
Y049925D01*
D02*
G37*
G36*
X115075Y046773D02*
Y046325D01*
X115523D01*
X115489Y046453D01*
X11542Y046572D01*
X115322Y04667D01*
X115203Y046739D01*
X115075Y046773D01*
D02*
G37*
G36*
X114925D02*
X114797Y046739D01*
X114678Y04667D01*
X11458Y046572D01*
X114511Y046453D01*
X114477Y046325D01*
X114925D01*
Y046773D01*
D02*
G37*
G36*
X115523Y046175D02*
X115075D01*
Y045727D01*
X115203Y045761D01*
X115322Y04583D01*
X11542Y045928D01*
X115489Y046047D01*
X115523Y046175D01*
D02*
G37*
G36*
X114925D02*
X114477D01*
X114511Y046047D01*
X11458Y045928D01*
X114678Y04583D01*
X114797Y045761D01*
X114925Y045727D01*
Y046175D01*
D02*
G37*
G36*
X12055Y038253D02*
X11675D01*
X116672Y038242D01*
X116599Y038212D01*
X116536Y038164D01*
X115936Y037564D01*
X115888Y037501D01*
X115858Y037428D01*
X115847Y03735D01*
Y03695D01*
Y034575D01*
X115786Y034514D01*
X115738Y034451D01*
X115708Y034378D01*
X115697Y0343D01*
Y029986D01*
X115696Y02998D01*
X115696Y029978D01*
X11558D01*
X1155Y029967D01*
X115426Y029936D01*
X115362Y029888D01*
X115314Y029824D01*
X115283Y02975D01*
X115272Y02967D01*
Y02883D01*
X115283Y02875D01*
X115314Y028676D01*
X115362Y028612D01*
X115426Y028564D01*
X1155Y028533D01*
X11558Y028522D01*
X11642D01*
X1165Y028533D01*
X116574Y028564D01*
X116638Y028612D01*
X116686Y028676D01*
X116717Y02875D01*
X116728Y02883D01*
Y02967D01*
X116717Y02975D01*
X116686Y029824D01*
X116638Y029888D01*
X116574Y029936D01*
X1165Y029967D01*
X11642Y029978D01*
X116304D01*
X116304Y02998D01*
X116303Y029986D01*
Y034175D01*
X116364Y034236D01*
X116412Y034299D01*
X116442Y034372D01*
X116453Y03445D01*
Y035918D01*
X116503Y035925D01*
X116534Y035807D01*
X1166Y035693D01*
X116693Y0356D01*
X116807Y035534D01*
X116845Y035524D01*
Y035472D01*
X11681Y035463D01*
X116696Y035397D01*
X116603Y035304D01*
X116537Y03519D01*
X116503Y035063D01*
Y034931D01*
X116537Y034804D01*
X116603Y03469D01*
X116696Y034597D01*
X11681Y034531D01*
X116937Y034497D01*
X117069D01*
X117196Y034531D01*
X11731Y034597D01*
X117403Y03469D01*
X117469Y034804D01*
X117503Y034931D01*
Y035063D01*
X117469Y03519D01*
X117403Y035304D01*
X11731Y035397D01*
X117196Y035463D01*
X117158Y035473D01*
Y035525D01*
X117193Y035534D01*
X117307Y0356D01*
X1174Y035693D01*
X117466Y035807D01*
X1175Y035934D01*
Y036066D01*
X117466Y036193D01*
X1174Y036307D01*
X117307Y0364D01*
X11723Y036445D01*
X117243Y036495D01*
X117311Y036504D01*
X117374Y03653D01*
X117428Y036571D01*
X11747Y036626D01*
X117496Y036689D01*
X117497Y036693D01*
X117508Y036693D01*
X117514Y036694D01*
X117888D01*
X117894Y036693D01*
X117909Y036693D01*
X117924Y036693D01*
X117962Y036671D01*
X118051Y036647D01*
X118143D01*
X118232Y036671D01*
X118312Y036717D01*
X118377Y036782D01*
X118423Y036862D01*
X118447Y036951D01*
Y037043D01*
X118423Y037132D01*
X118377Y037212D01*
X118312Y037277D01*
X118232Y037323D01*
X118143Y037347D01*
X118051D01*
X117962Y037323D01*
X117927Y037303D01*
X117884Y037301D01*
X11788Y037299D01*
X117514D01*
X117508Y037301D01*
X117497Y037301D01*
X117496Y037305D01*
X11747Y037368D01*
X117428Y037422D01*
X117374Y037464D01*
X117311Y03749D01*
X117243Y037499D01*
X116798D01*
X116777Y037549D01*
X116875Y037647D01*
X120425D01*
X120907Y037166D01*
X120909Y037161D01*
X120978Y037087D01*
X120998Y037063D01*
X120998Y037062D01*
Y037019D01*
X120997Y037017D01*
X120998Y037015D01*
Y03676D01*
X121007Y036692D01*
X121033Y036629D01*
X121075Y036575D01*
X121129Y036533D01*
X121192Y036507D01*
X121255Y036498D01*
X121258Y036493D01*
X121253Y03644D01*
X12119Y036403D01*
X121097Y03631D01*
X121031Y036196D01*
X120997Y036069D01*
Y035937D01*
X121031Y03581D01*
X121097Y035696D01*
X12119Y035603D01*
X121304Y035537D01*
X121342Y035527D01*
Y035475D01*
X121307Y035466D01*
X121193Y0354D01*
X1211Y035307D01*
X121034Y035193D01*
X121Y035066D01*
Y034934D01*
X121034Y034807D01*
X1211Y034693D01*
X121193Y0346D01*
X121307Y034534D01*
X121434Y0345D01*
X121566D01*
X121693Y034534D01*
X121807Y0346D01*
X1219Y034693D01*
X121966Y034807D01*
X122Y034934D01*
Y035066D01*
X121966Y035193D01*
X1219Y035307D01*
X121807Y0354D01*
X121693Y035466D01*
X121655Y035476D01*
Y035528D01*
X12169Y035537D01*
X121804Y035603D01*
X121897Y035696D01*
X121963Y03581D01*
X121997Y035937D01*
Y036069D01*
X121963Y036196D01*
X121897Y03631D01*
X121804Y036403D01*
X121727Y036448D01*
X12174Y036498D01*
X121808Y036507D01*
X121871Y036533D01*
X121925Y036575D01*
X121967Y036629D01*
X121993Y036692D01*
X121994Y036696D01*
X122005Y036696D01*
X122011Y036697D01*
X122441D01*
X122448Y036696D01*
X122463Y036696D01*
X122477Y036696D01*
X122515Y036674D01*
X122604Y03665D01*
X122696D01*
X122785Y036674D01*
X122865Y03672D01*
X12293Y036785D01*
X122976Y036865D01*
X123Y036954D01*
Y037046D01*
X122976Y037135D01*
X12293Y037215D01*
X122865Y03728D01*
X122785Y037326D01*
X122696Y03735D01*
X122604D01*
X122515Y037326D01*
X12248Y037306D01*
X122437Y037304D01*
X122433Y037303D01*
X122011D01*
X122005Y037304D01*
X121994Y037304D01*
X121993Y037308D01*
X121967Y037371D01*
X121925Y037425D01*
X121871Y037467D01*
X121808Y037493D01*
X12174Y037502D01*
X121485D01*
X121483Y037503D01*
X121481Y037502D01*
X121438D01*
X121378Y037553D01*
X121342Y037588D01*
X121337Y037591D01*
X120764Y038164D01*
X120701Y038212D01*
X120628Y038242D01*
X12055Y038253D01*
D02*
G37*
G36*
X11999Y037502D02*
X11951D01*
X119442Y037493D01*
X119379Y037467D01*
X119325Y037425D01*
X119283Y037371D01*
X119257Y037308D01*
X119248Y03724D01*
Y03676D01*
X119257Y036692D01*
X119283Y036629D01*
X119325Y036575D01*
X119379Y036533D01*
X119442Y036507D01*
X119505Y036498D01*
X119508Y036493D01*
X119503Y03644D01*
X11944Y036403D01*
X119347Y03631D01*
X119281Y036196D01*
X119247Y036069D01*
Y035937D01*
X119281Y03581D01*
X119347Y035696D01*
X11944Y035603D01*
X119554Y035537D01*
X119681Y035503D01*
X119813D01*
X11994Y035537D01*
X120054Y035603D01*
X120147Y035696D01*
X120213Y03581D01*
X120247Y035937D01*
Y036069D01*
X120213Y036196D01*
X120147Y03631D01*
X120054Y036403D01*
X119977Y036448D01*
X11999Y036498D01*
X120058Y036507D01*
X120121Y036533D01*
X120175Y036575D01*
X120217Y036629D01*
X120243Y036692D01*
X120252Y03676D01*
Y03724D01*
X120243Y037308D01*
X120217Y037371D01*
X120175Y037425D01*
X120121Y037467D01*
X120058Y037493D01*
X11999Y037502D01*
D02*
G37*
G36*
X115493Y037499D02*
X115013D01*
X114945Y03749D01*
X114882Y037464D01*
X114827Y037422D01*
X114786Y037368D01*
X11476Y037305D01*
X114751Y037237D01*
Y036757D01*
X11476Y036689D01*
X114786Y036626D01*
X114827Y036571D01*
X114882Y03653D01*
X114945Y036504D01*
X115008Y036495D01*
X115011Y03649D01*
X115006Y036437D01*
X114943Y0364D01*
X11485Y036307D01*
X114784Y036193D01*
X11475Y036066D01*
Y035934D01*
X114784Y035807D01*
X11485Y035693D01*
X114943Y0356D01*
X115057Y035534D01*
X115184Y0355D01*
X115316D01*
X115443Y035534D01*
X115557Y0356D01*
X11565Y035693D01*
X115716Y035807D01*
X11575Y035934D01*
Y036066D01*
X115716Y036193D01*
X11565Y036307D01*
X115557Y0364D01*
X11548Y036445D01*
X115493Y036495D01*
X115561Y036504D01*
X115624Y03653D01*
X115678Y036571D01*
X11572Y036626D01*
X115746Y036689D01*
X115755Y036757D01*
Y037237D01*
X115746Y037305D01*
X11572Y037368D01*
X115678Y037422D01*
X115624Y037464D01*
X115561Y03749D01*
X115493Y037499D01*
D02*
G37*
G36*
X128825Y035394D02*
Y035075D01*
X129144D01*
X129123Y035154D01*
X12907Y035246D01*
X128996Y03532D01*
X128904Y035373D01*
X128825Y035394D01*
D02*
G37*
G36*
X124325D02*
Y035075D01*
X124644D01*
X124623Y035154D01*
X12457Y035246D01*
X124496Y03532D01*
X124404Y035373D01*
X124325Y035394D01*
D02*
G37*
G36*
X119825D02*
Y035075D01*
X120144D01*
X120123Y035154D01*
X12007Y035246D01*
X119996Y03532D01*
X119904Y035373D01*
X119825Y035394D01*
D02*
G37*
G36*
X128675D02*
X128596Y035373D01*
X128504Y03532D01*
X12843Y035246D01*
X128377Y035154D01*
X128356Y035075D01*
X128675D01*
Y035394D01*
D02*
G37*
G36*
X124175D02*
X124096Y035373D01*
X124004Y03532D01*
X12393Y035246D01*
X123877Y035154D01*
X123856Y035075D01*
X124175D01*
Y035394D01*
D02*
G37*
G36*
X119675D02*
X119596Y035373D01*
X119504Y03532D01*
X11943Y035246D01*
X119377Y035154D01*
X119356Y035075D01*
X119675D01*
Y035394D01*
D02*
G37*
G36*
X115328Y035391D02*
Y035072D01*
X115647D01*
X115626Y035151D01*
X115573Y035242D01*
X115498Y035317D01*
X115407Y03537D01*
X115328Y035391D01*
D02*
G37*
G36*
X115178D02*
X115098Y03537D01*
X115007Y035317D01*
X114933Y035242D01*
X11488Y035151D01*
X114859Y035072D01*
X115178D01*
Y035391D01*
D02*
G37*
G36*
X124644Y034925D02*
X124325D01*
Y034606D01*
X124404Y034627D01*
X124496Y03468D01*
X12457Y034754D01*
X124623Y034846D01*
X124644Y034925D01*
D02*
G37*
G36*
X129144D02*
X128825D01*
Y034606D01*
X128904Y034627D01*
X128996Y03468D01*
X12907Y034754D01*
X129123Y034846D01*
X129144Y034925D01*
D02*
G37*
G36*
X120144D02*
X119825D01*
Y034606D01*
X119904Y034627D01*
X119996Y03468D01*
X12007Y034754D01*
X120123Y034846D01*
X120144Y034925D01*
D02*
G37*
G36*
X128675D02*
X128356D01*
X128377Y034846D01*
X12843Y034754D01*
X128504Y03468D01*
X128596Y034627D01*
X128675Y034606D01*
Y034925D01*
D02*
G37*
G36*
X119675D02*
X119356D01*
X119377Y034846D01*
X11943Y034754D01*
X119504Y03468D01*
X119596Y034627D01*
X119675Y034606D01*
Y034925D01*
D02*
G37*
G36*
X124175D02*
X123856D01*
X123877Y034846D01*
X12393Y034754D01*
X124004Y03468D01*
X124096Y034627D01*
X124175Y034606D01*
Y034925D01*
D02*
G37*
G36*
X115647Y034922D02*
X115328D01*
Y034603D01*
X115407Y034624D01*
X115498Y034677D01*
X115573Y034751D01*
X115626Y034842D01*
X115647Y034922D01*
D02*
G37*
G36*
X115178D02*
X114859D01*
X11488Y034842D01*
X114933Y034751D01*
X115007Y034677D01*
X115098Y034624D01*
X115178Y034603D01*
Y034922D01*
D02*
G37*
G36*
X14387Y033722D02*
X14313D01*
X143057Y033713D01*
X142989Y033685D01*
X14293Y03364D01*
X142885Y033581D01*
X142882Y033574D01*
X140618D01*
X140615Y033581D01*
X14057Y03364D01*
X140511Y033685D01*
X140443Y033713D01*
X14037Y033722D01*
X13963D01*
X139557Y033713D01*
X139489Y033685D01*
X13943Y03364D01*
X139385Y033581D01*
X139357Y033513D01*
X139348Y03344D01*
Y033424D01*
X13932D01*
X139203Y033408D01*
X139093Y033363D01*
X138999Y033291D01*
X138679Y032971D01*
X138607Y032877D01*
X138562Y032767D01*
X138546Y03265D01*
Y03018D01*
X13854Y030034D01*
X138534Y029978D01*
X138526Y029929D01*
X138516Y029889D01*
X138506Y029858D01*
X138496Y029836D01*
X138489Y029824D01*
X138485Y02982D01*
X138471Y029808D01*
X138464Y0298D01*
X138455Y029795D01*
X138439Y029771D01*
X138438Y029769D01*
X13842Y029747D01*
X138419Y029744D01*
X138411Y029734D01*
X138382Y029664D01*
X138373Y02959D01*
Y02891D01*
X138382Y028836D01*
X138411Y028766D01*
X138457Y028707D01*
X138516Y028661D01*
X138586Y028632D01*
X13866Y028623D01*
X13934D01*
X139414Y028632D01*
X139484Y028661D01*
X139543Y028707D01*
X139589Y028766D01*
X139618Y028836D01*
X139627Y02891D01*
Y02959D01*
X139618Y029664D01*
X139589Y029734D01*
X139581Y029744D01*
X13958Y029747D01*
X139562Y029769D01*
X139561Y029771D01*
X139545Y029795D01*
X139536Y0298D01*
X139529Y029808D01*
X139515Y02982D01*
X139511Y029824D01*
X139504Y029836D01*
X139494Y029858D01*
X139484Y029889D01*
X139474Y029929D01*
X139466Y029975D01*
X139455Y030104D01*
X139454Y030179D01*
Y030785D01*
X139504Y030809D01*
X139557Y030787D01*
X13963Y030778D01*
X139961D01*
X140046Y030692D01*
Y029852D01*
X140044Y029767D01*
X14004Y029704D01*
X140037Y029683D01*
X140034Y029668D01*
X140034Y029668D01*
X140015Y029648D01*
X139946Y029546D01*
X139899Y029432D01*
X139875Y029312D01*
Y029188D01*
X139899Y029068D01*
X139946Y028954D01*
X140015Y028852D01*
X140102Y028765D01*
X140204Y028696D01*
X140318Y028649D01*
X140438Y028625D01*
X140562D01*
X140682Y028649D01*
X140796Y028696D01*
X140898Y028765D01*
X140985Y028852D01*
X141054Y028954D01*
X141101Y029068D01*
X141125Y029188D01*
Y029312D01*
X141101Y029432D01*
X141054Y029546D01*
X140985Y029648D01*
X140966Y029668D01*
X140966Y029668D01*
X140964Y029677D01*
X140954Y02981D01*
X140954Y029851D01*
X140954Y029851D01*
Y03088D01*
X140938Y030997D01*
X140893Y031107D01*
X140821Y031201D01*
X140652Y031369D01*
Y0317D01*
X140643Y031773D01*
X140615Y031841D01*
X14057Y0319D01*
X140511Y031945D01*
X140443Y031973D01*
X14037Y031982D01*
X13963D01*
X139557Y031973D01*
X139504Y031951D01*
X139454Y031975D01*
Y032462D01*
X139508Y032516D01*
X13985D01*
X139861Y032518D01*
X14037D01*
X140443Y032527D01*
X140511Y032555D01*
X14057Y0326D01*
X140615Y032659D01*
X140618Y032666D01*
X142882D01*
X142885Y032659D01*
X14293Y0326D01*
X142989Y032555D01*
X143057Y032527D01*
X14313Y032518D01*
X14387D01*
X143943Y032527D01*
X144011Y032555D01*
X14407Y0326D01*
X144115Y032659D01*
X144143Y032727D01*
X144152Y0328D01*
Y03344D01*
X144143Y033513D01*
X144115Y033581D01*
X14407Y03364D01*
X144011Y033685D01*
X143943Y033713D01*
X14387Y033722D01*
D02*
G37*
G36*
X13037Y033874D02*
X130319D01*
X130337Y033842D01*
X130363Y033805D01*
X130393Y033773D01*
X130427Y033747D01*
X130075D01*
Y033445D01*
X130554D01*
Y03369D01*
X13054Y03376D01*
X1305Y03382D01*
X13044Y03386D01*
X13037Y033874D01*
D02*
G37*
G36*
X12662D02*
X126569D01*
X126587Y033842D01*
X126613Y033805D01*
X126643Y033773D01*
X126677Y033747D01*
X126325D01*
Y033445D01*
X126804D01*
Y03369D01*
X12679Y03376D01*
X12675Y03382D01*
X12669Y03386D01*
X12662Y033874D01*
D02*
G37*
G36*
X12212D02*
X122069D01*
X122087Y033842D01*
X122113Y033805D01*
X122143Y033773D01*
X122177Y033747D01*
X121825D01*
Y033445D01*
X122304D01*
Y03369D01*
X12229Y03376D01*
X12225Y03382D01*
X12219Y03386D01*
X12212Y033874D01*
D02*
G37*
G36*
X11787D02*
X117575D01*
Y033445D01*
X118054D01*
Y03369D01*
X11804Y03376D01*
X118Y03382D01*
X11794Y03386D01*
X11787Y033874D01*
D02*
G37*
G36*
X129681D02*
X12963D01*
X12956Y03386D01*
X1295Y03382D01*
X12946Y03376D01*
X129446Y03369D01*
Y033445D01*
X129925D01*
Y033747D01*
X129573D01*
X129607Y033773D01*
X129637Y033805D01*
X129663Y033842D01*
X129681Y033874D01*
D02*
G37*
G36*
X125931D02*
X12588D01*
X12581Y03386D01*
X12575Y03382D01*
X12571Y03376D01*
X125696Y03369D01*
Y033445D01*
X126175D01*
Y033747D01*
X125823D01*
X125857Y033773D01*
X125887Y033805D01*
X125913Y033842D01*
X125931Y033874D01*
D02*
G37*
G36*
X121431D02*
X12138D01*
X12131Y03386D01*
X12125Y03382D01*
X12121Y03376D01*
X121196Y03369D01*
Y033445D01*
X121675D01*
Y033747D01*
X121323D01*
X121357Y033773D01*
X121387Y033805D01*
X121413Y033842D01*
X121431Y033874D01*
D02*
G37*
G36*
X117425D02*
X11713D01*
X11706Y03386D01*
X117Y03382D01*
X11696Y03376D01*
X116946Y03369D01*
Y033445D01*
X117425D01*
Y033874D01*
D02*
G37*
G36*
X13712Y033472D02*
X13638D01*
X136307Y033463D01*
X136239Y033435D01*
X136231Y033428D01*
X13623Y033428D01*
X136218Y033418D01*
X136202Y033407D01*
X136179Y033391D01*
X136174Y033384D01*
X136168Y033379D01*
X136161Y033371D01*
X136154Y033367D01*
X136133Y033359D01*
X136101Y03335D01*
X136059Y033341D01*
X13601Y033334D01*
X135875Y033325D01*
X135797Y033324D01*
X135797Y033324D01*
X134453D01*
X134453Y033324D01*
X134375Y033325D01*
X13424Y033334D01*
X134191Y033341D01*
X134149Y03335D01*
X134117Y033359D01*
X134096Y033367D01*
X134089Y033371D01*
X134082Y033379D01*
X134076Y033384D01*
X134071Y033391D01*
X134048Y033407D01*
X134032Y033418D01*
X13402Y033428D01*
X134019Y033428D01*
X134011Y033435D01*
X133943Y033463D01*
X13387Y033472D01*
X13313D01*
X133057Y033463D01*
X132989Y033435D01*
X13293Y03339D01*
X132885Y033331D01*
X132857Y033263D01*
X13285Y033211D01*
X132849Y033209D01*
X13285Y033205D01*
X132848Y03319D01*
Y03318D01*
X132847Y033177D01*
X132848Y033174D01*
Y032968D01*
X132835Y032947D01*
X132789Y032881D01*
X132644Y032709D01*
X132549Y032611D01*
X132549Y032611D01*
X131929Y031991D01*
X131857Y031897D01*
X131812Y031787D01*
X131796Y03167D01*
Y03018D01*
X13179Y030034D01*
X131784Y029978D01*
X131776Y029929D01*
X131766Y029889D01*
X131756Y029858D01*
X131746Y029836D01*
X131739Y029824D01*
X131735Y02982D01*
X131721Y029808D01*
X131714Y0298D01*
X131705Y029795D01*
X131689Y029771D01*
X131688Y029769D01*
X13167Y029747D01*
X131669Y029744D01*
X131661Y029734D01*
X131632Y029664D01*
X131623Y02959D01*
Y02891D01*
X131632Y028836D01*
X131661Y028766D01*
X131707Y028707D01*
X131766Y028661D01*
X131836Y028632D01*
X13191Y028623D01*
X13259D01*
X132664Y028632D01*
X132734Y028661D01*
X132793Y028707D01*
X132839Y028766D01*
X132868Y028836D01*
X132877Y02891D01*
Y02959D01*
X132868Y029664D01*
X132839Y029734D01*
X132831Y029744D01*
X13283Y029747D01*
X132812Y029769D01*
X132811Y029771D01*
X132795Y029795D01*
X132786Y0298D01*
X132779Y029808D01*
X132765Y02982D01*
X132761Y029824D01*
X132754Y029836D01*
X132744Y029858D01*
X132734Y029889D01*
X132724Y029929D01*
X132716Y029975D01*
X132705Y030104D01*
X132704Y030179D01*
Y031482D01*
X132853Y031631D01*
X132891Y031598D01*
X132885Y031591D01*
X132857Y031523D01*
X132848Y03145D01*
Y03081D01*
X132857Y030737D01*
X132885Y030669D01*
X13293Y03061D01*
X132989Y030565D01*
X133057Y030537D01*
X13313Y030528D01*
X133325D01*
X133332Y030499D01*
X133339Y030454D01*
X133344Y030398D01*
X133346Y030325D01*
X133347Y030323D01*
Y029886D01*
X133346Y029884D01*
X133345Y029844D01*
X133343Y029813D01*
X13334Y029785D01*
X133335Y029761D01*
X13333Y029742D01*
X133325Y029726D01*
X13332Y029715D01*
X133315Y029707D01*
X133312Y029702D01*
X133301Y02969D01*
X133294Y029678D01*
X133265Y029648D01*
X133196Y029546D01*
X133149Y029432D01*
X133125Y029312D01*
Y029188D01*
X133149Y029068D01*
X133196Y028954D01*
X133265Y028852D01*
X133352Y028765D01*
X133454Y028696D01*
X133568Y028649D01*
X133688Y028625D01*
X133812D01*
X133932Y028649D01*
X134046Y028696D01*
X134148Y028765D01*
X134235Y028852D01*
X134304Y028954D01*
X134351Y029068D01*
X134375Y029188D01*
Y029312D01*
X134351Y029432D01*
X134304Y029546D01*
X134235Y029648D01*
X134206Y029678D01*
X134199Y02969D01*
X134188Y029702D01*
X134185Y029707D01*
X13418Y029715D01*
X134175Y029726D01*
X13417Y029742D01*
X134165Y029761D01*
X134161Y029782D01*
X134155Y029847D01*
X134154Y029884D01*
X134153Y029886D01*
Y030407D01*
X134154Y03041D01*
X134153Y03048D01*
Y03093D01*
X134153Y03093D01*
X134152Y030938D01*
Y03145D01*
X134143Y031523D01*
X134115Y031591D01*
X13407Y03165D01*
X134011Y031695D01*
X133943Y031723D01*
X13387Y031732D01*
X13313D01*
X133057Y031723D01*
X132989Y031695D01*
X132982Y031689D01*
X132949Y031727D01*
X13319Y031969D01*
X133381Y032146D01*
X133458Y032208D01*
X133527Y032255D01*
X133548Y032268D01*
X133754D01*
X133757Y032267D01*
X13376Y032268D01*
X13387D01*
X133943Y032277D01*
X134011Y032305D01*
X134019Y032312D01*
X13402Y032312D01*
X134032Y032322D01*
X134048Y032333D01*
X134071Y032349D01*
X134076Y032356D01*
X134082Y032361D01*
X134089Y032369D01*
X134096Y032373D01*
X134117Y032381D01*
X134149Y03239D01*
X134191Y032399D01*
X13424Y032406D01*
X134375Y032415D01*
X134453Y032416D01*
X134453Y032416D01*
X135797D01*
X135797Y032416D01*
X135875Y032415D01*
X13601Y032406D01*
X136059Y032399D01*
X136101Y03239D01*
X136133Y032381D01*
X136154Y032373D01*
X136161Y032369D01*
X136168Y032361D01*
X136174Y032356D01*
X136179Y032349D01*
X136202Y032333D01*
X136218Y032322D01*
X13623Y032312D01*
X136231Y032312D01*
X136239Y032305D01*
X136307Y032277D01*
X13638Y032268D01*
X13712D01*
X137193Y032277D01*
X137261Y032305D01*
X13732Y03235D01*
X137365Y032409D01*
X137393Y032477D01*
X137402Y03255D01*
Y03319D01*
X137393Y033263D01*
X137365Y033331D01*
X13732Y03339D01*
X137261Y033435D01*
X137193Y033463D01*
X13712Y033472D01*
D02*
G37*
G36*
X130554Y033295D02*
X130075D01*
Y032866D01*
X13037D01*
X13044Y03288D01*
X1305Y03292D01*
X13054Y03298D01*
X130554Y03305D01*
Y033295D01*
D02*
G37*
G36*
X129925D02*
X129446D01*
Y03305D01*
X12946Y03298D01*
X1295Y03292D01*
X12956Y03288D01*
X12963Y032866D01*
X129925D01*
Y033295D01*
D02*
G37*
G36*
X126804D02*
X126325D01*
Y032866D01*
X12662D01*
X12669Y03288D01*
X12675Y03292D01*
X12679Y03298D01*
X126804Y03305D01*
Y033295D01*
D02*
G37*
G36*
X126175D02*
X125696D01*
Y03305D01*
X12571Y03298D01*
X12575Y03292D01*
X12581Y03288D01*
X12588Y032866D01*
X126175D01*
Y033295D01*
D02*
G37*
G36*
X122304D02*
X121825D01*
Y032866D01*
X12212D01*
X12219Y03288D01*
X12225Y03292D01*
X12229Y03298D01*
X122304Y03305D01*
Y033295D01*
D02*
G37*
G36*
X121675D02*
X121196D01*
Y03305D01*
X12121Y03298D01*
X12125Y03292D01*
X12131Y03288D01*
X12138Y032866D01*
X121675D01*
Y033295D01*
D02*
G37*
G36*
X118054D02*
X117575D01*
Y032866D01*
X11787D01*
X11794Y03288D01*
X118Y03292D01*
X11804Y03298D01*
X118054Y03305D01*
Y033295D01*
D02*
G37*
G36*
X117425D02*
X116946D01*
Y03305D01*
X11696Y03298D01*
X117Y03292D01*
X11706Y03288D01*
X11713Y032866D01*
X117425D01*
Y033295D01*
D02*
G37*
G36*
X13037Y032232D02*
X12963D01*
X129557Y032223D01*
X129489Y032195D01*
X12943Y03215D01*
X129385Y032091D01*
X129357Y032023D01*
X129348Y03195D01*
Y031799D01*
X129347Y031795D01*
X129348Y031792D01*
Y03164D01*
X129344Y031633D01*
X129309Y031583D01*
X129195Y031449D01*
X12912Y031371D01*
X129119Y03137D01*
X128696Y030946D01*
X128632Y030863D01*
X128591Y030766D01*
X128578Y030661D01*
X128578Y030661D01*
Y030398D01*
X128286Y030107D01*
X128285Y030106D01*
X128253Y030076D01*
X128226Y030054D01*
X128199Y030035D01*
X128172Y030019D01*
X128146Y030007D01*
X12812Y029996D01*
X128093Y029989D01*
X128066Y029983D01*
X128037Y02998D01*
X127999Y029979D01*
X127983Y029975D01*
X127929D01*
X127789Y029947D01*
X127657Y029892D01*
X127538Y029813D01*
X127437Y029712D01*
X127358Y029593D01*
X127303Y029461D01*
X127275Y029321D01*
Y029179D01*
X127303Y029039D01*
X127358Y028907D01*
X127437Y028788D01*
X127538Y028687D01*
X127657Y028608D01*
X127789Y028553D01*
X127929Y028525D01*
X128071D01*
X128211Y028553D01*
X128343Y028608D01*
X128462Y028687D01*
X128563Y028788D01*
X128642Y028907D01*
X128697Y029039D01*
X128725Y029179D01*
Y029233D01*
X128729Y029249D01*
X12873Y029287D01*
X128733Y029316D01*
X128739Y029343D01*
X128746Y02937D01*
X128757Y029396D01*
X128769Y029422D01*
X128785Y029449D01*
X128804Y029476D01*
X128826Y029503D01*
X128856Y029535D01*
X128857Y029536D01*
X129266Y029946D01*
X129266Y029946D01*
X129331Y030029D01*
X129371Y030127D01*
X129385Y030231D01*
X129385Y030231D01*
Y030494D01*
X129687Y030797D01*
X129688Y030797D01*
X129842Y03094D01*
X129901Y030987D01*
X129953Y031024D01*
X12996Y031028D01*
X130112D01*
X130115Y031027D01*
X130119Y031028D01*
X13037D01*
X130443Y031037D01*
X130511Y031065D01*
X13057Y03111D01*
X130615Y031169D01*
X130643Y031237D01*
X130652Y03131D01*
Y03195D01*
X130643Y032023D01*
X130615Y032091D01*
X13057Y03215D01*
X130511Y032195D01*
X130443Y032223D01*
X13037Y032232D01*
D02*
G37*
G36*
X14387Y031982D02*
X14313D01*
X143057Y031973D01*
X142989Y031945D01*
X14293Y0319D01*
X142885Y031841D01*
X142857Y031773D01*
X14285Y031721D01*
X142849Y031719D01*
X14285Y031715D01*
X142848Y0317D01*
Y03169D01*
X142847Y031687D01*
X142848Y031684D01*
Y031478D01*
X142835Y031457D01*
X142789Y031391D01*
X142644Y031219D01*
X142549Y031121D01*
X142549Y031121D01*
X141746Y030318D01*
X141674Y030224D01*
X141629Y030114D01*
X141613Y029997D01*
Y029891D01*
X141613Y029891D01*
X141613Y029849D01*
X141608Y029777D01*
X141605Y029754D01*
X141602Y029736D01*
X141602Y029735D01*
X141515Y029648D01*
X141446Y029546D01*
X141399Y029432D01*
X141375Y029312D01*
Y029188D01*
X141399Y029068D01*
X141446Y028954D01*
X141515Y028852D01*
X141602Y028765D01*
X141704Y028696D01*
X141818Y028649D01*
X141938Y028625D01*
X142062D01*
X142182Y028649D01*
X142296Y028696D01*
X142398Y028765D01*
X142485Y028852D01*
X142554Y028954D01*
X142601Y029068D01*
X142625Y029188D01*
Y029312D01*
X142601Y029432D01*
X142554Y029546D01*
X142531Y02958D01*
X142521Y029747D01*
X142521Y029789D01*
X142521Y029789D01*
Y029809D01*
X14319Y030479D01*
X143381Y030656D01*
X143458Y030718D01*
X143527Y030765D01*
X143548Y030778D01*
X143754D01*
X143757Y030777D01*
X14376Y030778D01*
X14387D01*
X143943Y030787D01*
X144011Y030815D01*
X14407Y03086D01*
X144115Y030919D01*
X144143Y030987D01*
X144152Y03106D01*
Y0317D01*
X144143Y031773D01*
X144115Y031841D01*
X14407Y0319D01*
X144011Y031945D01*
X143943Y031973D01*
X14387Y031982D01*
D02*
G37*
G36*
X143575Y029773D02*
Y029325D01*
X144023D01*
X143989Y029453D01*
X14392Y029572D01*
X143822Y02967D01*
X143703Y029739D01*
X143575Y029773D01*
D02*
G37*
G36*
X143425D02*
X143297Y029739D01*
X143178Y02967D01*
X14308Y029572D01*
X143011Y029453D01*
X142977Y029325D01*
X143425D01*
Y029773D01*
D02*
G37*
G36*
X136825D02*
Y029325D01*
X137273D01*
X137239Y029453D01*
X13717Y029572D01*
X137072Y02967D01*
X136953Y029739D01*
X136825Y029773D01*
D02*
G37*
G36*
X136675D02*
X136547Y029739D01*
X136428Y02967D01*
X13633Y029572D01*
X136261Y029453D01*
X136227Y029325D01*
X136675D01*
Y029773D01*
D02*
G37*
G36*
X130075Y029872D02*
Y029325D01*
X130622D01*
X130601Y029432D01*
X130554Y029546D01*
X130485Y029648D01*
X130398Y029735D01*
X130296Y029804D01*
X130182Y029851D01*
X130075Y029872D01*
D02*
G37*
G36*
X129925D02*
X129818Y029851D01*
X129704Y029804D01*
X129602Y029735D01*
X129515Y029648D01*
X129446Y029546D01*
X129399Y029432D01*
X129378Y029325D01*
X129925D01*
Y029872D01*
D02*
G37*
G36*
X122075D02*
Y029325D01*
X122622D01*
X122601Y029432D01*
X122554Y029546D01*
X122485Y029648D01*
X122398Y029735D01*
X122296Y029804D01*
X122182Y029851D01*
X122075Y029872D01*
D02*
G37*
G36*
X121925D02*
X121818Y029851D01*
X121704Y029804D01*
X121602Y029735D01*
X121515Y029648D01*
X121446Y029546D01*
X121399Y029432D01*
X121378Y029325D01*
X121925D01*
Y029872D01*
D02*
G37*
G36*
X144023Y029175D02*
X143575D01*
Y028727D01*
X143703Y028761D01*
X143822Y02883D01*
X14392Y028928D01*
X143989Y029047D01*
X144023Y029175D01*
D02*
G37*
G36*
X143425D02*
X142977D01*
X143011Y029047D01*
X14308Y028928D01*
X143178Y02883D01*
X143297Y028761D01*
X143425Y028727D01*
Y029175D01*
D02*
G37*
G36*
X137273D02*
X136825D01*
Y028727D01*
X136953Y028761D01*
X137072Y02883D01*
X13717Y028928D01*
X137239Y029047D01*
X137273Y029175D01*
D02*
G37*
G36*
X136675D02*
X136227D01*
X136261Y029047D01*
X13633Y028928D01*
X136428Y02883D01*
X136547Y028761D01*
X136675Y028727D01*
Y029175D01*
D02*
G37*
G36*
X130622D02*
X130075D01*
Y028628D01*
X130182Y028649D01*
X130296Y028696D01*
X130398Y028765D01*
X130485Y028852D01*
X130554Y028954D01*
X130601Y029068D01*
X130622Y029175D01*
D02*
G37*
G36*
X129925D02*
X129378D01*
X129399Y029068D01*
X129446Y028954D01*
X129515Y028852D01*
X129602Y028765D01*
X129704Y028696D01*
X129818Y028649D01*
X129925Y028628D01*
Y029175D01*
D02*
G37*
G36*
X122622D02*
X122075D01*
Y028628D01*
X122182Y028649D01*
X122296Y028696D01*
X122398Y028765D01*
X122485Y028852D01*
X122554Y028954D01*
X122601Y029068D01*
X122622Y029175D01*
D02*
G37*
G36*
X121925D02*
X121378D01*
X121399Y029068D01*
X121446Y028954D01*
X121515Y028852D01*
X121602Y028765D01*
X121704Y028696D01*
X121818Y028649D01*
X121925Y028628D01*
Y029175D01*
D02*
G37*
G36*
X13712Y031732D02*
X13638D01*
X136307Y031723D01*
X136239Y031695D01*
X13618Y03165D01*
X136135Y031591D01*
X136107Y031523D01*
X136098Y03145D01*
Y030938D01*
X136097Y03093D01*
X136097Y03093D01*
Y030667D01*
X135415Y029985D01*
X135413Y029984D01*
X135384Y029957D01*
X13536Y029936D01*
X135338Y029918D01*
X135318Y029905D01*
X135301Y029894D01*
X135286Y029887D01*
X135274Y029883D01*
X135266Y02988D01*
X13526Y029879D01*
X135244Y029879D01*
X13523Y029875D01*
X135188D01*
X135068Y029851D01*
X134954Y029804D01*
X134852Y029735D01*
X134765Y029648D01*
X134696Y029546D01*
X134649Y029432D01*
X134625Y029312D01*
Y029188D01*
X134649Y029068D01*
X134696Y028954D01*
X134765Y028852D01*
X134852Y028765D01*
X134954Y028696D01*
X135068Y028649D01*
X135188Y028625D01*
X135312D01*
X135432Y028649D01*
X135546Y028696D01*
X135648Y028765D01*
X135735Y028852D01*
X135804Y028954D01*
X135851Y029068D01*
X135875Y029188D01*
Y02923D01*
X135879Y029244D01*
X135879Y02926D01*
X13588Y029266D01*
X135883Y029274D01*
X135887Y029286D01*
X135894Y029301D01*
X135905Y029318D01*
X135917Y029336D01*
X135958Y029386D01*
X135984Y029413D01*
X135985Y029415D01*
X136785Y030215D01*
X136849Y030298D01*
X13689Y030396D01*
X136902Y03049D01*
X136904Y030499D01*
X136904Y030528D01*
X13712D01*
X137193Y030537D01*
X137261Y030565D01*
X13732Y03061D01*
X137365Y030669D01*
X137393Y030737D01*
X137402Y03081D01*
Y03145D01*
X137393Y031523D01*
X137365Y031591D01*
X13732Y03165D01*
X137261Y031695D01*
X137193Y031723D01*
X13712Y031732D01*
D02*
G37*
G36*
X12662Y032232D02*
X12588D01*
X125807Y032223D01*
X125739Y032195D01*
X12568Y03215D01*
X125635Y032091D01*
X125607Y032023D01*
X125598Y03195D01*
Y031438D01*
X125597Y03143D01*
X125597Y03143D01*
Y03094D01*
X125596Y030911D01*
X125597Y030909D01*
Y030059D01*
X125596Y030057D01*
X125595Y030013D01*
X125591Y029978D01*
X125585Y029946D01*
X125578Y029916D01*
X125568Y029888D01*
X125557Y029862D01*
X125543Y029838D01*
X125528Y029815D01*
X12551Y029792D01*
X125484Y029765D01*
X125475Y02975D01*
X125437Y029712D01*
X125358Y029593D01*
X125303Y029461D01*
X125275Y029321D01*
Y029179D01*
X125303Y029039D01*
X125358Y028907D01*
X125437Y028788D01*
X125538Y028687D01*
X125657Y028608D01*
X125789Y028553D01*
X125929Y028525D01*
X126071D01*
X126211Y028553D01*
X126343Y028608D01*
X126462Y028687D01*
X126563Y028788D01*
X126642Y028907D01*
X126697Y029039D01*
X126725Y029179D01*
Y029321D01*
X126697Y029461D01*
X126642Y029593D01*
X126563Y029712D01*
X126525Y02975D01*
X126516Y029765D01*
X12649Y029792D01*
X126472Y029815D01*
X126457Y029838D01*
X126443Y029862D01*
X126432Y029888D01*
X126422Y029916D01*
X126415Y029946D01*
X126409Y029978D01*
X126405Y030013D01*
X126404Y030057D01*
X126403Y030059D01*
Y030823D01*
X126404Y030825D01*
X126406Y030898D01*
X126411Y030954D01*
X126418Y030999D01*
X126425Y031028D01*
X12662D01*
X126693Y031037D01*
X126761Y031065D01*
X12682Y03111D01*
X126865Y031169D01*
X126893Y031237D01*
X126902Y03131D01*
Y03195D01*
X126893Y032023D01*
X126865Y032091D01*
X12682Y03215D01*
X126761Y032195D01*
X126693Y032223D01*
X12662Y032232D01*
D02*
G37*
G36*
X12212D02*
X12138D01*
X121307Y032223D01*
X121239Y032195D01*
X12118Y03215D01*
X121135Y032091D01*
X121107Y032023D01*
X121098Y03195D01*
Y031438D01*
X121097Y03143D01*
X121097Y03143D01*
Y03094D01*
X121096Y030917D01*
X120286Y030107D01*
X120285Y030106D01*
X120253Y030076D01*
X120226Y030054D01*
X120199Y030035D01*
X120172Y030019D01*
X120146Y030007D01*
X12012Y029996D01*
X120093Y029989D01*
X120066Y029983D01*
X120037Y02998D01*
X119999Y029979D01*
X119983Y029975D01*
X119929D01*
X119789Y029947D01*
X119657Y029892D01*
X119538Y029813D01*
X119437Y029712D01*
X119358Y029593D01*
X119303Y029461D01*
X119275Y029321D01*
Y029179D01*
X119303Y029039D01*
X119358Y028907D01*
X119437Y028788D01*
X119538Y028687D01*
X119657Y028608D01*
X119789Y028553D01*
X119929Y028525D01*
X120071D01*
X120211Y028553D01*
X120343Y028608D01*
X120462Y028687D01*
X120563Y028788D01*
X120642Y028907D01*
X120697Y029039D01*
X120725Y029179D01*
Y029233D01*
X120729Y029249D01*
X12073Y029287D01*
X120733Y029316D01*
X120739Y029343D01*
X120746Y02937D01*
X120757Y029396D01*
X120769Y029422D01*
X120785Y029449D01*
X120804Y029476D01*
X120826Y029503D01*
X120856Y029535D01*
X120857Y029536D01*
X121785Y030465D01*
X121785Y030465D01*
X121849Y030548D01*
X12189Y030646D01*
X121903Y03075D01*
Y030823D01*
X121904Y030825D01*
X121906Y030898D01*
X121911Y030954D01*
X121918Y030999D01*
X121925Y031028D01*
X12212D01*
X122193Y031037D01*
X122261Y031065D01*
X12232Y03111D01*
X122365Y031169D01*
X122393Y031237D01*
X122402Y03131D01*
Y03195D01*
X122393Y032023D01*
X122365Y032091D01*
X12232Y03215D01*
X122261Y032195D01*
X122193Y032223D01*
X12212Y032232D01*
D02*
G37*
G36*
X11787D02*
X11713D01*
X117057Y032223D01*
X116989Y032195D01*
X11693Y03215D01*
X116885Y032091D01*
X116857Y032023D01*
X116848Y03195D01*
Y03131D01*
X116857Y031237D01*
X116885Y031169D01*
X11693Y03111D01*
X116989Y031065D01*
X116998Y031062D01*
X117003Y031058D01*
X117013Y031055D01*
X117022Y031048D01*
X117037Y031045D01*
X117057Y031037D01*
X11707Y031035D01*
X117074Y031026D01*
X117082Y030995D01*
X11709Y030951D01*
X117094Y030896D01*
X117096Y030824D01*
X117097Y030823D01*
Y029926D01*
X117097Y029926D01*
X11711Y029821D01*
X117151Y029724D01*
X117182Y029683D01*
X117183Y029681D01*
X117189Y029674D01*
X117202Y029657D01*
X117209Y029646D01*
X117239Y029614D01*
X117258Y029589D01*
X117273Y029566D01*
X117284Y029545D01*
X117292Y029526D01*
X117296Y029508D01*
X117299Y02949D01*
X117299Y029471D01*
X117298Y029452D01*
X117291Y029419D01*
X117291Y029403D01*
X117275Y029321D01*
Y029179D01*
X117303Y029039D01*
X117358Y028907D01*
X117437Y028788D01*
X117538Y028687D01*
X117657Y028608D01*
X117789Y028553D01*
X117929Y028525D01*
X118071D01*
X118211Y028553D01*
X118343Y028608D01*
X118462Y028687D01*
X118563Y028788D01*
X118642Y028907D01*
X118697Y029039D01*
X118725Y029179D01*
Y029321D01*
X118697Y029461D01*
X118642Y029593D01*
X118563Y029712D01*
X118462Y029813D01*
X118343Y029892D01*
X118211Y029947D01*
X118183Y029953D01*
X118171Y029958D01*
X118133Y029969D01*
X118101Y029979D01*
X118069Y029992D01*
X118038Y030006D01*
X118008Y030022D01*
X117978Y030041D01*
X11795Y03006D01*
X117903Y030098D01*
Y030823D01*
X117904Y030824D01*
X117906Y030896D01*
X11791Y030951D01*
X117918Y030995D01*
X117926Y031026D01*
X11793Y031035D01*
X117943Y031037D01*
X117963Y031045D01*
X117978Y031048D01*
X117987Y031055D01*
X117997Y031058D01*
X118002Y031062D01*
X118011Y031065D01*
X11807Y03111D01*
X118115Y031169D01*
X118143Y031237D01*
X118152Y03131D01*
Y03195D01*
X118143Y032023D01*
X118115Y032091D01*
X11807Y03215D01*
X118011Y032195D01*
X117943Y032223D01*
X11787Y032232D01*
D02*
G37*
%LPD*%
G36*
X121778Y065028D02*
X122761D01*
X12274Y064993D01*
X122721Y064947D01*
X122704Y06489D01*
X12269Y064822D01*
X122678Y064742D01*
X12266Y064549D01*
X122651Y064311D01*
X12265Y064175D01*
X12185D01*
X121849Y064311D01*
X121822Y064742D01*
X12181Y064822D01*
X121796Y06489D01*
X121779Y064947D01*
X12176Y064993D01*
X121754Y065004D01*
X121743Y06501D01*
X121697Y065029D01*
X12164Y065046D01*
X121572Y06506D01*
X121492Y065072D01*
X121299Y06509D01*
X121061Y065099D01*
X120925Y0651D01*
Y0659D01*
X121061Y065901D01*
X121492Y065928D01*
X121572Y06594D01*
X12164Y065954D01*
X121697Y065971D01*
X121743Y06599D01*
X121778Y066011D01*
Y065028D01*
D02*
G37*
G36*
X121241Y037402D02*
X121315Y037339D01*
X121347Y037316D01*
X121377Y037299D01*
X121404Y037288D01*
X121428Y037282D01*
X121449Y037282D01*
X121467Y037288D01*
X121483Y037299D01*
X121201Y037017D01*
X121212Y037033D01*
X121218Y037051D01*
X121218Y037072D01*
X121212Y037096D01*
X121201Y037123D01*
X121184Y037153D01*
X121161Y037185D01*
X121132Y037221D01*
X121059Y0373D01*
X1212Y037441D01*
X121241Y037402D01*
D02*
G37*
G36*
X122543Y036895D02*
X122541Y036896D01*
X122538Y036897D01*
X122532Y036898D01*
X122517Y036899D01*
X122465Y0369D01*
X122448Y0369D01*
Y0371D01*
X122543Y037105D01*
Y036895D01*
D02*
G37*
G36*
X11799Y036892D02*
X117988Y036893D01*
X117984Y036894D01*
X117979Y036894D01*
X117964Y036896D01*
X117912Y036897D01*
X117895Y036897D01*
Y037097D01*
X11799Y037102D01*
Y036892D01*
D02*
G37*
G36*
X121801Y037181D02*
X121807Y037164D01*
X121817Y037149D01*
X121831Y037136D01*
X121849Y037125D01*
X121871Y037116D01*
X121897Y037109D01*
X121928Y037104D01*
X121962Y037101D01*
X122Y0371D01*
Y0369D01*
X121962Y036899D01*
X121928Y036896D01*
X121897Y036891D01*
X121871Y036884D01*
X121849Y036875D01*
X121831Y036864D01*
X121817Y036851D01*
X121807Y036836D01*
X121801Y036819D01*
X121799Y0368D01*
Y0372D01*
X121801Y037181D01*
D02*
G37*
G36*
X117304Y037178D02*
X11731Y037161D01*
X11732Y037146D01*
X117334Y037133D01*
X117352Y037122D01*
X117374Y037113D01*
X1174Y037106D01*
X11743Y037101D01*
X117465Y037098D01*
X117503Y037097D01*
Y036897D01*
X117465Y036896D01*
X11743Y036893D01*
X1174Y036888D01*
X117374Y036881D01*
X117352Y036872D01*
X117334Y036861D01*
X11732Y036848D01*
X11731Y036833D01*
X117304Y036816D01*
X117302Y036797D01*
Y037197D01*
X117304Y037178D01*
D02*
G37*
G36*
X116704Y036797D02*
X116702Y036816D01*
X116696Y036833D01*
X116686Y036848D01*
X116672Y036861D01*
X116654Y036872D01*
X116632Y036881D01*
X116605Y036888D01*
X116575Y036893D01*
X116541Y036896D01*
X116503Y036897D01*
Y037097D01*
X116541Y037098D01*
X116575Y037101D01*
X116605Y037106D01*
X116632Y037113D01*
X116654Y037122D01*
X116672Y037133D01*
X116686Y037146D01*
X116696Y037161D01*
X116702Y037178D01*
X116704Y037197D01*
Y036797D01*
D02*
G37*
G36*
X116101Y029936D02*
X116104Y029902D01*
X116109Y029872D01*
X116116Y029846D01*
X116125Y029824D01*
X116136Y029806D01*
X116149Y029792D01*
X116164Y029782D01*
X116181Y029776D01*
X1162Y029773D01*
X1158D01*
X115819Y029776D01*
X115836Y029782D01*
X115851Y029792D01*
X115864Y029806D01*
X115875Y029824D01*
X115884Y029846D01*
X115891Y029872D01*
X115896Y029902D01*
X115899Y029936D01*
X1159Y029975D01*
X1161D01*
X116101Y029936D01*
D02*
G37*
G36*
X139251Y030094D02*
X139264Y02995D01*
X139274Y029888D01*
X139288Y029832D01*
X139304Y029783D01*
X139324Y02974D01*
X139346Y029704D01*
X139372Y029674D01*
X1394Y02965D01*
X1386D01*
X138628Y029674D01*
X138654Y029704D01*
X138676Y02974D01*
X138696Y029783D01*
X138712Y029832D01*
X138726Y029888D01*
X138736Y02995D01*
X138744Y030019D01*
X13875Y030175D01*
X13925D01*
X139251Y030094D01*
D02*
G37*
G36*
X14075Y029801D02*
X140762Y029651D01*
X140767Y029623D01*
X140773Y0296D01*
X14078Y02958D01*
X140788Y029565D01*
X140798Y029554D01*
X140203D01*
X140212Y029565D01*
X14022Y02958D01*
X140227Y0296D01*
X140233Y029623D01*
X140238Y029651D01*
X140242Y029682D01*
X140248Y029757D01*
X14025Y029849D01*
X14075D01*
X14075Y029801D01*
D02*
G37*
G36*
X136323Y032493D02*
X136303Y032517D01*
X136275Y032539D01*
X13624Y032558D01*
X136199Y032574D01*
X13615Y032588D01*
X136094Y0326D01*
X136031Y032609D01*
X135884Y032619D01*
X1358Y03262D01*
Y03312D01*
X135884Y033121D01*
X136031Y033131D01*
X136094Y03314D01*
X13615Y033152D01*
X136199Y033166D01*
X13624Y033182D01*
X136275Y033201D01*
X136303Y033223D01*
X136323Y033247D01*
Y032493D01*
D02*
G37*
G36*
X133947Y033223D02*
X133975Y033201D01*
X13401Y033182D01*
X134051Y033166D01*
X1341Y033152D01*
X134156Y03314D01*
X134219Y033131D01*
X134366Y033121D01*
X13445Y03312D01*
Y03262D01*
X134366Y032619D01*
X134219Y032609D01*
X134156Y0326D01*
X1341Y032588D01*
X134051Y032574D01*
X13401Y032558D01*
X133975Y032539D01*
X133947Y032517D01*
X133927Y032493D01*
Y033247D01*
X133947Y033223D01*
D02*
G37*
G36*
X133757Y032471D02*
X133718Y032499D01*
X133672Y032513D01*
X133619Y032513D01*
X133559Y032499D01*
X133492Y03247D01*
X133418Y032428D01*
X133336Y032371D01*
X133248Y0323D01*
X13305Y032116D01*
X132696Y03247D01*
X132795Y032572D01*
X132951Y032756D01*
X133008Y032838D01*
X13305Y032912D01*
X133079Y032979D01*
X133093Y033039D01*
X133093Y033092D01*
X133079Y033138D01*
X133051Y033177D01*
X133757Y032471D01*
D02*
G37*
G36*
X133945Y030777D02*
X133946Y030767D01*
X133948Y030724D01*
X13395Y030408D01*
X13355Y03033D01*
X133548Y030409D01*
X133542Y030479D01*
X133532Y030541D01*
X133518Y030594D01*
X1335Y030639D01*
X133478Y030674D01*
X133452Y030702D01*
X133422Y03072D01*
X133388Y03073D01*
X13335Y030731D01*
X133944Y030779D01*
X133945Y030777D01*
D02*
G37*
G36*
X132501Y030094D02*
X132514Y02995D01*
X132524Y029888D01*
X132538Y029832D01*
X132554Y029783D01*
X132574Y02974D01*
X132596Y029704D01*
X132622Y029674D01*
X13265Y02965D01*
X13185D01*
X131878Y029674D01*
X131904Y029704D01*
X131926Y02974D01*
X131946Y029783D01*
X131962Y029832D01*
X131976Y029888D01*
X131986Y02995D01*
X131994Y030019D01*
X132Y030175D01*
X1325D01*
X132501Y030094D01*
D02*
G37*
G36*
X133951Y029835D02*
X133959Y029754D01*
X133966Y029717D01*
X133974Y029683D01*
X133985Y029652D01*
X133998Y029623D01*
X134012Y029597D01*
X134029Y029574D01*
X134047Y029554D01*
X133453D01*
X133471Y029574D01*
X133488Y029597D01*
X133502Y029623D01*
X133515Y029652D01*
X133526Y029683D01*
X133534Y029717D01*
X133541Y029754D01*
X133546Y029793D01*
X133549Y029835D01*
X13355Y02988D01*
X13395D01*
X133951Y029835D01*
D02*
G37*
G36*
X130115Y031231D02*
X130084Y031253D01*
X130048Y031265D01*
X130005Y031264D01*
X129957Y031253D01*
X129904Y03123D01*
X129844Y031196D01*
X129779Y031151D01*
X129708Y031094D01*
X12955Y030947D01*
X129267Y03123D01*
X129346Y031312D01*
X129471Y031459D01*
X129516Y031524D01*
X12955Y031584D01*
X129573Y031637D01*
X129584Y031685D01*
X129585Y031728D01*
X129573Y031764D01*
X129551Y031795D01*
X130115Y031231D01*
D02*
G37*
G36*
X128707Y029675D02*
X128672Y029637D01*
X128641Y029599D01*
X128613Y029559D01*
X12859Y029519D01*
X128569Y029477D01*
X128553Y029435D01*
X12854Y029391D01*
X128532Y029347D01*
X128526Y029302D01*
X128525Y029255D01*
X128005Y029775D01*
X128052Y029776D01*
X128097Y029782D01*
X128141Y02979D01*
X128185Y029803D01*
X128227Y029819D01*
X128269Y02984D01*
X128309Y029863D01*
X128349Y029891D01*
X128387Y029922D01*
X128425Y029957D01*
X128707Y029675D01*
D02*
G37*
G36*
X143757Y030981D02*
X143718Y031009D01*
X143672Y031023D01*
X143619Y031023D01*
X143559Y031009D01*
X143492Y03098D01*
X143418Y030938D01*
X143336Y030881D01*
X143248Y03081D01*
X14305Y030626D01*
X142696Y03098D01*
X142795Y031082D01*
X142951Y031266D01*
X143008Y031348D01*
X14305Y031422D01*
X143079Y031489D01*
X143093Y031549D01*
X143093Y031602D01*
X143079Y031648D01*
X143051Y031687D01*
X143757Y030981D01*
D02*
G37*
G36*
X142317Y029788D02*
X142317Y02974D01*
X142329Y029543D01*
X142333Y029525D01*
X142337Y029512D01*
X142342Y029503D01*
X141754Y029597D01*
X141766Y029608D01*
X141777Y029623D01*
X141786Y029642D01*
X141794Y029665D01*
X141801Y029692D01*
X141807Y029723D01*
X141811Y029758D01*
X141816Y029841D01*
X141817Y029889D01*
X142317Y029788D01*
D02*
G37*
G36*
X136323Y030753D02*
X13673Y030731D01*
X136724Y030729D01*
X136719Y030722D01*
X136715Y030711D01*
X136711Y030695D01*
X136707Y030674D01*
X136703Y030618D01*
X1367Y030544D01*
X1367Y0305D01*
X1363D01*
X1363Y030551D01*
X136311Y030737D01*
X136315Y030748D01*
X136319Y030753D01*
X136323Y030753D01*
D02*
G37*
G36*
X135837Y029554D02*
X135806Y029522D01*
X135754Y029458D01*
X135733Y029428D01*
X135715Y029397D01*
X1357Y029368D01*
X135689Y029339D01*
X135681Y02931D01*
X135676Y029282D01*
X135675Y029254D01*
X135254Y029675D01*
X135282Y029676D01*
X13531Y029681D01*
X135339Y029689D01*
X135368Y0297D01*
X135397Y029715D01*
X135428Y029733D01*
X135458Y029754D01*
X13549Y029778D01*
X135522Y029806D01*
X135554Y029837D01*
X135837Y029554D01*
D02*
G37*
G36*
X1264Y031231D02*
X126362Y03123D01*
X126328Y03122D01*
X126298Y031202D01*
X126272Y031174D01*
X12625Y031139D01*
X126232Y031094D01*
X126218Y031041D01*
X126208Y030979D01*
X126202Y030909D01*
X1262Y03083D01*
X1258Y030908D01*
X125806Y031279D01*
X1264Y031231D01*
D02*
G37*
G36*
X126202Y029999D02*
X126207Y02995D01*
X126215Y029902D01*
X126227Y029857D01*
X126242Y029813D01*
X12626Y029772D01*
X126282Y029732D01*
X126307Y029694D01*
X126336Y029659D01*
X126368Y029625D01*
X125632D01*
X125664Y029659D01*
X125693Y029694D01*
X125718Y029732D01*
X12574Y029772D01*
X125758Y029813D01*
X125773Y029857D01*
X125785Y029902D01*
X125793Y02995D01*
X125798Y029999D01*
X1258Y03005D01*
X1262D01*
X126202Y029999D01*
D02*
G37*
G36*
X1219Y031231D02*
X121862Y03123D01*
X121828Y03122D01*
X121798Y031202D01*
X121772Y031174D01*
X12175Y031139D01*
X121732Y031094D01*
X121718Y031041D01*
X121708Y030979D01*
X121702Y030909D01*
X1217Y03083D01*
X1213Y030908D01*
X121306Y031279D01*
X1219Y031231D01*
D02*
G37*
G36*
X120707Y029675D02*
X120672Y029637D01*
X120641Y029599D01*
X120613Y029559D01*
X12059Y029519D01*
X120569Y029477D01*
X120553Y029435D01*
X12054Y029391D01*
X120532Y029347D01*
X120526Y029302D01*
X120525Y029255D01*
X120005Y029775D01*
X120052Y029776D01*
X120097Y029782D01*
X120141Y02979D01*
X120185Y029803D01*
X120227Y029819D01*
X120269Y02984D01*
X120309Y029863D01*
X120349Y029891D01*
X120387Y029922D01*
X120425Y029957D01*
X120707Y029675D01*
D02*
G37*
G36*
X117862Y031233D02*
X117828Y031221D01*
X117798Y0312D01*
X117772Y031172D01*
X11775Y031135D01*
X117732Y03109D01*
X117718Y031037D01*
X117708Y030976D01*
X117702Y030907D01*
X1177Y03083D01*
X1173D01*
X117298Y030907D01*
X117292Y030976D01*
X117282Y031037D01*
X117268Y03109D01*
X11725Y031135D01*
X117228Y031172D01*
X117202Y0312D01*
X117172Y031221D01*
X117138Y031233D01*
X1171Y031237D01*
X1179D01*
X117862Y031233D01*
D02*
G37*
G36*
X117751Y029959D02*
X117827Y029897D01*
X117866Y02987D01*
X117906Y029846D01*
X117947Y029824D01*
X117989Y029804D01*
X118031Y029787D01*
X118075Y029773D01*
X118119Y029761D01*
X117491Y029379D01*
X1175Y029423D01*
X117504Y029465D01*
X117502Y029507D01*
X117497Y029548D01*
X117486Y029589D01*
X11747Y029629D01*
X117449Y029669D01*
X117424Y029708D01*
X117394Y029747D01*
X117359Y029784D01*
X117715Y029994D01*
X117751Y029959D01*
D02*
G37*
%LPC*%
G36*
X147326Y029575D02*
X147174D01*
X147028Y029536D01*
X146897Y02946D01*
X14679Y029353D01*
X146714Y029222D01*
X146675Y029076D01*
Y028924D01*
X146714Y028778D01*
X14679Y028647D01*
X146897Y02854D01*
X147028Y028464D01*
X147174Y028425D01*
X147326D01*
X147472Y028464D01*
X147603Y02854D01*
X14771Y028647D01*
X147786Y028778D01*
X147825Y028924D01*
Y029076D01*
X147786Y029222D01*
X14771Y029353D01*
X147603Y02946D01*
X147472Y029536D01*
X147326Y029575D01*
D02*
G37*
G36*
X14609Y02958D02*
X14541D01*
X145318Y029561D01*
X145241Y029509D01*
X145189Y029432D01*
X14517Y02934D01*
Y02866D01*
X145189Y028568D01*
X145241Y028491D01*
X145318Y028439D01*
X14541Y02842D01*
X14609D01*
X146182Y028439D01*
X146259Y028491D01*
X146311Y028568D01*
X14633Y02866D01*
Y02934D01*
X146311Y029432D01*
X146259Y029509D01*
X146182Y029561D01*
X14609Y02958D01*
D02*
G37*
%LPD*%
D14*
X13735Y05255D02*
X14245D01*
X1333Y0479D02*
Y0485D01*
X13735Y05255D01*
X14245D02*
X1435Y0515D01*
X14005Y0513D02*
X1413Y05005D01*
X1386Y0513D02*
X14005D01*
X138Y0519D02*
X1386Y0513D01*
X13755Y05175D02*
Y05215D01*
X1382Y0511D02*
X1399D01*
X13755Y05175D02*
X1382Y0511D01*
X14335Y0411D02*
X14425D01*
X14875Y0366D02*
X14875D01*
X14425Y0411D02*
X14875Y0366D01*
X1399Y0511D02*
X1415Y0495D01*
X1413Y05005D02*
X141944D01*
X142497Y049497D01*
X1448Y0508D02*
X1455Y0515D01*
X14135Y05075D02*
X141388Y050788D01*
X141497D01*
X141509Y0508D01*
X1448D01*
X14665Y0563D02*
X1485Y05815D01*
X14665Y055D02*
Y0563D01*
X1427Y0474D02*
X1441Y0488D01*
X14035Y04745D02*
X140388Y047412D01*
X140509Y0474D02*
X1427D01*
X140388Y047412D02*
X140497D01*
X140509Y0474D01*
X1448Y0488D02*
X1455Y0495D01*
X1441Y0488D02*
X1448D01*
X1408Y04775D02*
X14275D01*
X1445Y0495D01*
X14055Y04095D02*
X1425Y039D01*
X14055Y042546D02*
X14075Y042746D01*
X14055Y04095D02*
Y042546D01*
X14075Y042746D02*
Y0428D01*
X13875Y0395D02*
X14035Y0411D01*
Y0432D01*
X14285Y0416D02*
X14335Y0411D01*
D29*
X1435Y03138D02*
D03*
Y03312D02*
D03*
X14Y03138D02*
D03*
Y03312D02*
D03*
X1335Y03113D02*
D03*
Y03287D02*
D03*
X13675Y03113D02*
D03*
Y03287D02*
D03*
X1175Y03163D02*
D03*
Y03337D02*
D03*
X12175Y03163D02*
D03*
Y03337D02*
D03*
X12625Y03163D02*
D03*
Y03337D02*
D03*
X13Y03163D02*
D03*
Y03337D02*
D03*
D69*
X14825Y05175D02*
X14925D01*
X127Y05D02*
X1286Y0516D01*
X13445D01*
X12975Y03995D02*
X1326Y0371D01*
X1297Y04D02*
X12975Y03995D01*
X12645Y04D02*
X1297D01*
X1326Y0371D02*
X1345D01*
X1348D01*
X1354Y0365D01*
X13775D01*
X1404D01*
X14125Y03635D02*
X14465D01*
X14055D02*
X14125D01*
X1404Y0365D02*
X14055Y03635D01*
X12525Y04D02*
X12645D01*
X12075D02*
X12525D01*
X11765D02*
X12075D01*
X11705Y0406D02*
X11765Y04D01*
X12645D02*
Y0455D01*
X127Y04605D01*
Y05D01*
X1365Y03093D02*
X1367Y03113D01*
X13675D01*
X1365Y0305D02*
Y03093D01*
X13525Y02925D02*
X1365Y0305D01*
X13375Y02925D02*
Y03093D01*
X13355Y03113D02*
X13375Y03093D01*
X1335Y03113D02*
X13355D01*
X13525Y02925D02*
X13532D01*
X128D02*
X128981Y030231D01*
X12995Y03163D02*
X13D01*
X128981Y030661D02*
X12995Y03163D01*
X128981Y030231D02*
Y030661D01*
X126Y02925D02*
Y03143D01*
X1262Y03163D02*
X12625D01*
X126Y03143D02*
X1262Y03163D01*
X12Y02925D02*
X1215Y03075D01*
Y03143D01*
X1217Y03163D02*
X12175D01*
X1215Y03143D02*
X1217Y03163D01*
X1175Y029926D02*
X118Y029426D01*
X1175Y029926D02*
Y03163D01*
X118Y02925D02*
Y029426D01*
D70*
X149625Y034075D02*
X1499Y03435D01*
X1473Y03175D02*
X149625Y034075D01*
X1499Y03435D02*
Y03575D01*
X14995Y0358D02*
X15035Y0362D01*
X1499Y03575D02*
X14995Y0358D01*
X14965Y03405D02*
X15085D01*
X15035Y0362D02*
Y0365D01*
X14655Y03175D02*
X1473D01*
X11345Y04095D02*
X1153Y0391D01*
X11345Y04095D02*
Y0462D01*
X127Y03775D02*
X12975D01*
X1257D02*
X127D01*
X1251Y03715D02*
X1257Y03775D01*
X1251Y0343D02*
Y03715D01*
X12975Y03775D02*
X1305Y037D01*
X12595Y03695D02*
X126Y037D01*
X12515Y03695D02*
X12595D01*
X124Y0332D02*
X1251Y0343D01*
X124Y02925D02*
Y0332D01*
X1153Y0391D02*
X12945D01*
X1325Y03605D01*
X13425D01*
X13435D01*
X13775Y03555D02*
X14125D01*
X13485D02*
X13775D01*
X14125D02*
X1444D01*
X14445Y0356D01*
X13435Y03605D02*
X13485Y03555D01*
X14475Y03625D02*
X14525Y03575D01*
X14465Y03635D02*
X14475Y03625D01*
X14525Y03575D02*
X1499D01*
D72*
X14895Y0561D02*
X1493Y05645D01*
X1489Y05605D02*
X14895Y0561D01*
X1493Y05645D02*
Y0608D01*
X1505Y062D01*
X14595Y0608D02*
X1493D01*
X1215Y037D02*
X12265D01*
X117003Y036997D02*
X118097D01*
X11615Y03695D02*
Y03735D01*
Y03445D02*
Y03695D01*
X116197Y036997D01*
X117003D01*
X11615Y03735D02*
X11675Y03795D01*
X12055D01*
X1215Y037D01*
X116Y0343D02*
X11615Y03445D01*
X116Y02925D02*
Y0343D01*
X131966Y035534D02*
X132281D01*
X1305Y037D02*
X131966Y035534D01*
X132281D02*
X1323Y035515D01*
X127Y04605D02*
X12755Y0455D01*
X13135D01*
X1319Y04605D01*
D73*
X115Y04625D02*
X116D01*
X11825Y0655D02*
Y0665D01*
X11625Y0655D02*
Y0665D01*
X13Y03337D02*
Y03425D01*
X12625Y03337D02*
Y03425D01*
X12175Y03337D02*
Y03425D01*
X1175Y03337D02*
Y034D01*
X14Y03312D02*
X1435D01*
X139Y03265D02*
X13932Y03297D01*
X11345Y0462D02*
X115Y04775D01*
X13225Y03167D02*
X13345Y03287D01*
X1335D02*
X13675D01*
X13225Y02925D02*
Y03167D01*
X13345Y03287D02*
X1335D01*
X139Y02925D02*
Y03265D01*
X13932Y03297D02*
X13985D01*
X14Y03312D01*
X142067Y029317D02*
Y029997D01*
X14345Y03138D02*
X1435D01*
X142067Y029997D02*
X14345Y03138D01*
X142Y02925D02*
X142067Y029317D01*
X14005Y03138D02*
X1402Y03123D01*
Y03118D02*
Y03123D01*
Y03118D02*
X1405Y03088D01*
X14Y03138D02*
X14005D01*
X1405Y02925D02*
Y03088D01*
D76*
X11725Y04945D02*
X11795Y04875D01*
X11725Y04945D02*
Y05D01*
X1235Y0533D02*
X14595D01*
X14695Y0523D01*
X1235Y05425D02*
Y05525D01*
X148139Y050361D02*
X14825Y05025D01*
X14695Y0509D02*
X147488Y050361D01*
X1235Y05525D02*
Y05625D01*
X14695Y0509D02*
Y0523D01*
X147488Y050361D02*
X148139D01*
X1235Y0533D02*
Y05425D01*
X1202Y05D02*
X1235Y0533D01*
X11825Y05D02*
X1202D01*
D78*
X12025Y0655D02*
X12225D01*
Y06225D02*
Y0655D01*
D79*
X142497Y038003D02*
D03*
X1425Y037D02*
D03*
X135497Y038503D02*
D03*
X1355Y0375D02*
D03*
X1185Y04175D02*
D03*
X118503Y040747D02*
D03*
X127Y05D02*
D03*
X126Y05D02*
D03*
X127Y051D02*
D03*
X126D02*
D03*
X125D02*
D03*
X142497Y051497D02*
D03*
X1445Y0515D02*
D03*
X1435D02*
D03*
X1455D02*
D03*
X144Y04325D02*
D03*
Y04525D02*
D03*
Y04425D02*
D03*
X143997Y046253D02*
D03*
X144Y04225D02*
D03*
X150003Y041747D02*
D03*
Y042747D02*
D03*
Y043747D02*
D03*
Y045747D02*
D03*
Y044747D02*
D03*
X15Y04675D02*
D03*
X1455Y0495D02*
D03*
X1435D02*
D03*
X1445D02*
D03*
X142497Y049497D02*
D03*
X13225Y04475D02*
D03*
X133253Y044753D02*
D03*
X1225Y05425D02*
D03*
Y05525D02*
D03*
Y05625D02*
D03*
X1235Y05525D02*
D03*
X1235Y05625D02*
D03*
X1285Y0485D02*
D03*
Y0465D02*
D03*
Y0475D02*
D03*
X124247Y036003D02*
D03*
X12425Y035D02*
D03*
X11825Y05D02*
D03*
X11725D02*
D03*
X11625D02*
D03*
X12725Y05475D02*
D03*
X126247Y054747D02*
D03*
X13075Y05475D02*
D03*
X129747Y054747D02*
D03*
X13425Y05475D02*
D03*
X133247Y054747D02*
D03*
X13775Y05475D02*
D03*
X136747Y054747D02*
D03*
X14475Y05475D02*
D03*
X143747Y054747D02*
D03*
X14125Y05475D02*
D03*
X140247Y054747D02*
D03*
X11525Y036D02*
D03*
X115253Y034997D02*
D03*
X119747Y036003D02*
D03*
X11975Y035D02*
D03*
X132003Y038747D02*
D03*
X132Y03975D02*
D03*
X13875Y0375D02*
D03*
X138747Y038503D02*
D03*
X114753Y040997D02*
D03*
X11475Y042D02*
D03*
X123003Y040747D02*
D03*
X123Y04175D02*
D03*
X1275Y04075D02*
D03*
X127497Y041753D02*
D03*
X1485Y055D02*
D03*
X149503Y055003D02*
D03*
X128253Y061997D02*
D03*
X12825Y063D02*
D03*
X131753Y061997D02*
D03*
X13175Y063D02*
D03*
X13525D02*
D03*
X135253Y061997D02*
D03*
X117003Y034997D02*
D03*
X117Y036D02*
D03*
X12475Y063D02*
D03*
X124753Y061997D02*
D03*
X1215Y035D02*
D03*
X121497Y036003D02*
D03*
X14225Y063D02*
D03*
X142253Y061997D02*
D03*
X13875Y063D02*
D03*
X138753Y061997D02*
D03*
X126Y035D02*
D03*
X125997Y036003D02*
D03*
X1305Y035D02*
D03*
X130497Y036003D02*
D03*
X12875Y035D02*
D03*
X128747Y036003D02*
D03*
X1475Y0395D02*
D03*
X148503Y039503D02*
D03*
D80*
X1425Y039D02*
D03*
X1355Y0395D02*
D03*
X118503Y042747D02*
D03*
X144Y04725D02*
D03*
X150003Y047747D02*
D03*
X1235Y05425D02*
D03*
X1285Y0495D02*
D03*
X12425Y037D02*
D03*
X115253Y036997D02*
D03*
X11975Y037D02*
D03*
X132003Y040747D02*
D03*
X13875Y0395D02*
D03*
X114753Y042997D02*
D03*
X123003Y042747D02*
D03*
X1275Y04275D02*
D03*
X12825Y061D02*
D03*
X13175D02*
D03*
X13525D02*
D03*
X117003Y036997D02*
D03*
X12475Y061D02*
D03*
X1215Y037D02*
D03*
X14225Y061D02*
D03*
X13875D02*
D03*
X126Y037D02*
D03*
X1305D02*
D03*
X12875D02*
D03*
D81*
X12025Y0655D02*
D03*
X11625D02*
D03*
X11825D02*
D03*
X12Y02925D02*
D03*
X122D02*
D03*
X118D02*
D03*
X128D02*
D03*
X13D02*
D03*
X126D02*
D03*
D82*
X12225Y0655D02*
D03*
X116Y02925D02*
D03*
X124D02*
D03*
D83*
X125Y05D02*
D03*
X1415Y0515D02*
D03*
Y0495D02*
D03*
X131253Y044753D02*
D03*
X11525Y05D02*
D03*
X12525Y05475D02*
D03*
X12875D02*
D03*
X13225D02*
D03*
X13575D02*
D03*
X14275D02*
D03*
X13925D02*
D03*
X147503Y055003D02*
D03*
X1495Y0395D02*
D03*
D84*
X14825Y05175D02*
D03*
X115Y04625D02*
D03*
X14525Y06575D02*
D03*
X12525D02*
D03*
X141D02*
D03*
X1395D02*
D03*
X138D02*
D03*
X1365D02*
D03*
X135D02*
D03*
X1335D02*
D03*
X132D02*
D03*
X1305D02*
D03*
X129D02*
D03*
X13375Y02925D02*
D03*
X13525D02*
D03*
X13675D02*
D03*
X1405D02*
D03*
X142D02*
D03*
X1435D02*
D03*
X14725Y029D02*
D03*
D85*
X14825Y05025D02*
D03*
X115Y04775D02*
D03*
D86*
X12025Y06325D02*
D03*
X12225Y06225D02*
D03*
D87*
X14675Y06575D02*
D03*
X12675D02*
D03*
X1425D02*
D03*
X13225Y02925D02*
D03*
X139D02*
D03*
X14575Y029D02*
D03*
D88*
X1135Y0645D02*
D03*
X14975D02*
D03*
Y03025D02*
D03*
X1135D02*
D03*
D89*
X14465Y06645D02*
D03*
X147761Y066267D02*
D03*
X147511Y064017D02*
D03*
X15Y06D02*
D03*
Y054D02*
D03*
Y053D02*
D03*
Y052D02*
D03*
Y051D02*
D03*
Y05D02*
D03*
Y04D02*
D03*
Y039D02*
D03*
Y033D02*
D03*
Y032D02*
D03*
X149Y062D02*
D03*
Y054D02*
D03*
Y053D02*
D03*
Y052D02*
D03*
Y051D02*
D03*
Y05D02*
D03*
Y039D02*
D03*
Y032D02*
D03*
X148Y06D02*
D03*
Y057D02*
D03*
Y056D02*
D03*
Y053D02*
D03*
Y051D02*
D03*
Y049D02*
D03*
Y038D02*
D03*
Y035D02*
D03*
Y031D02*
D03*
Y029D02*
D03*
X147Y062D02*
D03*
Y06D02*
D03*
Y04D02*
D03*
Y039D02*
D03*
Y034D02*
D03*
Y033D02*
D03*
X146Y066D02*
D03*
Y065D02*
D03*
Y063D02*
D03*
Y062D02*
D03*
Y056D02*
D03*
Y055D02*
D03*
Y054D02*
D03*
Y052D02*
D03*
Y051D02*
D03*
Y05D02*
D03*
Y04D02*
D03*
Y037D02*
D03*
X145Y052D02*
D03*
Y05D02*
D03*
Y039D02*
D03*
X144Y052D02*
D03*
Y05D02*
D03*
Y04D02*
D03*
Y039D02*
D03*
X143Y058D02*
D03*
Y057D02*
D03*
Y05D02*
D03*
Y04D02*
D03*
X142Y058D02*
D03*
Y057D02*
D03*
Y055D02*
D03*
Y047D02*
D03*
Y046D02*
D03*
Y045D02*
D03*
Y044D02*
D03*
Y043D02*
D03*
X141Y047D02*
D03*
Y046D02*
D03*
Y045D02*
D03*
Y044D02*
D03*
Y039D02*
D03*
X14Y058D02*
D03*
Y057D02*
D03*
Y054D02*
D03*
Y052D02*
D03*
Y05D02*
D03*
Y04D02*
D03*
Y039D02*
D03*
X139Y05D02*
D03*
Y045D02*
D03*
Y042D02*
D03*
Y041D02*
D03*
X138Y058D02*
D03*
Y057D02*
D03*
Y056D02*
D03*
Y054D02*
D03*
Y043D02*
D03*
Y042D02*
D03*
Y041D02*
D03*
Y04D02*
D03*
Y039D02*
D03*
X137Y054D02*
D03*
Y048D02*
D03*
Y043D02*
D03*
Y042D02*
D03*
Y041D02*
D03*
Y04D02*
D03*
Y039D02*
D03*
X136Y058D02*
D03*
Y057D02*
D03*
Y048D02*
D03*
Y039D02*
D03*
Y038D02*
D03*
X135Y058D02*
D03*
Y057D02*
D03*
Y055D02*
D03*
Y046D02*
D03*
Y043D02*
D03*
Y042D02*
D03*
Y041D02*
D03*
Y04D02*
D03*
Y039D02*
D03*
Y038D02*
D03*
X134Y051D02*
D03*
Y046D02*
D03*
Y045D02*
D03*
Y042D02*
D03*
Y041D02*
D03*
Y04D02*
D03*
X133Y058D02*
D03*
Y057D02*
D03*
Y049D02*
D03*
Y041D02*
D03*
Y04D02*
D03*
X132Y054D02*
D03*
Y05D02*
D03*
Y047D02*
D03*
Y042D02*
D03*
X131Y058D02*
D03*
Y057D02*
D03*
Y056D02*
D03*
Y054D02*
D03*
Y042D02*
D03*
Y041D02*
D03*
Y04D02*
D03*
X13Y049D02*
D03*
Y048D02*
D03*
Y047D02*
D03*
Y045D02*
D03*
X129Y058D02*
D03*
Y057D02*
D03*
Y051D02*
D03*
Y048D02*
D03*
Y045D02*
D03*
X128Y058D02*
D03*
Y057D02*
D03*
Y055D02*
D03*
Y052D02*
D03*
Y05D02*
D03*
Y049D02*
D03*
Y048D02*
D03*
Y047D02*
D03*
Y046D02*
D03*
Y045D02*
D03*
X127Y052D02*
D03*
Y045D02*
D03*
X126Y058D02*
D03*
Y057D02*
D03*
Y052D02*
D03*
Y048D02*
D03*
Y047D02*
D03*
Y046D02*
D03*
X125Y057D02*
D03*
Y054D02*
D03*
Y052D02*
D03*
Y048D02*
D03*
Y047D02*
D03*
Y046D02*
D03*
Y045D02*
D03*
X124Y058D02*
D03*
Y048D02*
D03*
Y047D02*
D03*
Y046D02*
D03*
Y045D02*
D03*
X123Y057D02*
D03*
Y051D02*
D03*
Y05D02*
D03*
Y048D02*
D03*
Y047D02*
D03*
Y046D02*
D03*
Y045D02*
D03*
X122Y056D02*
D03*
Y055D02*
D03*
Y054D02*
D03*
Y053D02*
D03*
Y045D02*
D03*
Y043D02*
D03*
Y042D02*
D03*
Y041D02*
D03*
X121Y052D02*
D03*
Y045D02*
D03*
Y043D02*
D03*
X12Y049D02*
D03*
Y046D02*
D03*
Y045D02*
D03*
X119Y049D02*
D03*
Y048D02*
D03*
Y046D02*
D03*
Y045D02*
D03*
X118Y047D02*
D03*
Y045D02*
D03*
X117D02*
D03*
X116Y041D02*
D03*
X115Y044D02*
D03*
X137267Y047363D02*
D03*
X1358Y0474D02*
D03*
X135767Y048813D02*
D03*
X137267D02*
D03*
X136517Y047363D02*
D03*
Y048813D02*
D03*
X145267Y029913D02*
D03*
X146517Y028313D02*
D03*
X135767Y043513D02*
D03*
X128717Y040663D02*
D03*
X12585Y0408D02*
D03*
X12405Y0428D02*
D03*
X1394Y044D02*
D03*
X1387Y0466D02*
D03*
X1506Y03465D02*
D03*
X147801Y036584D02*
D03*
X15035Y0365D02*
D03*
X14235Y0332D02*
D03*
X1391Y0328D02*
D03*
X128893Y052545D02*
D03*
X130293Y052445D02*
D03*
X132993Y042245D02*
D03*
X125743Y042745D02*
D03*
X119993Y042995D02*
D03*
X1195Y04065D02*
D03*
X117493Y043245D02*
D03*
X150743Y032995D02*
D03*
X14785Y03015D02*
D03*
X1466D02*
D03*
X148993Y034745D02*
D03*
X15065Y03835D02*
D03*
X148993Y040995D02*
D03*
X141743Y041995D02*
D03*
X14525Y05875D02*
D03*
X14655Y03175D02*
D03*
X14895Y0561D02*
D03*
X1505Y062D02*
D03*
X14595Y0608D02*
D03*
X13445Y0516D02*
D03*
X13755Y05215D02*
D03*
X138Y0519D02*
D03*
X12975Y03995D02*
D03*
X143Y03D02*
D03*
X142Y031D02*
D03*
X127487Y036974D02*
D03*
X118737Y037224D02*
D03*
X119737Y038474D02*
D03*
X117737D02*
D03*
X128496Y038418D02*
D03*
X126144D02*
D03*
X123987Y038474D02*
D03*
X123237Y037724D02*
D03*
X122Y03825D02*
D03*
X144Y03D02*
D03*
X143Y035D02*
D03*
X142D02*
D03*
Y034D02*
D03*
Y032D02*
D03*
X14Y035D02*
D03*
X139D02*
D03*
Y034D02*
D03*
X138Y031D02*
D03*
Y03D02*
D03*
Y029D02*
D03*
X137Y03D02*
D03*
X136Y035D02*
D03*
Y029D02*
D03*
X135Y035D02*
D03*
Y034D02*
D03*
Y032D02*
D03*
Y031D02*
D03*
Y03D02*
D03*
X133Y035D02*
D03*
Y03D02*
D03*
X132Y035D02*
D03*
X131Y034D02*
D03*
Y03D02*
D03*
Y029D02*
D03*
X129D02*
D03*
X128Y035D02*
D03*
Y034D02*
D03*
Y033D02*
D03*
Y032D02*
D03*
X127Y034D02*
D03*
Y031D02*
D03*
X123Y062D02*
D03*
Y035D02*
D03*
Y034D02*
D03*
Y033D02*
D03*
Y032D02*
D03*
Y031D02*
D03*
Y03D02*
D03*
Y029D02*
D03*
X122Y061D02*
D03*
X121Y064D02*
D03*
Y063D02*
D03*
Y062D02*
D03*
Y056D02*
D03*
Y054D02*
D03*
Y029D02*
D03*
X12Y062D02*
D03*
Y059D02*
D03*
Y057D02*
D03*
Y054D02*
D03*
Y053D02*
D03*
X119Y066D02*
D03*
Y065D02*
D03*
Y062D02*
D03*
Y055D02*
D03*
Y054D02*
D03*
Y053D02*
D03*
Y035D02*
D03*
Y034D02*
D03*
Y033D02*
D03*
Y032D02*
D03*
Y031D02*
D03*
X118Y064D02*
D03*
Y062D02*
D03*
Y057D02*
D03*
Y054D02*
D03*
Y053D02*
D03*
X117Y066D02*
D03*
Y065D02*
D03*
Y064D02*
D03*
Y062D02*
D03*
Y056D02*
D03*
Y053D02*
D03*
X116Y064D02*
D03*
Y062D02*
D03*
Y059D02*
D03*
Y056D02*
D03*
Y055D02*
D03*
Y038D02*
D03*
X115Y06D02*
D03*
Y059D02*
D03*
Y056D02*
D03*
Y055D02*
D03*
Y052D02*
D03*
Y051D02*
D03*
Y049D02*
D03*
Y038D02*
D03*
Y033D02*
D03*
Y032D02*
D03*
X114Y061D02*
D03*
Y06D02*
D03*
Y056D02*
D03*
Y055D02*
D03*
Y052D02*
D03*
Y051D02*
D03*
Y05D02*
D03*
Y049D02*
D03*
Y048D02*
D03*
Y039D02*
D03*
Y038D02*
D03*
Y037D02*
D03*
Y035D02*
D03*
Y034D02*
D03*
Y033D02*
D03*
X113Y062D02*
D03*
Y061D02*
D03*
Y06D02*
D03*
Y059D02*
D03*
Y058D02*
D03*
Y057D02*
D03*
Y056D02*
D03*
Y055D02*
D03*
Y054D02*
D03*
Y053D02*
D03*
Y052D02*
D03*
Y051D02*
D03*
Y05D02*
D03*
Y049D02*
D03*
Y048D02*
D03*
Y047D02*
D03*
Y046D02*
D03*
Y045D02*
D03*
Y044D02*
D03*
Y043D02*
D03*
Y042D02*
D03*
Y041D02*
D03*
Y04D02*
D03*
Y039D02*
D03*
Y038D02*
D03*
Y037D02*
D03*
Y036D02*
D03*
Y035D02*
D03*
Y034D02*
D03*
Y033D02*
D03*
X12265Y037D02*
D03*
X118097Y036997D02*
D03*
X1323Y035515D02*
D03*
X127Y03775D02*
D03*
X1323Y0317D02*
D03*
X13565Y03285D02*
D03*
X1345Y0371D02*
D03*
X13425Y03605D02*
D03*
X13775Y03555D02*
D03*
X14125D02*
D03*
X14445Y0356D02*
D03*
X15085Y03405D02*
D03*
X14875Y0366D02*
D03*
X14125Y03635D02*
D03*
X13775Y0365D02*
D03*
X14475Y03625D02*
D03*
X12525Y04D02*
D03*
X12075D02*
D03*
X117Y04065D02*
D03*
X1319Y04605D02*
D03*
X1333Y0479D02*
D03*
X14135Y05075D02*
D03*
X1485Y05815D02*
D03*
X14665Y055D02*
D03*
X14075Y0428D02*
D03*
X14035Y0432D02*
D03*
X1408Y04775D02*
D03*
X14035Y04745D02*
D03*
X14285Y0416D02*
D03*
X11875Y0601D02*
D03*
X11825D02*
D03*
Y0609D02*
D03*
Y0605D02*
D03*
X11875D02*
D03*
Y0609D02*
D03*
M02*
