M48
;Layer_Color=9474304
;FILE_FORMAT=2:4
INCH,LZ
;TYPE=PLATED
T1F00S00C0.0150
T2F00S00C0.0350
T3F00S00C0.0400
T4F00S00C0.0450
T5F00S00C0.0550
T6F00S00C0.1200
%
T01
X143Y03
X144
X145267Y029913
X1466Y03015
X14785
X148Y031
Y029
X146517Y028313
X142Y031
X138
Y03
Y029
X137Y03
X136Y029
X135Y03
Y031
X133Y03
X131
Y029
X129
X127Y031
X123
Y03
Y029
X121
X119Y031
Y032
Y033
Y034
Y035
X118737Y037224
X118097Y036997
X117737Y038474
X119737
X1195Y04065
X12075Y04
X122Y041
Y042
Y043
X121
X119993Y042995
X12Y045
X121
X122
X123
X124
Y046
X123
X12
X119
Y045
X118
X117
X117493Y043245
X117Y04065
X116Y041
Y038
X115
X114
Y039
X113
Y04
Y041
Y042
Y043
Y044
Y045
Y046
X115Y044
X114Y037
X113
Y038
Y036
Y035
X114
Y034
Y033
X115
Y032
X113Y033
Y034
X123
Y035
Y033
Y032
X12265Y037
X123237Y037724
X123987Y038474
X122Y03825
X12405Y0428
X125743Y042745
X12585Y0408
X12525Y04
X126144Y038418
X127Y03775
X127487Y036974
X128496Y038418
X128717Y040663
X12975Y03995
X131Y04
Y041
Y042
X132
X132993Y042245
X134Y042
X135
Y043
X135767Y043513
X137Y043
X138
Y042
X139
Y041
X138
Y04
Y039
X137
Y04
Y041
Y042
X135Y041
Y04
Y039
X136
Y038
X135
X1345Y0371
X13425Y03605
X135Y035
X136
X135Y034
X13565Y03285
X135Y032
X1323Y0317
X132Y035
X1323Y035515
X133Y035
X131Y034
X128
Y035
Y033
Y032
X127Y034
Y045
X128
X129
X13
X1319Y04605
X134Y046
X135
X134Y045
Y041
Y04
X133
Y041
X14Y04
Y039
Y035
X139
Y034
X1391Y0328
X13775Y03555
Y0365
X1394Y044
X139Y045
X1387Y0466
X14035Y0432
X128Y046
X126
X125
Y045
X141
X142
Y046
X141
Y044
X142
Y043
X141743Y041995
X14285Y0416
X143Y04
X144
Y039
X145
X147
Y04
X146
Y037
X14475Y03625
X14445Y0356
X143Y035
X142
Y034
X14235Y0332
X142Y032
X14125Y03555
Y03635
X141Y039
X14075Y0428
X148993Y040995
X15Y04
Y039
X149
X148Y038
X147801Y036584
X14875Y0366
X15035Y0365
X1506Y03465
X15085Y03405
X150743Y032995
X15Y033
Y032
X149
X14655Y03175
X147Y033
Y034
X148Y035
X148993Y034745
X15065Y03835
X15Y05
Y051
Y052
Y053
Y054
X149
Y053
Y052
Y051
Y05
X148Y051
Y053
Y056
Y057
X1485Y05815
X148Y06
X147
X14595Y0608
X146Y062
X147
X149
X1505
X15Y06
X14895Y0561
X146Y056
Y055
X14665
X146Y054
Y052
Y051
Y05
X145
X144
X143
X14135Y05075
X1408Y04775
X141Y047
X142
X144Y052
X145
X148Y049
X142Y055
Y057
X143
Y058
X142
X14525Y05875
X14Y058
Y057
X138
Y058
Y056
Y054
X137
X13755Y05215
X138Y0519
X14Y052
Y054
Y05
X139
X137267Y048813
X136517
X135767
X136Y048
X1358Y0474
X136517Y047363
X137267
X137Y048
X1333Y0479
X133Y049
X132Y05
X134Y051
X13445Y0516
X135Y055
Y057
X136
Y058
X135
X133
Y057
X131
Y058
Y056
Y054
X132
X130293Y052445
X128893Y052545
X128Y052
X127
X126
X125
Y054
Y057
X126
Y058
X128
X129
Y057
X128
Y055
X129Y051
X128Y05
Y049
Y048
X129
X13
Y049
Y047
X132
X128
X126
Y048
X125
Y047
X14035Y04745
X124Y047
Y048
X123
Y047
Y05
Y051
X122Y053
Y054
Y055
Y056
X121
Y054
X12
Y053
X119
Y054
Y055
X118Y054
Y053
X117
Y056
X116
Y055
X115
Y056
X114
Y055
X113
Y056
Y057
Y058
Y059
Y06
X114
X115
Y059
X116
Y062
X117
X118
X119
X12
X121
X123
X122Y061
X11875Y0609
Y0605
Y0601
X11825
Y0605
Y0609
X12Y059
Y057
X118
X123
X124Y058
X121Y052
X12Y049
X119
Y048
X118Y047
X115Y049
X114
Y05
Y051
X115
Y052
X114
X113
Y053
Y054
Y051
Y05
Y049
Y048
X114
X113Y047
Y061
X114
X113Y062
X116Y064
X117
X118
X119Y065
Y066
X117
Y065
X121Y064
Y063
X146
Y065
Y066
X14465Y06645
X147761Y066267
X147511Y064017
T02
X115253Y034997
X11525Y036
X115253Y036997
X117003
X117Y036
X117003Y034997
X11975Y035
X119747Y036003
X11975Y037
X1215
X121497Y036003
X1215Y035
X12425
X124247Y036003
X12425Y037
X123003Y040747
X123Y04175
X123003Y042747
X118503
X1185Y04175
X118503Y040747
X114753Y040997
X11475Y042
X114753Y042997
X1275Y04275
X127497Y041753
X1275Y04075
X132003Y040747
X132Y03975
X132003Y038747
X1305Y037
X130497Y036003
X1305Y035
X12875
X128747Y036003
X12875Y037
X126
X125997Y036003
X126Y035
X1355Y0375
X135497Y038503
X1355Y0395
X13875
X138747Y038503
X13875Y0375
X133253Y044753
X13225Y04475
X131253Y044753
X1285Y0465
X143997Y046253
X144Y04525
Y04425
Y04325
Y04225
X1425Y039
X142497Y038003
X1425Y037
X1475Y0395
X148503Y039503
X1495Y0395
X150003Y041747
Y042747
Y043747
Y044747
Y045747
X15Y04675
X150003Y047747
X1455Y0495
X1445
X1435
X142497Y049497
X1415Y0495
Y0515
X142497Y051497
X1435Y0515
X1445
X1455
X14475Y05475
X143747Y054747
X14275Y05475
X14125
X147503Y055003
X1485Y055
X149503Y055003
X14225Y061
X142253Y061997
X144Y04725
X140247Y054747
X13925Y05475
X13775
X136747Y054747
X13575Y05475
X13425
X133247Y054747
X13225Y05475
X13075
X129747Y054747
X12875Y05475
X12725
X126247Y054747
X12525Y05475
X125Y051
Y05
X126Y05
X126Y051
X127
X127Y05
X1285Y0495
Y0485
Y0475
X12825Y061
X128253Y061997
X131753
X13175Y061
X13525
X135253Y061997
X138753
X13875Y061
X12475
X124753Y061997
X1235Y05625
X1225Y05625
Y05525
Y05425
X1235
X1235Y05525
X11825Y05
X11725
X11625
X11525
X12475Y063
X12825
X13175
X13525
X13875
X14225
T03
X12225Y06225
X12025Y06325
T04
X142Y02925
X1435
X14575Y029
X14725
X1405Y02925
X139
X13675
X13525
X13375
X13225
X115Y04625
X14825Y05025
Y05175
X115Y04775
X12525Y06575
X12675
X129
X1305
X132
X1335
X135
X1365
X138
X1395
X141
X1425
X14525
X14675
T05
X126Y02925
X128
X13
X124
X122
X12
X118
X116
X11625Y0655
X11825
X12025
X12225
T06
X14975Y03025
X1135
Y0645
X14975
M30
