G04*
G04 #@! TF.GenerationSoftware,Altium Limited,Altium Designer,21.3.2 (30)*
G04*
G04 Layer_Color=255*
%FSTAX24Y24*%
%MOIN*%
G70*
G04*
G04 #@! TF.SameCoordinates,920B054E-F007-431E-A758-220852BF9C0E*
G04*
G04*
G04 #@! TF.FilePolarity,Positive*
G04*
G01*
G75*
G04:AMPARAMS|DCode=29|XSize=80mil|YSize=90mil|CornerRadius=8mil|HoleSize=0mil|Usage=FLASHONLY|Rotation=90.000|XOffset=0mil|YOffset=0mil|HoleType=Round|Shape=RoundedRectangle|*
%AMROUNDEDRECTD29*
21,1,0.0800,0.0740,0,0,90.0*
21,1,0.0640,0.0900,0,0,90.0*
1,1,0.0160,0.0370,0.0320*
1,1,0.0160,0.0370,-0.0320*
1,1,0.0160,-0.0370,-0.0320*
1,1,0.0160,-0.0370,0.0320*
%
%ADD29ROUNDEDRECTD29*%
%ADD79C,0.0600*%
G04:AMPARAMS|DCode=80|XSize=60mil|YSize=60mil|CornerRadius=6mil|HoleSize=0mil|Usage=FLASHONLY|Rotation=270.000|XOffset=0mil|YOffset=0mil|HoleType=Round|Shape=RoundedRectangle|*
%AMROUNDEDRECTD80*
21,1,0.0600,0.0480,0,0,270.0*
21,1,0.0480,0.0600,0,0,270.0*
1,1,0.0120,-0.0240,-0.0240*
1,1,0.0120,-0.0240,0.0240*
1,1,0.0120,0.0240,0.0240*
1,1,0.0120,0.0240,-0.0240*
%
%ADD80ROUNDEDRECTD80*%
%ADD81C,0.1050*%
G04:AMPARAMS|DCode=82|XSize=105mil|YSize=105mil|CornerRadius=10.5mil|HoleSize=0mil|Usage=FLASHONLY|Rotation=180.000|XOffset=0mil|YOffset=0mil|HoleType=Round|Shape=RoundedRectangle|*
%AMROUNDEDRECTD82*
21,1,0.1050,0.0840,0,0,180.0*
21,1,0.0840,0.1050,0,0,180.0*
1,1,0.0210,-0.0420,0.0420*
1,1,0.0210,0.0420,0.0420*
1,1,0.0210,0.0420,-0.0420*
1,1,0.0210,-0.0420,-0.0420*
%
%ADD82ROUNDEDRECTD82*%
G04:AMPARAMS|DCode=83|XSize=60mil|YSize=60mil|CornerRadius=6mil|HoleSize=0mil|Usage=FLASHONLY|Rotation=0.000|XOffset=0mil|YOffset=0mil|HoleType=Round|Shape=RoundedRectangle|*
%AMROUNDEDRECTD83*
21,1,0.0600,0.0480,0,0,0.0*
21,1,0.0480,0.0600,0,0,0.0*
1,1,0.0120,0.0240,-0.0240*
1,1,0.0120,-0.0240,-0.0240*
1,1,0.0120,-0.0240,0.0240*
1,1,0.0120,0.0240,0.0240*
%
%ADD83ROUNDEDRECTD83*%
%ADD84C,0.0850*%
G04:AMPARAMS|DCode=85|XSize=85mil|YSize=85mil|CornerRadius=8.5mil|HoleSize=0mil|Usage=FLASHONLY|Rotation=90.000|XOffset=0mil|YOffset=0mil|HoleType=Round|Shape=RoundedRectangle|*
%AMROUNDEDRECTD85*
21,1,0.0850,0.0680,0,0,90.0*
21,1,0.0680,0.0850,0,0,90.0*
1,1,0.0170,0.0340,0.0340*
1,1,0.0170,0.0340,-0.0340*
1,1,0.0170,-0.0340,-0.0340*
1,1,0.0170,-0.0340,0.0340*
%
%ADD85ROUNDEDRECTD85*%
%ADD86C,0.0750*%
G04:AMPARAMS|DCode=87|XSize=85mil|YSize=85mil|CornerRadius=8.5mil|HoleSize=0mil|Usage=FLASHONLY|Rotation=180.000|XOffset=0mil|YOffset=0mil|HoleType=Round|Shape=RoundedRectangle|*
%AMROUNDEDRECTD87*
21,1,0.0850,0.0680,0,0,180.0*
21,1,0.0680,0.0850,0,0,180.0*
1,1,0.0170,-0.0340,0.0340*
1,1,0.0170,0.0340,0.0340*
1,1,0.0170,0.0340,-0.0340*
1,1,0.0170,-0.0340,-0.0340*
%
%ADD87ROUNDEDRECTD87*%
%ADD88C,0.1200*%
D29*
X1435Y03138D02*
D03*
Y03312D02*
D03*
X14Y03138D02*
D03*
Y03312D02*
D03*
X1335Y03113D02*
D03*
Y03287D02*
D03*
X13675Y03113D02*
D03*
Y03287D02*
D03*
X1175Y03163D02*
D03*
Y03337D02*
D03*
X12175Y03163D02*
D03*
Y03337D02*
D03*
X12625Y03163D02*
D03*
Y03337D02*
D03*
X13Y03163D02*
D03*
Y03337D02*
D03*
D79*
X142497Y038003D02*
D03*
X1425Y037D02*
D03*
X135497Y038503D02*
D03*
X1355Y0375D02*
D03*
X1185Y04175D02*
D03*
X118503Y040747D02*
D03*
X127Y05D02*
D03*
X126Y05D02*
D03*
X127Y051D02*
D03*
X126D02*
D03*
X125D02*
D03*
X142497Y051497D02*
D03*
X1445Y0515D02*
D03*
X1435D02*
D03*
X1455D02*
D03*
X144Y04325D02*
D03*
Y04525D02*
D03*
Y04425D02*
D03*
X143997Y046253D02*
D03*
X144Y04225D02*
D03*
X150003Y041747D02*
D03*
Y042747D02*
D03*
Y043747D02*
D03*
Y045747D02*
D03*
Y044747D02*
D03*
X15Y04675D02*
D03*
X1455Y0495D02*
D03*
X1435D02*
D03*
X1445D02*
D03*
X142497Y049497D02*
D03*
X13225Y04475D02*
D03*
X133253Y044753D02*
D03*
X1225Y05425D02*
D03*
Y05525D02*
D03*
Y05625D02*
D03*
X1235Y05525D02*
D03*
X1235Y05625D02*
D03*
X1285Y0485D02*
D03*
Y0465D02*
D03*
Y0475D02*
D03*
X124247Y036003D02*
D03*
X12425Y035D02*
D03*
X11825Y05D02*
D03*
X11725D02*
D03*
X11625D02*
D03*
X12725Y05475D02*
D03*
X126247Y054747D02*
D03*
X13075Y05475D02*
D03*
X129747Y054747D02*
D03*
X13425Y05475D02*
D03*
X133247Y054747D02*
D03*
X13775Y05475D02*
D03*
X136747Y054747D02*
D03*
X14475Y05475D02*
D03*
X143747Y054747D02*
D03*
X14125Y05475D02*
D03*
X140247Y054747D02*
D03*
X11525Y036D02*
D03*
X115253Y034997D02*
D03*
X119747Y036003D02*
D03*
X11975Y035D02*
D03*
X132003Y038747D02*
D03*
X132Y03975D02*
D03*
X13875Y0375D02*
D03*
X138747Y038503D02*
D03*
X114753Y040997D02*
D03*
X11475Y042D02*
D03*
X123003Y040747D02*
D03*
X123Y04175D02*
D03*
X1275Y04075D02*
D03*
X127497Y041753D02*
D03*
X1485Y055D02*
D03*
X149503Y055003D02*
D03*
X128253Y061997D02*
D03*
X12825Y063D02*
D03*
X131753Y061997D02*
D03*
X13175Y063D02*
D03*
X13525D02*
D03*
X135253Y061997D02*
D03*
X117003Y034997D02*
D03*
X117Y036D02*
D03*
X12475Y063D02*
D03*
X124753Y061997D02*
D03*
X1215Y035D02*
D03*
X121497Y036003D02*
D03*
X14225Y063D02*
D03*
X142253Y061997D02*
D03*
X13875Y063D02*
D03*
X138753Y061997D02*
D03*
X126Y035D02*
D03*
X125997Y036003D02*
D03*
X1305Y035D02*
D03*
X130497Y036003D02*
D03*
X12875Y035D02*
D03*
X128747Y036003D02*
D03*
X1475Y0395D02*
D03*
X148503Y039503D02*
D03*
D80*
X1425Y039D02*
D03*
X1355Y0395D02*
D03*
X118503Y042747D02*
D03*
X144Y04725D02*
D03*
X150003Y047747D02*
D03*
X1235Y05425D02*
D03*
X1285Y0495D02*
D03*
X12425Y037D02*
D03*
X115253Y036997D02*
D03*
X11975Y037D02*
D03*
X132003Y040747D02*
D03*
X13875Y0395D02*
D03*
X114753Y042997D02*
D03*
X123003Y042747D02*
D03*
X1275Y04275D02*
D03*
X12825Y061D02*
D03*
X13175D02*
D03*
X13525D02*
D03*
X117003Y036997D02*
D03*
X12475Y061D02*
D03*
X1215Y037D02*
D03*
X14225Y061D02*
D03*
X13875D02*
D03*
X126Y037D02*
D03*
X1305D02*
D03*
X12875D02*
D03*
D81*
X12025Y0655D02*
D03*
X11625D02*
D03*
X11825D02*
D03*
X12Y02925D02*
D03*
X122D02*
D03*
X118D02*
D03*
X128D02*
D03*
X13D02*
D03*
X126D02*
D03*
D82*
X12225Y0655D02*
D03*
X116Y02925D02*
D03*
X124D02*
D03*
D83*
X125Y05D02*
D03*
X1415Y0515D02*
D03*
Y0495D02*
D03*
X131253Y044753D02*
D03*
X11525Y05D02*
D03*
X12525Y05475D02*
D03*
X12875D02*
D03*
X13225D02*
D03*
X13575D02*
D03*
X14275D02*
D03*
X13925D02*
D03*
X147503Y055003D02*
D03*
X1495Y0395D02*
D03*
D84*
X14825Y05175D02*
D03*
X115Y04625D02*
D03*
X14525Y06575D02*
D03*
X12525D02*
D03*
X141D02*
D03*
X1395D02*
D03*
X138D02*
D03*
X1365D02*
D03*
X135D02*
D03*
X1335D02*
D03*
X132D02*
D03*
X1305D02*
D03*
X129D02*
D03*
X13375Y02925D02*
D03*
X13525D02*
D03*
X13675D02*
D03*
X1405D02*
D03*
X142D02*
D03*
X1435D02*
D03*
X14725Y029D02*
D03*
D85*
X14825Y05025D02*
D03*
X115Y04775D02*
D03*
D86*
X12025Y06325D02*
D03*
X12225Y06225D02*
D03*
D87*
X14675Y06575D02*
D03*
X12675D02*
D03*
X1425D02*
D03*
X13225Y02925D02*
D03*
X139D02*
D03*
X14575Y029D02*
D03*
D88*
X1135Y0645D02*
D03*
X14975D02*
D03*
Y03025D02*
D03*
X1135D02*
D03*
M02*
