G04*
G04 #@! TF.GenerationSoftware,Altium Limited,Altium Designer,21.3.2 (30)*
G04*
G04 Layer_Color=128*
%FSTAX24Y24*%
%MOIN*%
G70*
G04*
G04 #@! TF.SameCoordinates,920B054E-F007-431E-A758-220852BF9C0E*
G04*
G04*
G04 #@! TF.FilePolarity,Positive*
G04*
G01*
G75*
%ADD90C,0.0020*%
D90*
X142322Y038003D02*
X142672D01*
X142497Y037828D02*
Y038178D01*
X142325Y037D02*
X142675D01*
X1425Y036825D02*
Y037175D01*
X142325Y039D02*
X142675D01*
X1425Y038825D02*
Y039175D01*
X135322Y038503D02*
X135672D01*
X135497Y038328D02*
Y038678D01*
X135325Y0375D02*
X135675D01*
X1355Y037325D02*
Y037675D01*
X135325Y0395D02*
X135675D01*
X1355Y039325D02*
Y039675D01*
X118325Y04175D02*
X118675D01*
X1185Y041575D02*
Y041925D01*
X118328Y040747D02*
X118678D01*
X118503Y040572D02*
Y040922D01*
X118328Y042747D02*
X118678D01*
X118503Y042572D02*
Y042922D01*
X119975Y0655D02*
X120525D01*
X12025Y065225D02*
Y065775D01*
X121975Y0655D02*
X122525D01*
X12225Y065225D02*
Y065775D01*
X115975Y0655D02*
X116525D01*
X11625Y065225D02*
Y065775D01*
X117975Y0655D02*
X118525D01*
X11825Y065225D02*
Y065775D01*
X124825Y05D02*
X125175D01*
X125Y049825D02*
Y050175D01*
X126825Y05D02*
X127175D01*
X127Y049825D02*
Y050175D01*
X125825Y05D02*
X126175D01*
X126Y049825D02*
Y050175D01*
X126825Y051D02*
X127175D01*
X127Y050825D02*
Y051175D01*
X125825Y051D02*
X126175D01*
X126Y050825D02*
Y051175D01*
X124825Y051D02*
X125175D01*
X125Y050825D02*
Y051175D01*
X142322Y051497D02*
X142672D01*
X142497Y051322D02*
Y051672D01*
X144325Y0515D02*
X144675D01*
X1445Y051325D02*
Y051675D01*
X143325Y0515D02*
X143675D01*
X1435Y051325D02*
Y051675D01*
X145325Y0515D02*
X145675D01*
X1455Y051325D02*
Y051675D01*
X141325Y0515D02*
X141675D01*
X1415Y051325D02*
Y051675D01*
X143825Y04725D02*
X144175D01*
X144Y047075D02*
Y047425D01*
X143825Y04325D02*
X144175D01*
X144Y043075D02*
Y043425D01*
X143825Y04525D02*
X144175D01*
X144Y045075D02*
Y045425D01*
X143825Y04425D02*
X144175D01*
X144Y044075D02*
Y044425D01*
X143822Y046253D02*
X144172D01*
X143997Y046078D02*
Y046428D01*
X143825Y04225D02*
X144175D01*
X144Y042075D02*
Y042425D01*
X149828Y041747D02*
X150178D01*
X150003Y041572D02*
Y041922D01*
X149828Y042747D02*
X150178D01*
X150003Y042572D02*
Y042922D01*
X149828Y047747D02*
X150178D01*
X150003Y047572D02*
Y047922D01*
X149828Y043747D02*
X150178D01*
X150003Y043572D02*
Y043922D01*
X149828Y045747D02*
X150178D01*
X150003Y045572D02*
Y045922D01*
X149828Y044747D02*
X150178D01*
X150003Y044572D02*
Y044922D01*
X149825Y04675D02*
X150175D01*
X15Y046575D02*
Y046925D01*
X148025Y05175D02*
X148475D01*
X14825Y051525D02*
Y051975D01*
X148025Y05025D02*
X148475D01*
X14825Y050025D02*
Y050475D01*
X141325Y0495D02*
X141675D01*
X1415Y049325D02*
Y049675D01*
X145325Y0495D02*
X145675D01*
X1455Y049325D02*
Y049675D01*
X143325Y0495D02*
X143675D01*
X1435Y049325D02*
Y049675D01*
X144325Y0495D02*
X144675D01*
X1445Y049325D02*
Y049675D01*
X142322Y049497D02*
X142672D01*
X142497Y049322D02*
Y049672D01*
X132075Y04475D02*
X132425D01*
X13225Y044575D02*
Y044925D01*
X133078Y044753D02*
X133428D01*
X133253Y044578D02*
Y044928D01*
X131078Y044753D02*
X131428D01*
X131253Y044578D02*
Y044928D01*
X122325Y05425D02*
X122675D01*
X1225Y054075D02*
Y054425D01*
X122325Y05525D02*
X122675D01*
X1225Y055075D02*
Y055425D01*
X122325Y05625D02*
X122675D01*
X1225Y056075D02*
Y056425D01*
X123325Y05525D02*
X123675D01*
X1235Y055075D02*
Y055425D01*
X123325Y05625D02*
X123675D01*
X1235Y056075D02*
Y056425D01*
X123325Y05425D02*
X123675D01*
X1235Y054075D02*
Y054425D01*
X128325Y0485D02*
X128675D01*
X1285Y048325D02*
Y048675D01*
X128325Y0465D02*
X128675D01*
X1285Y046325D02*
Y046675D01*
X128325Y0475D02*
X128675D01*
X1285Y047325D02*
Y047675D01*
X128325Y0495D02*
X128675D01*
X1285Y049325D02*
Y049675D01*
X124072Y036003D02*
X124422D01*
X124247Y035828D02*
Y036178D01*
X124075Y035D02*
X124425D01*
X12425Y034825D02*
Y035175D01*
X124075Y037D02*
X124425D01*
X12425Y036825D02*
Y037175D01*
X118075Y05D02*
X118425D01*
X11825Y049825D02*
Y050175D01*
X117075Y05D02*
X117425D01*
X11725Y049825D02*
Y050175D01*
X116075Y05D02*
X116425D01*
X11625Y049825D02*
Y050175D01*
X115075Y05D02*
X115425D01*
X11525Y049825D02*
Y050175D01*
X125075Y05475D02*
X125425D01*
X12525Y054575D02*
Y054925D01*
X127075Y05475D02*
X127425D01*
X12725Y054575D02*
Y054925D01*
X126072Y054747D02*
X126422D01*
X126247Y054572D02*
Y054922D01*
X128575Y05475D02*
X128925D01*
X12875Y054575D02*
Y054925D01*
X130575Y05475D02*
X130925D01*
X13075Y054575D02*
Y054925D01*
X129572Y054747D02*
X129922D01*
X129747Y054572D02*
Y054922D01*
X132075Y05475D02*
X132425D01*
X13225Y054575D02*
Y054925D01*
X134075Y05475D02*
X134425D01*
X13425Y054575D02*
Y054925D01*
X133072Y054747D02*
X133422D01*
X133247Y054572D02*
Y054922D01*
X135575Y05475D02*
X135925D01*
X13575Y054575D02*
Y054925D01*
X137575Y05475D02*
X137925D01*
X13775Y054575D02*
Y054925D01*
X136572Y054747D02*
X136922D01*
X136747Y054572D02*
Y054922D01*
X142575Y05475D02*
X142925D01*
X14275Y054575D02*
Y054925D01*
X144575Y05475D02*
X144925D01*
X14475Y054575D02*
Y054925D01*
X143572Y054747D02*
X143922D01*
X143747Y054572D02*
Y054922D01*
X139075Y05475D02*
X139425D01*
X13925Y054575D02*
Y054925D01*
X141075Y05475D02*
X141425D01*
X14125Y054575D02*
Y054925D01*
X140072Y054747D02*
X140422D01*
X140247Y054572D02*
Y054922D01*
X114775Y04775D02*
X115225D01*
X115Y047525D02*
Y047975D01*
X114775Y04625D02*
X115225D01*
X115Y046025D02*
Y046475D01*
X115075Y036D02*
X115425D01*
X11525Y035825D02*
Y036175D01*
X115078Y034997D02*
X115428D01*
X115253Y034822D02*
Y035172D01*
X115078Y036997D02*
X115428D01*
X115253Y036822D02*
Y037172D01*
X119572Y036003D02*
X119922D01*
X119747Y035828D02*
Y036178D01*
X119575Y035D02*
X119925D01*
X11975Y034825D02*
Y035175D01*
X119575Y037D02*
X119925D01*
X11975Y036825D02*
Y037175D01*
X131828Y040747D02*
X132178D01*
X132003Y040572D02*
Y040922D01*
X131828Y038747D02*
X132178D01*
X132003Y038572D02*
Y038922D01*
X131825Y03975D02*
X132175D01*
X132Y039575D02*
Y039925D01*
X138575Y0395D02*
X138925D01*
X13875Y039325D02*
Y039675D01*
X138575Y0375D02*
X138925D01*
X13875Y037325D02*
Y037675D01*
X138572Y038503D02*
X138922D01*
X138747Y038328D02*
Y038678D01*
X114578Y042997D02*
X114928D01*
X114753Y042822D02*
Y043172D01*
X114578Y040997D02*
X114928D01*
X114753Y040822D02*
Y041172D01*
X114575Y042D02*
X114925D01*
X11475Y041825D02*
Y042175D01*
X122828Y042747D02*
X123178D01*
X123003Y042572D02*
Y042922D01*
X122828Y040747D02*
X123178D01*
X123003Y040572D02*
Y040922D01*
X122825Y04175D02*
X123175D01*
X123Y041575D02*
Y041925D01*
X127325Y04275D02*
X127675D01*
X1275Y042575D02*
Y042925D01*
X127325Y04075D02*
X127675D01*
X1275Y040575D02*
Y040925D01*
X127322Y041753D02*
X127672D01*
X127497Y041578D02*
Y041928D01*
X148325Y055D02*
X148675D01*
X1485Y054825D02*
Y055175D01*
X149328Y055003D02*
X149678D01*
X149503Y054828D02*
Y055178D01*
X147328Y055003D02*
X147678D01*
X147503Y054828D02*
Y055178D01*
X12005Y06325D02*
X12045D01*
X12025Y06305D02*
Y06345D01*
X12205Y06225D02*
X12245D01*
X12225Y06205D02*
Y06245D01*
X146525Y06575D02*
X146975D01*
X14675Y065525D02*
Y065975D01*
X145025Y06575D02*
X145475D01*
X14525Y065525D02*
Y065975D01*
X126525Y06575D02*
X126975D01*
X12675Y065525D02*
Y065975D01*
X125025Y06575D02*
X125475D01*
X12525Y065525D02*
Y065975D01*
X142275Y06575D02*
X142725D01*
X1425Y065525D02*
Y065975D01*
X140775Y06575D02*
X141225D01*
X141Y065525D02*
Y065975D01*
X139275Y06575D02*
X139725D01*
X1395Y065525D02*
Y065975D01*
X137775Y06575D02*
X138225D01*
X138Y065525D02*
Y065975D01*
X136275Y06575D02*
X136725D01*
X1365Y065525D02*
Y065975D01*
X134775Y06575D02*
X135225D01*
X135Y065525D02*
Y065975D01*
X133275Y06575D02*
X133725D01*
X1335Y065525D02*
Y065975D01*
X131775Y06575D02*
X132225D01*
X132Y065525D02*
Y065975D01*
X130275Y06575D02*
X130725D01*
X1305Y065525D02*
Y065975D01*
X128775Y06575D02*
X129225D01*
X129Y065525D02*
Y065975D01*
X128078Y061997D02*
X128428D01*
X128253Y061822D02*
Y062172D01*
X128075Y063D02*
X128425D01*
X12825Y062825D02*
Y063175D01*
X128075Y061D02*
X128425D01*
X12825Y060825D02*
Y061175D01*
X131578Y061997D02*
X131928D01*
X131753Y061822D02*
Y062172D01*
X131575Y063D02*
X131925D01*
X13175Y062825D02*
Y063175D01*
X131575Y061D02*
X131925D01*
X13175Y060825D02*
Y061175D01*
X135075Y061D02*
X135425D01*
X13525Y060825D02*
Y061175D01*
X135075Y063D02*
X135425D01*
X13525Y062825D02*
Y063175D01*
X135078Y061997D02*
X135428D01*
X135253Y061822D02*
Y062172D01*
X132025Y02925D02*
X132475D01*
X13225Y029025D02*
Y029475D01*
X133525Y02925D02*
X133975D01*
X13375Y029025D02*
Y029475D01*
X135025Y02925D02*
X135475D01*
X13525Y029025D02*
Y029475D01*
X136525Y02925D02*
X136975D01*
X13675Y029025D02*
Y029475D01*
X138775Y02925D02*
X139225D01*
X139Y029025D02*
Y029475D01*
X140275Y02925D02*
X140725D01*
X1405Y029025D02*
Y029475D01*
X141775Y02925D02*
X142225D01*
X142Y029025D02*
Y029475D01*
X143275Y02925D02*
X143725D01*
X1435Y029025D02*
Y029475D01*
X145525Y029D02*
X145975D01*
X14575Y028775D02*
Y029225D01*
X147025Y029D02*
X147475D01*
X14725Y028775D02*
Y029225D01*
X116828Y036997D02*
X117178D01*
X117003Y036822D02*
Y037172D01*
X116828Y034997D02*
X117178D01*
X117003Y034822D02*
Y035172D01*
X116825Y036D02*
X117175D01*
X117Y035825D02*
Y036175D01*
X124575Y061D02*
X124925D01*
X12475Y060825D02*
Y061175D01*
X124575Y063D02*
X124925D01*
X12475Y062825D02*
Y063175D01*
X124578Y061997D02*
X124928D01*
X124753Y061822D02*
Y062172D01*
X121325Y037D02*
X121675D01*
X1215Y036825D02*
Y037175D01*
X121325Y035D02*
X121675D01*
X1215Y034825D02*
Y035175D01*
X121322Y036003D02*
X121672D01*
X121497Y035828D02*
Y036178D01*
X142075Y061D02*
X142425D01*
X14225Y060825D02*
Y061175D01*
X142075Y063D02*
X142425D01*
X14225Y062825D02*
Y063175D01*
X142078Y061997D02*
X142428D01*
X142253Y061822D02*
Y062172D01*
X138575Y061D02*
X138925D01*
X13875Y060825D02*
Y061175D01*
X138575Y063D02*
X138925D01*
X13875Y062825D02*
Y063175D01*
X138578Y061997D02*
X138928D01*
X138753Y061822D02*
Y062172D01*
X125825Y037D02*
X126175D01*
X126Y036825D02*
Y037175D01*
X125825Y035D02*
X126175D01*
X126Y034825D02*
Y035175D01*
X125822Y036003D02*
X126172D01*
X125997Y035828D02*
Y036178D01*
X130325Y037D02*
X130675D01*
X1305Y036825D02*
Y037175D01*
X130325Y035D02*
X130675D01*
X1305Y034825D02*
Y035175D01*
X130322Y036003D02*
X130672D01*
X130497Y035828D02*
Y036178D01*
X128575Y037D02*
X128925D01*
X12875Y036825D02*
Y037175D01*
X128575Y035D02*
X128925D01*
X12875Y034825D02*
Y035175D01*
X128572Y036003D02*
X128922D01*
X128747Y035828D02*
Y036178D01*
X149325Y0395D02*
X149675D01*
X1495Y039325D02*
Y039675D01*
X147325Y0395D02*
X147675D01*
X1475Y039325D02*
Y039675D01*
X148328Y039503D02*
X148678D01*
X148503Y039328D02*
Y039678D01*
X119725Y02925D02*
X120275D01*
X12Y028975D02*
Y029525D01*
X121725Y02925D02*
X122275D01*
X122Y028975D02*
Y029525D01*
X115725Y02925D02*
X116275D01*
X116Y028975D02*
Y029525D01*
X117725Y02925D02*
X118275D01*
X118Y028975D02*
Y029525D01*
X127725Y02925D02*
X128275D01*
X128Y028975D02*
Y029525D01*
X129725Y02925D02*
X130275D01*
X13Y028975D02*
Y029525D01*
X123725Y02925D02*
X124275D01*
X124Y028975D02*
Y029525D01*
X125725Y02925D02*
X126275D01*
X126Y028975D02*
Y029525D01*
X1129Y0645D02*
X1141D01*
X1135Y0639D02*
Y0651D01*
X14915Y0645D02*
X15035D01*
X14975Y0639D02*
Y0651D01*
X14915Y03025D02*
X15035D01*
X14975Y02965D02*
Y03085D01*
X1129Y03025D02*
X1141D01*
X1135Y02965D02*
Y03085D01*
X144575Y06645D02*
X144725D01*
X14465Y066375D02*
Y066525D01*
X147686Y066267D02*
X147836D01*
X147761Y066192D02*
Y066342D01*
X147436Y064017D02*
X147586D01*
X147511Y063942D02*
Y064092D01*
X149925Y06D02*
X150075D01*
X15Y059925D02*
Y060075D01*
X149925Y054D02*
X150075D01*
X15Y053925D02*
Y054075D01*
X149925Y053D02*
X150075D01*
X15Y052925D02*
Y053075D01*
X149925Y052D02*
X150075D01*
X15Y051925D02*
Y052075D01*
X149925Y051D02*
X150075D01*
X15Y050925D02*
Y051075D01*
X149925Y05D02*
X150075D01*
X15Y049925D02*
Y050075D01*
X149925Y04D02*
X150075D01*
X15Y039925D02*
Y040075D01*
X149925Y039D02*
X150075D01*
X15Y038925D02*
Y039075D01*
X149925Y033D02*
X150075D01*
X15Y032925D02*
Y033075D01*
X149925Y032D02*
X150075D01*
X15Y031925D02*
Y032075D01*
X148925Y062D02*
X149075D01*
X149Y061925D02*
Y062075D01*
X148925Y054D02*
X149075D01*
X149Y053925D02*
Y054075D01*
X148925Y053D02*
X149075D01*
X149Y052925D02*
Y053075D01*
X148925Y052D02*
X149075D01*
X149Y051925D02*
Y052075D01*
X148925Y051D02*
X149075D01*
X149Y050925D02*
Y051075D01*
X148925Y05D02*
X149075D01*
X149Y049925D02*
Y050075D01*
X148925Y039D02*
X149075D01*
X149Y038925D02*
Y039075D01*
X148925Y032D02*
X149075D01*
X149Y031925D02*
Y032075D01*
X147925Y06D02*
X148075D01*
X148Y059925D02*
Y060075D01*
X147925Y057D02*
X148075D01*
X148Y056925D02*
Y057075D01*
X147925Y056D02*
X148075D01*
X148Y055925D02*
Y056075D01*
X147925Y053D02*
X148075D01*
X148Y052925D02*
Y053075D01*
X147925Y051D02*
X148075D01*
X148Y050925D02*
Y051075D01*
X147925Y049D02*
X148075D01*
X148Y048925D02*
Y049075D01*
X147925Y038D02*
X148075D01*
X148Y037925D02*
Y038075D01*
X147925Y035D02*
X148075D01*
X148Y034925D02*
Y035075D01*
X147925Y031D02*
X148075D01*
X148Y030925D02*
Y031075D01*
X147925Y029D02*
X148075D01*
X148Y028925D02*
Y029075D01*
X146925Y062D02*
X147075D01*
X147Y061925D02*
Y062075D01*
X146925Y06D02*
X147075D01*
X147Y059925D02*
Y060075D01*
X146925Y04D02*
X147075D01*
X147Y039925D02*
Y040075D01*
X146925Y039D02*
X147075D01*
X147Y038925D02*
Y039075D01*
X146925Y034D02*
X147075D01*
X147Y033925D02*
Y034075D01*
X146925Y033D02*
X147075D01*
X147Y032925D02*
Y033075D01*
X145925Y066D02*
X146075D01*
X146Y065925D02*
Y066075D01*
X145925Y065D02*
X146075D01*
X146Y064925D02*
Y065075D01*
X145925Y063D02*
X146075D01*
X146Y062925D02*
Y063075D01*
X145925Y062D02*
X146075D01*
X146Y061925D02*
Y062075D01*
X145925Y056D02*
X146075D01*
X146Y055925D02*
Y056075D01*
X145925Y055D02*
X146075D01*
X146Y054925D02*
Y055075D01*
X145925Y054D02*
X146075D01*
X146Y053925D02*
Y054075D01*
X145925Y052D02*
X146075D01*
X146Y051925D02*
Y052075D01*
X145925Y051D02*
X146075D01*
X146Y050925D02*
Y051075D01*
X145925Y05D02*
X146075D01*
X146Y049925D02*
Y050075D01*
X145925Y04D02*
X146075D01*
X146Y039925D02*
Y040075D01*
X145925Y037D02*
X146075D01*
X146Y036925D02*
Y037075D01*
X144925Y052D02*
X145075D01*
X145Y051925D02*
Y052075D01*
X144925Y05D02*
X145075D01*
X145Y049925D02*
Y050075D01*
X144925Y039D02*
X145075D01*
X145Y038925D02*
Y039075D01*
X143925Y052D02*
X144075D01*
X144Y051925D02*
Y052075D01*
X143925Y05D02*
X144075D01*
X144Y049925D02*
Y050075D01*
X143925Y04D02*
X144075D01*
X144Y039925D02*
Y040075D01*
X143925Y039D02*
X144075D01*
X144Y038925D02*
Y039075D01*
X142925Y058D02*
X143075D01*
X143Y057925D02*
Y058075D01*
X142925Y057D02*
X143075D01*
X143Y056925D02*
Y057075D01*
X142925Y05D02*
X143075D01*
X143Y049925D02*
Y050075D01*
X142925Y04D02*
X143075D01*
X143Y039925D02*
Y040075D01*
X141925Y058D02*
X142075D01*
X142Y057925D02*
Y058075D01*
X141925Y057D02*
X142075D01*
X142Y056925D02*
Y057075D01*
X141925Y055D02*
X142075D01*
X142Y054925D02*
Y055075D01*
X141925Y047D02*
X142075D01*
X142Y046925D02*
Y047075D01*
X141925Y046D02*
X142075D01*
X142Y045925D02*
Y046075D01*
X141925Y045D02*
X142075D01*
X142Y044925D02*
Y045075D01*
X141925Y044D02*
X142075D01*
X142Y043925D02*
Y044075D01*
X141925Y043D02*
X142075D01*
X142Y042925D02*
Y043075D01*
X140925Y047D02*
X141075D01*
X141Y046925D02*
Y047075D01*
X140925Y046D02*
X141075D01*
X141Y045925D02*
Y046075D01*
X140925Y045D02*
X141075D01*
X141Y044925D02*
Y045075D01*
X140925Y044D02*
X141075D01*
X141Y043925D02*
Y044075D01*
X140925Y039D02*
X141075D01*
X141Y038925D02*
Y039075D01*
X139925Y058D02*
X140075D01*
X14Y057925D02*
Y058075D01*
X139925Y057D02*
X140075D01*
X14Y056925D02*
Y057075D01*
X139925Y054D02*
X140075D01*
X14Y053925D02*
Y054075D01*
X139925Y052D02*
X140075D01*
X14Y051925D02*
Y052075D01*
X139925Y05D02*
X140075D01*
X14Y049925D02*
Y050075D01*
X139925Y04D02*
X140075D01*
X14Y039925D02*
Y040075D01*
X139925Y039D02*
X140075D01*
X14Y038925D02*
Y039075D01*
X138925Y05D02*
X139075D01*
X139Y049925D02*
Y050075D01*
X138925Y045D02*
X139075D01*
X139Y044925D02*
Y045075D01*
X138925Y042D02*
X139075D01*
X139Y041925D02*
Y042075D01*
X138925Y041D02*
X139075D01*
X139Y040925D02*
Y041075D01*
X137925Y058D02*
X138075D01*
X138Y057925D02*
Y058075D01*
X137925Y057D02*
X138075D01*
X138Y056925D02*
Y057075D01*
X137925Y056D02*
X138075D01*
X138Y055925D02*
Y056075D01*
X137925Y054D02*
X138075D01*
X138Y053925D02*
Y054075D01*
X137925Y043D02*
X138075D01*
X138Y042925D02*
Y043075D01*
X137925Y042D02*
X138075D01*
X138Y041925D02*
Y042075D01*
X137925Y041D02*
X138075D01*
X138Y040925D02*
Y041075D01*
X137925Y04D02*
X138075D01*
X138Y039925D02*
Y040075D01*
X137925Y039D02*
X138075D01*
X138Y038925D02*
Y039075D01*
X136925Y054D02*
X137075D01*
X137Y053925D02*
Y054075D01*
X136925Y048D02*
X137075D01*
X137Y047925D02*
Y048075D01*
X136925Y043D02*
X137075D01*
X137Y042925D02*
Y043075D01*
X136925Y042D02*
X137075D01*
X137Y041925D02*
Y042075D01*
X136925Y041D02*
X137075D01*
X137Y040925D02*
Y041075D01*
X136925Y04D02*
X137075D01*
X137Y039925D02*
Y040075D01*
X136925Y039D02*
X137075D01*
X137Y038925D02*
Y039075D01*
X135925Y058D02*
X136075D01*
X136Y057925D02*
Y058075D01*
X135925Y057D02*
X136075D01*
X136Y056925D02*
Y057075D01*
X135925Y048D02*
X136075D01*
X136Y047925D02*
Y048075D01*
X135925Y039D02*
X136075D01*
X136Y038925D02*
Y039075D01*
X135925Y038D02*
X136075D01*
X136Y037925D02*
Y038075D01*
X134925Y058D02*
X135075D01*
X135Y057925D02*
Y058075D01*
X134925Y057D02*
X135075D01*
X135Y056925D02*
Y057075D01*
X134925Y055D02*
X135075D01*
X135Y054925D02*
Y055075D01*
X134925Y046D02*
X135075D01*
X135Y045925D02*
Y046075D01*
X134925Y043D02*
X135075D01*
X135Y042925D02*
Y043075D01*
X134925Y042D02*
X135075D01*
X135Y041925D02*
Y042075D01*
X134925Y041D02*
X135075D01*
X135Y040925D02*
Y041075D01*
X134925Y04D02*
X135075D01*
X135Y039925D02*
Y040075D01*
X134925Y039D02*
X135075D01*
X135Y038925D02*
Y039075D01*
X134925Y038D02*
X135075D01*
X135Y037925D02*
Y038075D01*
X133925Y051D02*
X134075D01*
X134Y050925D02*
Y051075D01*
X133925Y046D02*
X134075D01*
X134Y045925D02*
Y046075D01*
X133925Y045D02*
X134075D01*
X134Y044925D02*
Y045075D01*
X133925Y042D02*
X134075D01*
X134Y041925D02*
Y042075D01*
X133925Y041D02*
X134075D01*
X134Y040925D02*
Y041075D01*
X133925Y04D02*
X134075D01*
X134Y039925D02*
Y040075D01*
X132925Y058D02*
X133075D01*
X133Y057925D02*
Y058075D01*
X132925Y057D02*
X133075D01*
X133Y056925D02*
Y057075D01*
X132925Y049D02*
X133075D01*
X133Y048925D02*
Y049075D01*
X132925Y041D02*
X133075D01*
X133Y040925D02*
Y041075D01*
X132925Y04D02*
X133075D01*
X133Y039925D02*
Y040075D01*
X131925Y054D02*
X132075D01*
X132Y053925D02*
Y054075D01*
X131925Y05D02*
X132075D01*
X132Y049925D02*
Y050075D01*
X131925Y047D02*
X132075D01*
X132Y046925D02*
Y047075D01*
X131925Y042D02*
X132075D01*
X132Y041925D02*
Y042075D01*
X130925Y058D02*
X131075D01*
X131Y057925D02*
Y058075D01*
X130925Y057D02*
X131075D01*
X131Y056925D02*
Y057075D01*
X130925Y056D02*
X131075D01*
X131Y055925D02*
Y056075D01*
X130925Y054D02*
X131075D01*
X131Y053925D02*
Y054075D01*
X130925Y042D02*
X131075D01*
X131Y041925D02*
Y042075D01*
X130925Y041D02*
X131075D01*
X131Y040925D02*
Y041075D01*
X130925Y04D02*
X131075D01*
X131Y039925D02*
Y040075D01*
X129925Y049D02*
X130075D01*
X13Y048925D02*
Y049075D01*
X129925Y048D02*
X130075D01*
X13Y047925D02*
Y048075D01*
X129925Y047D02*
X130075D01*
X13Y046925D02*
Y047075D01*
X129925Y045D02*
X130075D01*
X13Y044925D02*
Y045075D01*
X128925Y058D02*
X129075D01*
X129Y057925D02*
Y058075D01*
X128925Y057D02*
X129075D01*
X129Y056925D02*
Y057075D01*
X128925Y051D02*
X129075D01*
X129Y050925D02*
Y051075D01*
X128925Y048D02*
X129075D01*
X129Y047925D02*
Y048075D01*
X128925Y045D02*
X129075D01*
X129Y044925D02*
Y045075D01*
X127925Y058D02*
X128075D01*
X128Y057925D02*
Y058075D01*
X127925Y057D02*
X128075D01*
X128Y056925D02*
Y057075D01*
X127925Y055D02*
X128075D01*
X128Y054925D02*
Y055075D01*
X127925Y052D02*
X128075D01*
X128Y051925D02*
Y052075D01*
X127925Y05D02*
X128075D01*
X128Y049925D02*
Y050075D01*
X127925Y049D02*
X128075D01*
X128Y048925D02*
Y049075D01*
X127925Y048D02*
X128075D01*
X128Y047925D02*
Y048075D01*
X127925Y047D02*
X128075D01*
X128Y046925D02*
Y047075D01*
X127925Y046D02*
X128075D01*
X128Y045925D02*
Y046075D01*
X127925Y045D02*
X128075D01*
X128Y044925D02*
Y045075D01*
X126925Y052D02*
X127075D01*
X127Y051925D02*
Y052075D01*
X126925Y045D02*
X127075D01*
X127Y044925D02*
Y045075D01*
X125925Y058D02*
X126075D01*
X126Y057925D02*
Y058075D01*
X125925Y057D02*
X126075D01*
X126Y056925D02*
Y057075D01*
X125925Y052D02*
X126075D01*
X126Y051925D02*
Y052075D01*
X125925Y048D02*
X126075D01*
X126Y047925D02*
Y048075D01*
X125925Y047D02*
X126075D01*
X126Y046925D02*
Y047075D01*
X125925Y046D02*
X126075D01*
X126Y045925D02*
Y046075D01*
X124925Y057D02*
X125075D01*
X125Y056925D02*
Y057075D01*
X124925Y054D02*
X125075D01*
X125Y053925D02*
Y054075D01*
X124925Y052D02*
X125075D01*
X125Y051925D02*
Y052075D01*
X124925Y048D02*
X125075D01*
X125Y047925D02*
Y048075D01*
X124925Y047D02*
X125075D01*
X125Y046925D02*
Y047075D01*
X124925Y046D02*
X125075D01*
X125Y045925D02*
Y046075D01*
X124925Y045D02*
X125075D01*
X125Y044925D02*
Y045075D01*
X123925Y058D02*
X124075D01*
X124Y057925D02*
Y058075D01*
X123925Y048D02*
X124075D01*
X124Y047925D02*
Y048075D01*
X123925Y047D02*
X124075D01*
X124Y046925D02*
Y047075D01*
X123925Y046D02*
X124075D01*
X124Y045925D02*
Y046075D01*
X123925Y045D02*
X124075D01*
X124Y044925D02*
Y045075D01*
X122925Y057D02*
X123075D01*
X123Y056925D02*
Y057075D01*
X122925Y051D02*
X123075D01*
X123Y050925D02*
Y051075D01*
X122925Y05D02*
X123075D01*
X123Y049925D02*
Y050075D01*
X122925Y048D02*
X123075D01*
X123Y047925D02*
Y048075D01*
X122925Y047D02*
X123075D01*
X123Y046925D02*
Y047075D01*
X122925Y046D02*
X123075D01*
X123Y045925D02*
Y046075D01*
X122925Y045D02*
X123075D01*
X123Y044925D02*
Y045075D01*
X121925Y056D02*
X122075D01*
X122Y055925D02*
Y056075D01*
X121925Y055D02*
X122075D01*
X122Y054925D02*
Y055075D01*
X121925Y054D02*
X122075D01*
X122Y053925D02*
Y054075D01*
X121925Y053D02*
X122075D01*
X122Y052925D02*
Y053075D01*
X121925Y045D02*
X122075D01*
X122Y044925D02*
Y045075D01*
X121925Y043D02*
X122075D01*
X122Y042925D02*
Y043075D01*
X121925Y042D02*
X122075D01*
X122Y041925D02*
Y042075D01*
X121925Y041D02*
X122075D01*
X122Y040925D02*
Y041075D01*
X120925Y052D02*
X121075D01*
X121Y051925D02*
Y052075D01*
X120925Y045D02*
X121075D01*
X121Y044925D02*
Y045075D01*
X120925Y043D02*
X121075D01*
X121Y042925D02*
Y043075D01*
X119925Y049D02*
X120075D01*
X12Y048925D02*
Y049075D01*
X119925Y046D02*
X120075D01*
X12Y045925D02*
Y046075D01*
X119925Y045D02*
X120075D01*
X12Y044925D02*
Y045075D01*
X118925Y049D02*
X119075D01*
X119Y048925D02*
Y049075D01*
X118925Y048D02*
X119075D01*
X119Y047925D02*
Y048075D01*
X118925Y046D02*
X119075D01*
X119Y045925D02*
Y046075D01*
X118925Y045D02*
X119075D01*
X119Y044925D02*
Y045075D01*
X117925Y047D02*
X118075D01*
X118Y046925D02*
Y047075D01*
X117925Y045D02*
X118075D01*
X118Y044925D02*
Y045075D01*
X116925Y045D02*
X117075D01*
X117Y044925D02*
Y045075D01*
X115925Y041D02*
X116075D01*
X116Y040925D02*
Y041075D01*
X114925Y044D02*
X115075D01*
X115Y043925D02*
Y044075D01*
X137192Y047363D02*
X137342D01*
X137267Y047288D02*
Y047438D01*
X135725Y0474D02*
X135875D01*
X1358Y047325D02*
Y047475D01*
X135692Y048813D02*
X135842D01*
X135767Y048738D02*
Y048888D01*
X137192Y048813D02*
X137342D01*
X137267Y048738D02*
Y048888D01*
X136442Y047363D02*
X136592D01*
X136517Y047288D02*
Y047438D01*
X136442Y048813D02*
X136592D01*
X136517Y048738D02*
Y048888D01*
X145192Y029913D02*
X145342D01*
X145267Y029838D02*
Y029988D01*
X146442Y028313D02*
X146592D01*
X146517Y028238D02*
Y028388D01*
X135692Y043513D02*
X135842D01*
X135767Y043438D02*
Y043588D01*
X128642Y040663D02*
X128792D01*
X128717Y040588D02*
Y040738D01*
X125775Y0408D02*
X125925D01*
X12585Y040725D02*
Y040875D01*
X123975Y0428D02*
X124125D01*
X12405Y042725D02*
Y042875D01*
X139325Y044D02*
X139475D01*
X1394Y043925D02*
Y044075D01*
X138625Y0466D02*
X138775D01*
X1387Y046525D02*
Y046675D01*
X150525Y03465D02*
X150675D01*
X1506Y034575D02*
Y034725D01*
X147726Y036584D02*
X147876D01*
X147801Y036509D02*
Y036659D01*
X150275Y0365D02*
X150425D01*
X15035Y036425D02*
Y036575D01*
X142275Y0332D02*
X142425D01*
X14235Y033125D02*
Y033275D01*
X139025Y0328D02*
X139175D01*
X1391Y032725D02*
Y032875D01*
X128818Y052545D02*
X128968D01*
X128893Y05247D02*
Y05262D01*
X130218Y052445D02*
X130368D01*
X130293Y05237D02*
Y05252D01*
X132918Y042245D02*
X133068D01*
X132993Y04217D02*
Y04232D01*
X125668Y042745D02*
X125818D01*
X125743Y04267D02*
Y04282D01*
X119918Y042995D02*
X120068D01*
X119993Y04292D02*
Y04307D01*
X119425Y04065D02*
X119575D01*
X1195Y040575D02*
Y040725D01*
X117418Y043245D02*
X117568D01*
X117493Y04317D02*
Y04332D01*
X150668Y032995D02*
X150818D01*
X150743Y03292D02*
Y03307D01*
X147775Y03015D02*
X147925D01*
X14785Y030075D02*
Y030225D01*
X146525Y03015D02*
X146675D01*
X1466Y030075D02*
Y030225D01*
X148918Y034745D02*
X149068D01*
X148993Y03467D02*
Y03482D01*
X150575Y03835D02*
X150725D01*
X15065Y038275D02*
Y038425D01*
X148918Y040995D02*
X149068D01*
X148993Y04092D02*
Y04107D01*
X141668Y041995D02*
X141818D01*
X141743Y04192D02*
Y04207D01*
X145175Y05875D02*
X145325D01*
X14525Y058675D02*
Y058825D01*
X146475Y03175D02*
X146625D01*
X14655Y031675D02*
Y031825D01*
X148875Y0561D02*
X149025D01*
X14895Y056025D02*
Y056175D01*
X150425Y062D02*
X150575D01*
X1505Y061925D02*
Y062075D01*
X145875Y0608D02*
X146025D01*
X14595Y060725D02*
Y060875D01*
X134375Y0516D02*
X134525D01*
X13445Y051525D02*
Y051675D01*
X137475Y05215D02*
X137625D01*
X13755Y052075D02*
Y052225D01*
X137925Y0519D02*
X138075D01*
X138Y051825D02*
Y051975D01*
X129675Y03995D02*
X129825D01*
X12975Y039875D02*
Y040025D01*
X142925Y03D02*
X143075D01*
X143Y029925D02*
Y030075D01*
X141925Y031D02*
X142075D01*
X142Y030925D02*
Y031075D01*
X127412Y036974D02*
X127562D01*
X127487Y036899D02*
Y037049D01*
X118662Y037224D02*
X118812D01*
X118737Y037149D02*
Y037299D01*
X119662Y038474D02*
X119812D01*
X119737Y038399D02*
Y038549D01*
X117662Y038474D02*
X117812D01*
X117737Y038399D02*
Y038549D01*
X128421Y038418D02*
X128571D01*
X128496Y038343D02*
Y038493D01*
X126069Y038418D02*
X126219D01*
X126144Y038343D02*
Y038493D01*
X123912Y038474D02*
X124062D01*
X123987Y038399D02*
Y038549D01*
X123162Y037724D02*
X123312D01*
X123237Y037649D02*
Y037799D01*
X121925Y03825D02*
X122075D01*
X122Y038175D02*
Y038325D01*
X143925Y03D02*
X144075D01*
X144Y029925D02*
Y030075D01*
X142925Y035D02*
X143075D01*
X143Y034925D02*
Y035075D01*
X141925Y035D02*
X142075D01*
X142Y034925D02*
Y035075D01*
X141925Y034D02*
X142075D01*
X142Y033925D02*
Y034075D01*
X141925Y032D02*
X142075D01*
X142Y031925D02*
Y032075D01*
X139925Y035D02*
X140075D01*
X14Y034925D02*
Y035075D01*
X138925Y035D02*
X139075D01*
X139Y034925D02*
Y035075D01*
X138925Y034D02*
X139075D01*
X139Y033925D02*
Y034075D01*
X137925Y031D02*
X138075D01*
X138Y030925D02*
Y031075D01*
X137925Y03D02*
X138075D01*
X138Y029925D02*
Y030075D01*
X137925Y029D02*
X138075D01*
X138Y028925D02*
Y029075D01*
X136925Y03D02*
X137075D01*
X137Y029925D02*
Y030075D01*
X135925Y035D02*
X136075D01*
X136Y034925D02*
Y035075D01*
X135925Y029D02*
X136075D01*
X136Y028925D02*
Y029075D01*
X134925Y035D02*
X135075D01*
X135Y034925D02*
Y035075D01*
X134925Y034D02*
X135075D01*
X135Y033925D02*
Y034075D01*
X134925Y032D02*
X135075D01*
X135Y031925D02*
Y032075D01*
X134925Y031D02*
X135075D01*
X135Y030925D02*
Y031075D01*
X134925Y03D02*
X135075D01*
X135Y029925D02*
Y030075D01*
X132925Y035D02*
X133075D01*
X133Y034925D02*
Y035075D01*
X132925Y03D02*
X133075D01*
X133Y029925D02*
Y030075D01*
X131925Y035D02*
X132075D01*
X132Y034925D02*
Y035075D01*
X130925Y034D02*
X131075D01*
X131Y033925D02*
Y034075D01*
X130925Y03D02*
X131075D01*
X131Y029925D02*
Y030075D01*
X130925Y029D02*
X131075D01*
X131Y028925D02*
Y029075D01*
X128925Y029D02*
X129075D01*
X129Y028925D02*
Y029075D01*
X127925Y035D02*
X128075D01*
X128Y034925D02*
Y035075D01*
X127925Y034D02*
X128075D01*
X128Y033925D02*
Y034075D01*
X127925Y033D02*
X128075D01*
X128Y032925D02*
Y033075D01*
X127925Y032D02*
X128075D01*
X128Y031925D02*
Y032075D01*
X126925Y034D02*
X127075D01*
X127Y033925D02*
Y034075D01*
X126925Y031D02*
X127075D01*
X127Y030925D02*
Y031075D01*
X122925Y062D02*
X123075D01*
X123Y061925D02*
Y062075D01*
X122925Y035D02*
X123075D01*
X123Y034925D02*
Y035075D01*
X122925Y034D02*
X123075D01*
X123Y033925D02*
Y034075D01*
X122925Y033D02*
X123075D01*
X123Y032925D02*
Y033075D01*
X122925Y032D02*
X123075D01*
X123Y031925D02*
Y032075D01*
X122925Y031D02*
X123075D01*
X123Y030925D02*
Y031075D01*
X122925Y03D02*
X123075D01*
X123Y029925D02*
Y030075D01*
X122925Y029D02*
X123075D01*
X123Y028925D02*
Y029075D01*
X121925Y061D02*
X122075D01*
X122Y060925D02*
Y061075D01*
X120925Y064D02*
X121075D01*
X121Y063925D02*
Y064075D01*
X120925Y063D02*
X121075D01*
X121Y062925D02*
Y063075D01*
X120925Y062D02*
X121075D01*
X121Y061925D02*
Y062075D01*
X120925Y056D02*
X121075D01*
X121Y055925D02*
Y056075D01*
X120925Y054D02*
X121075D01*
X121Y053925D02*
Y054075D01*
X120925Y029D02*
X121075D01*
X121Y028925D02*
Y029075D01*
X119925Y062D02*
X120075D01*
X12Y061925D02*
Y062075D01*
X119925Y059D02*
X120075D01*
X12Y058925D02*
Y059075D01*
X119925Y057D02*
X120075D01*
X12Y056925D02*
Y057075D01*
X119925Y054D02*
X120075D01*
X12Y053925D02*
Y054075D01*
X119925Y053D02*
X120075D01*
X12Y052925D02*
Y053075D01*
X118925Y066D02*
X119075D01*
X119Y065925D02*
Y066075D01*
X118925Y065D02*
X119075D01*
X119Y064925D02*
Y065075D01*
X118925Y062D02*
X119075D01*
X119Y061925D02*
Y062075D01*
X118925Y055D02*
X119075D01*
X119Y054925D02*
Y055075D01*
X118925Y054D02*
X119075D01*
X119Y053925D02*
Y054075D01*
X118925Y053D02*
X119075D01*
X119Y052925D02*
Y053075D01*
X118925Y035D02*
X119075D01*
X119Y034925D02*
Y035075D01*
X118925Y034D02*
X119075D01*
X119Y033925D02*
Y034075D01*
X118925Y033D02*
X119075D01*
X119Y032925D02*
Y033075D01*
X118925Y032D02*
X119075D01*
X119Y031925D02*
Y032075D01*
X118925Y031D02*
X119075D01*
X119Y030925D02*
Y031075D01*
X117925Y064D02*
X118075D01*
X118Y063925D02*
Y064075D01*
X117925Y062D02*
X118075D01*
X118Y061925D02*
Y062075D01*
X117925Y057D02*
X118075D01*
X118Y056925D02*
Y057075D01*
X117925Y054D02*
X118075D01*
X118Y053925D02*
Y054075D01*
X117925Y053D02*
X118075D01*
X118Y052925D02*
Y053075D01*
X116925Y066D02*
X117075D01*
X117Y065925D02*
Y066075D01*
X116925Y065D02*
X117075D01*
X117Y064925D02*
Y065075D01*
X116925Y064D02*
X117075D01*
X117Y063925D02*
Y064075D01*
X116925Y062D02*
X117075D01*
X117Y061925D02*
Y062075D01*
X116925Y056D02*
X117075D01*
X117Y055925D02*
Y056075D01*
X116925Y053D02*
X117075D01*
X117Y052925D02*
Y053075D01*
X115925Y064D02*
X116075D01*
X116Y063925D02*
Y064075D01*
X115925Y062D02*
X116075D01*
X116Y061925D02*
Y062075D01*
X115925Y059D02*
X116075D01*
X116Y058925D02*
Y059075D01*
X115925Y056D02*
X116075D01*
X116Y055925D02*
Y056075D01*
X115925Y055D02*
X116075D01*
X116Y054925D02*
Y055075D01*
X115925Y038D02*
X116075D01*
X116Y037925D02*
Y038075D01*
X114925Y06D02*
X115075D01*
X115Y059925D02*
Y060075D01*
X114925Y059D02*
X115075D01*
X115Y058925D02*
Y059075D01*
X114925Y056D02*
X115075D01*
X115Y055925D02*
Y056075D01*
X114925Y055D02*
X115075D01*
X115Y054925D02*
Y055075D01*
X114925Y052D02*
X115075D01*
X115Y051925D02*
Y052075D01*
X114925Y051D02*
X115075D01*
X115Y050925D02*
Y051075D01*
X114925Y049D02*
X115075D01*
X115Y048925D02*
Y049075D01*
X114925Y038D02*
X115075D01*
X115Y037925D02*
Y038075D01*
X114925Y033D02*
X115075D01*
X115Y032925D02*
Y033075D01*
X114925Y032D02*
X115075D01*
X115Y031925D02*
Y032075D01*
X113925Y061D02*
X114075D01*
X114Y060925D02*
Y061075D01*
X113925Y06D02*
X114075D01*
X114Y059925D02*
Y060075D01*
X113925Y056D02*
X114075D01*
X114Y055925D02*
Y056075D01*
X113925Y055D02*
X114075D01*
X114Y054925D02*
Y055075D01*
X113925Y052D02*
X114075D01*
X114Y051925D02*
Y052075D01*
X113925Y051D02*
X114075D01*
X114Y050925D02*
Y051075D01*
X113925Y05D02*
X114075D01*
X114Y049925D02*
Y050075D01*
X113925Y049D02*
X114075D01*
X114Y048925D02*
Y049075D01*
X113925Y048D02*
X114075D01*
X114Y047925D02*
Y048075D01*
X113925Y039D02*
X114075D01*
X114Y038925D02*
Y039075D01*
X113925Y038D02*
X114075D01*
X114Y037925D02*
Y038075D01*
X113925Y037D02*
X114075D01*
X114Y036925D02*
Y037075D01*
X113925Y035D02*
X114075D01*
X114Y034925D02*
Y035075D01*
X113925Y034D02*
X114075D01*
X114Y033925D02*
Y034075D01*
X113925Y033D02*
X114075D01*
X114Y032925D02*
Y033075D01*
X112925Y062D02*
X113075D01*
X113Y061925D02*
Y062075D01*
X112925Y061D02*
X113075D01*
X113Y060925D02*
Y061075D01*
X112925Y06D02*
X113075D01*
X113Y059925D02*
Y060075D01*
X112925Y059D02*
X113075D01*
X113Y058925D02*
Y059075D01*
X112925Y058D02*
X113075D01*
X113Y057925D02*
Y058075D01*
X112925Y057D02*
X113075D01*
X113Y056925D02*
Y057075D01*
X112925Y056D02*
X113075D01*
X113Y055925D02*
Y056075D01*
X112925Y055D02*
X113075D01*
X113Y054925D02*
Y055075D01*
X112925Y054D02*
X113075D01*
X113Y053925D02*
Y054075D01*
X112925Y053D02*
X113075D01*
X113Y052925D02*
Y053075D01*
X112925Y052D02*
X113075D01*
X113Y051925D02*
Y052075D01*
X112925Y051D02*
X113075D01*
X113Y050925D02*
Y051075D01*
X112925Y05D02*
X113075D01*
X113Y049925D02*
Y050075D01*
X112925Y049D02*
X113075D01*
X113Y048925D02*
Y049075D01*
X112925Y048D02*
X113075D01*
X113Y047925D02*
Y048075D01*
X112925Y047D02*
X113075D01*
X113Y046925D02*
Y047075D01*
X112925Y046D02*
X113075D01*
X113Y045925D02*
Y046075D01*
X112925Y045D02*
X113075D01*
X113Y044925D02*
Y045075D01*
X112925Y044D02*
X113075D01*
X113Y043925D02*
Y044075D01*
X112925Y043D02*
X113075D01*
X113Y042925D02*
Y043075D01*
X112925Y042D02*
X113075D01*
X113Y041925D02*
Y042075D01*
X112925Y041D02*
X113075D01*
X113Y040925D02*
Y041075D01*
X112925Y04D02*
X113075D01*
X113Y039925D02*
Y040075D01*
X112925Y039D02*
X113075D01*
X113Y038925D02*
Y039075D01*
X112925Y038D02*
X113075D01*
X113Y037925D02*
Y038075D01*
X112925Y037D02*
X113075D01*
X113Y036925D02*
Y037075D01*
X112925Y036D02*
X113075D01*
X113Y035925D02*
Y036075D01*
X112925Y035D02*
X113075D01*
X113Y034925D02*
Y035075D01*
X112925Y034D02*
X113075D01*
X113Y033925D02*
Y034075D01*
X112925Y033D02*
X113075D01*
X113Y032925D02*
Y033075D01*
X122575Y037D02*
X122725D01*
X12265Y036925D02*
Y037075D01*
X118022Y036997D02*
X118172D01*
X118097Y036922D02*
Y037072D01*
X132225Y035515D02*
X132375D01*
X1323Y03544D02*
Y03559D01*
X126925Y03775D02*
X127075D01*
X127Y037675D02*
Y037825D01*
X132225Y0317D02*
X132375D01*
X1323Y031625D02*
Y031775D01*
X135575Y03285D02*
X135725D01*
X13565Y032775D02*
Y032925D01*
X134425Y0371D02*
X134575D01*
X1345Y037025D02*
Y037175D01*
X134175Y03605D02*
X134325D01*
X13425Y035975D02*
Y036125D01*
X137675Y03555D02*
X137825D01*
X13775Y035475D02*
Y035625D01*
X141175Y03555D02*
X141325D01*
X14125Y035475D02*
Y035625D01*
X144375Y0356D02*
X144525D01*
X14445Y035525D02*
Y035675D01*
X150775Y03405D02*
X150925D01*
X15085Y033975D02*
Y034125D01*
X148675Y0366D02*
X148825D01*
X14875Y036525D02*
Y036675D01*
X141175Y03635D02*
X141325D01*
X14125Y036275D02*
Y036425D01*
X137675Y0365D02*
X137825D01*
X13775Y036425D02*
Y036575D01*
X144675Y03625D02*
X144825D01*
X14475Y036175D02*
Y036325D01*
X125175Y04D02*
X125325D01*
X12525Y039925D02*
Y040075D01*
X120675Y04D02*
X120825D01*
X12075Y039925D02*
Y040075D01*
X116925Y04065D02*
X117075D01*
X117Y040575D02*
Y040725D01*
X131825Y04605D02*
X131975D01*
X1319Y045975D02*
Y046125D01*
X133225Y0479D02*
X133375D01*
X1333Y047825D02*
Y047975D01*
X141275Y05075D02*
X141425D01*
X14135Y050675D02*
Y050825D01*
X148425Y05815D02*
X148575D01*
X1485Y058075D02*
Y058225D01*
X146575Y055D02*
X146725D01*
X14665Y054925D02*
Y055075D01*
X140675Y0428D02*
X140825D01*
X14075Y042725D02*
Y042875D01*
X140275Y0432D02*
X140425D01*
X14035Y043125D02*
Y043275D01*
X140725Y04775D02*
X140875D01*
X1408Y047675D02*
Y047825D01*
X140275Y04745D02*
X140425D01*
X14035Y047375D02*
Y047525D01*
X142775Y0416D02*
X142925D01*
X14285Y041525D02*
Y041675D01*
X118675Y0601D02*
X118825D01*
X11875Y060025D02*
Y060175D01*
X118175Y0601D02*
X118325D01*
X11825Y060025D02*
Y060175D01*
X118175Y0609D02*
X118325D01*
X11825Y060825D02*
Y060975D01*
X118175Y0605D02*
X118325D01*
X11825Y060425D02*
Y060575D01*
X118675Y0605D02*
X118825D01*
X11875Y060425D02*
Y060575D01*
X118675Y0609D02*
X118825D01*
X11875Y060825D02*
Y060975D01*
M02*
