G04*
G04 #@! TF.GenerationSoftware,Altium Limited,Altium Designer,21.3.2 (30)*
G04*
G04 Layer_Color=255*
%FSTAX24Y24*%
%MOIN*%
G70*
G04*
G04 #@! TF.SameCoordinates,920B054E-F007-431E-A758-220852BF9C0E*
G04*
G04*
G04 #@! TF.FilePolarity,Positive*
G04*
G01*
G75*
%ADD17O,0.0700X0.0250*%
G04:AMPARAMS|DCode=18|XSize=35mil|YSize=35mil|CornerRadius=3.5mil|HoleSize=0mil|Usage=FLASHONLY|Rotation=0.000|XOffset=0mil|YOffset=0mil|HoleType=Round|Shape=RoundedRectangle|*
%AMROUNDEDRECTD18*
21,1,0.0350,0.0280,0,0,0.0*
21,1,0.0280,0.0350,0,0,0.0*
1,1,0.0070,0.0140,-0.0140*
1,1,0.0070,-0.0140,-0.0140*
1,1,0.0070,-0.0140,0.0140*
1,1,0.0070,0.0140,0.0140*
%
%ADD18ROUNDEDRECTD18*%
G04:AMPARAMS|DCode=19|XSize=30mil|YSize=35mil|CornerRadius=3mil|HoleSize=0mil|Usage=FLASHONLY|Rotation=0.000|XOffset=0mil|YOffset=0mil|HoleType=Round|Shape=RoundedRectangle|*
%AMROUNDEDRECTD19*
21,1,0.0300,0.0290,0,0,0.0*
21,1,0.0240,0.0350,0,0,0.0*
1,1,0.0060,0.0120,-0.0145*
1,1,0.0060,-0.0120,-0.0145*
1,1,0.0060,-0.0120,0.0145*
1,1,0.0060,0.0120,0.0145*
%
%ADD19ROUNDEDRECTD19*%
G04:AMPARAMS|DCode=20|XSize=30mil|YSize=35mil|CornerRadius=3mil|HoleSize=0mil|Usage=FLASHONLY|Rotation=270.000|XOffset=0mil|YOffset=0mil|HoleType=Round|Shape=RoundedRectangle|*
%AMROUNDEDRECTD20*
21,1,0.0300,0.0290,0,0,270.0*
21,1,0.0240,0.0350,0,0,270.0*
1,1,0.0060,-0.0145,-0.0120*
1,1,0.0060,-0.0145,0.0120*
1,1,0.0060,0.0145,0.0120*
1,1,0.0060,0.0145,-0.0120*
%
%ADD20ROUNDEDRECTD20*%
G04:AMPARAMS|DCode=21|XSize=35mil|YSize=35mil|CornerRadius=3.5mil|HoleSize=0mil|Usage=FLASHONLY|Rotation=270.000|XOffset=0mil|YOffset=0mil|HoleType=Round|Shape=RoundedRectangle|*
%AMROUNDEDRECTD21*
21,1,0.0350,0.0280,0,0,270.0*
21,1,0.0280,0.0350,0,0,270.0*
1,1,0.0070,-0.0140,-0.0140*
1,1,0.0070,-0.0140,0.0140*
1,1,0.0070,0.0140,0.0140*
1,1,0.0070,0.0140,-0.0140*
%
%ADD21ROUNDEDRECTD21*%
%ADD22O,0.0630X0.0118*%
%ADD23O,0.0118X0.0630*%
G04:AMPARAMS|DCode=24|XSize=130mil|YSize=100mil|CornerRadius=10mil|HoleSize=0mil|Usage=FLASHONLY|Rotation=0.000|XOffset=0mil|YOffset=0mil|HoleType=Round|Shape=RoundedRectangle|*
%AMROUNDEDRECTD24*
21,1,0.1300,0.0800,0,0,0.0*
21,1,0.1100,0.1000,0,0,0.0*
1,1,0.0200,0.0550,-0.0400*
1,1,0.0200,-0.0550,-0.0400*
1,1,0.0200,-0.0550,0.0400*
1,1,0.0200,0.0550,0.0400*
%
%ADD24ROUNDEDRECTD24*%
G04:AMPARAMS|DCode=25|XSize=130mil|YSize=40mil|CornerRadius=10mil|HoleSize=0mil|Usage=FLASHONLY|Rotation=270.000|XOffset=0mil|YOffset=0mil|HoleType=Round|Shape=RoundedRectangle|*
%AMROUNDEDRECTD25*
21,1,0.1300,0.0200,0,0,270.0*
21,1,0.1100,0.0400,0,0,270.0*
1,1,0.0200,-0.0100,-0.0550*
1,1,0.0200,-0.0100,0.0550*
1,1,0.0200,0.0100,0.0550*
1,1,0.0200,0.0100,-0.0550*
%
%ADD25ROUNDEDRECTD25*%
G04:AMPARAMS|DCode=26|XSize=47.2mil|YSize=23.6mil|CornerRadius=5.9mil|HoleSize=0mil|Usage=FLASHONLY|Rotation=0.000|XOffset=0mil|YOffset=0mil|HoleType=Round|Shape=RoundedRectangle|*
%AMROUNDEDRECTD26*
21,1,0.0472,0.0118,0,0,0.0*
21,1,0.0354,0.0236,0,0,0.0*
1,1,0.0118,0.0177,-0.0059*
1,1,0.0118,-0.0177,-0.0059*
1,1,0.0118,-0.0177,0.0059*
1,1,0.0118,0.0177,0.0059*
%
%ADD26ROUNDEDRECTD26*%
%ADD27O,0.0250X0.0700*%
G04:AMPARAMS|DCode=28|XSize=35mil|YSize=45mil|CornerRadius=3.5mil|HoleSize=0mil|Usage=FLASHONLY|Rotation=270.000|XOffset=0mil|YOffset=0mil|HoleType=Round|Shape=RoundedRectangle|*
%AMROUNDEDRECTD28*
21,1,0.0350,0.0380,0,0,270.0*
21,1,0.0280,0.0450,0,0,270.0*
1,1,0.0070,-0.0190,-0.0140*
1,1,0.0070,-0.0190,0.0140*
1,1,0.0070,0.0190,0.0140*
1,1,0.0070,0.0190,-0.0140*
%
%ADD28ROUNDEDRECTD28*%
G04:AMPARAMS|DCode=29|XSize=80mil|YSize=90mil|CornerRadius=8mil|HoleSize=0mil|Usage=FLASHONLY|Rotation=90.000|XOffset=0mil|YOffset=0mil|HoleType=Round|Shape=RoundedRectangle|*
%AMROUNDEDRECTD29*
21,1,0.0800,0.0740,0,0,90.0*
21,1,0.0640,0.0900,0,0,90.0*
1,1,0.0160,0.0370,0.0320*
1,1,0.0160,0.0370,-0.0320*
1,1,0.0160,-0.0370,-0.0320*
1,1,0.0160,-0.0370,0.0320*
%
%ADD29ROUNDEDRECTD29*%
%ADD30O,0.0300X0.0800*%
%ADD31R,0.1000X0.1200*%
%ADD32O,0.0700X0.0300*%
G04:AMPARAMS|DCode=33|XSize=80mil|YSize=110mil|CornerRadius=8mil|HoleSize=0mil|Usage=FLASHONLY|Rotation=180.000|XOffset=0mil|YOffset=0mil|HoleType=Round|Shape=RoundedRectangle|*
%AMROUNDEDRECTD33*
21,1,0.0800,0.0940,0,0,180.0*
21,1,0.0640,0.1100,0,0,180.0*
1,1,0.0160,-0.0320,0.0470*
1,1,0.0160,0.0320,0.0470*
1,1,0.0160,0.0320,-0.0470*
1,1,0.0160,-0.0320,-0.0470*
%
%ADD33ROUNDEDRECTD33*%
G04:AMPARAMS|DCode=34|XSize=120mil|YSize=60mil|CornerRadius=15mil|HoleSize=0mil|Usage=FLASHONLY|Rotation=180.000|XOffset=0mil|YOffset=0mil|HoleType=Round|Shape=RoundedRectangle|*
%AMROUNDEDRECTD34*
21,1,0.1200,0.0300,0,0,180.0*
21,1,0.0900,0.0600,0,0,180.0*
1,1,0.0300,-0.0450,0.0150*
1,1,0.0300,0.0450,0.0150*
1,1,0.0300,0.0450,-0.0150*
1,1,0.0300,-0.0450,-0.0150*
%
%ADD34ROUNDEDRECTD34*%
G04:AMPARAMS|DCode=35|XSize=120mil|YSize=60mil|CornerRadius=15mil|HoleSize=0mil|Usage=FLASHONLY|Rotation=90.000|XOffset=0mil|YOffset=0mil|HoleType=Round|Shape=RoundedRectangle|*
%AMROUNDEDRECTD35*
21,1,0.1200,0.0300,0,0,90.0*
21,1,0.0900,0.0600,0,0,90.0*
1,1,0.0300,0.0150,0.0450*
1,1,0.0300,0.0150,-0.0450*
1,1,0.0300,-0.0150,-0.0450*
1,1,0.0300,-0.0150,0.0450*
%
%ADD35ROUNDEDRECTD35*%
G04:AMPARAMS|DCode=36|XSize=50mil|YSize=70mil|CornerRadius=5mil|HoleSize=0mil|Usage=FLASHONLY|Rotation=270.000|XOffset=0mil|YOffset=0mil|HoleType=Round|Shape=RoundedRectangle|*
%AMROUNDEDRECTD36*
21,1,0.0500,0.0600,0,0,270.0*
21,1,0.0400,0.0700,0,0,270.0*
1,1,0.0100,-0.0300,-0.0200*
1,1,0.0100,-0.0300,0.0200*
1,1,0.0100,0.0300,0.0200*
1,1,0.0100,0.0300,-0.0200*
%
%ADD36ROUNDEDRECTD36*%
G04:AMPARAMS|DCode=37|XSize=50mil|YSize=35mil|CornerRadius=3.5mil|HoleSize=0mil|Usage=FLASHONLY|Rotation=180.000|XOffset=0mil|YOffset=0mil|HoleType=Round|Shape=RoundedRectangle|*
%AMROUNDEDRECTD37*
21,1,0.0500,0.0280,0,0,180.0*
21,1,0.0430,0.0350,0,0,180.0*
1,1,0.0070,-0.0215,0.0140*
1,1,0.0070,0.0215,0.0140*
1,1,0.0070,0.0215,-0.0140*
1,1,0.0070,-0.0215,-0.0140*
%
%ADD37ROUNDEDRECTD37*%
%ADD79C,0.0600*%
G04:AMPARAMS|DCode=80|XSize=60mil|YSize=60mil|CornerRadius=6mil|HoleSize=0mil|Usage=FLASHONLY|Rotation=270.000|XOffset=0mil|YOffset=0mil|HoleType=Round|Shape=RoundedRectangle|*
%AMROUNDEDRECTD80*
21,1,0.0600,0.0480,0,0,270.0*
21,1,0.0480,0.0600,0,0,270.0*
1,1,0.0120,-0.0240,-0.0240*
1,1,0.0120,-0.0240,0.0240*
1,1,0.0120,0.0240,0.0240*
1,1,0.0120,0.0240,-0.0240*
%
%ADD80ROUNDEDRECTD80*%
%ADD81C,0.1050*%
G04:AMPARAMS|DCode=82|XSize=105mil|YSize=105mil|CornerRadius=10.5mil|HoleSize=0mil|Usage=FLASHONLY|Rotation=180.000|XOffset=0mil|YOffset=0mil|HoleType=Round|Shape=RoundedRectangle|*
%AMROUNDEDRECTD82*
21,1,0.1050,0.0840,0,0,180.0*
21,1,0.0840,0.1050,0,0,180.0*
1,1,0.0210,-0.0420,0.0420*
1,1,0.0210,0.0420,0.0420*
1,1,0.0210,0.0420,-0.0420*
1,1,0.0210,-0.0420,-0.0420*
%
%ADD82ROUNDEDRECTD82*%
G04:AMPARAMS|DCode=83|XSize=60mil|YSize=60mil|CornerRadius=6mil|HoleSize=0mil|Usage=FLASHONLY|Rotation=0.000|XOffset=0mil|YOffset=0mil|HoleType=Round|Shape=RoundedRectangle|*
%AMROUNDEDRECTD83*
21,1,0.0600,0.0480,0,0,0.0*
21,1,0.0480,0.0600,0,0,0.0*
1,1,0.0120,0.0240,-0.0240*
1,1,0.0120,-0.0240,-0.0240*
1,1,0.0120,-0.0240,0.0240*
1,1,0.0120,0.0240,0.0240*
%
%ADD83ROUNDEDRECTD83*%
%ADD84C,0.0850*%
G04:AMPARAMS|DCode=85|XSize=85mil|YSize=85mil|CornerRadius=8.5mil|HoleSize=0mil|Usage=FLASHONLY|Rotation=90.000|XOffset=0mil|YOffset=0mil|HoleType=Round|Shape=RoundedRectangle|*
%AMROUNDEDRECTD85*
21,1,0.0850,0.0680,0,0,90.0*
21,1,0.0680,0.0850,0,0,90.0*
1,1,0.0170,0.0340,0.0340*
1,1,0.0170,0.0340,-0.0340*
1,1,0.0170,-0.0340,-0.0340*
1,1,0.0170,-0.0340,0.0340*
%
%ADD85ROUNDEDRECTD85*%
%ADD86C,0.0750*%
G04:AMPARAMS|DCode=87|XSize=85mil|YSize=85mil|CornerRadius=8.5mil|HoleSize=0mil|Usage=FLASHONLY|Rotation=180.000|XOffset=0mil|YOffset=0mil|HoleType=Round|Shape=RoundedRectangle|*
%AMROUNDEDRECTD87*
21,1,0.0850,0.0680,0,0,180.0*
21,1,0.0680,0.0850,0,0,180.0*
1,1,0.0170,-0.0340,0.0340*
1,1,0.0170,0.0340,0.0340*
1,1,0.0170,0.0340,-0.0340*
1,1,0.0170,-0.0340,-0.0340*
%
%ADD87ROUNDEDRECTD87*%
%ADD88C,0.1200*%
D17*
X145875Y043D02*
D03*
Y0435D02*
D03*
Y044D02*
D03*
Y0445D02*
D03*
Y045D02*
D03*
Y0455D02*
D03*
Y046D02*
D03*
Y0465D02*
D03*
X148125D02*
D03*
Y046D02*
D03*
Y0455D02*
D03*
Y045D02*
D03*
Y0445D02*
D03*
Y044D02*
D03*
Y0435D02*
D03*
Y043D02*
D03*
D18*
X127565Y053D02*
D03*
X126935D02*
D03*
X131565Y0465D02*
D03*
X130935D02*
D03*
X143435Y0525D02*
D03*
X144065D02*
D03*
X139065Y04575D02*
D03*
X138435D02*
D03*
X121685Y04825D02*
D03*
X122315D02*
D03*
X122065Y0455D02*
D03*
X121435D02*
D03*
X115935Y0525D02*
D03*
X116565D02*
D03*
X135315Y051D02*
D03*
X134685D02*
D03*
X118185Y059D02*
D03*
X118815D02*
D03*
X127065Y0565D02*
D03*
X126435D02*
D03*
X130565D02*
D03*
X129935D02*
D03*
X134065D02*
D03*
X133435D02*
D03*
X136935D02*
D03*
X137565D02*
D03*
X140435D02*
D03*
X141065D02*
D03*
X143935D02*
D03*
X144565D02*
D03*
D19*
X126065Y053D02*
D03*
X125435D02*
D03*
X135815D02*
D03*
X135185D02*
D03*
X141935Y0525D02*
D03*
X142565D02*
D03*
X13425Y039D02*
D03*
X13362D02*
D03*
X141315Y0385D02*
D03*
X140685D02*
D03*
X137815D02*
D03*
X137185D02*
D03*
X144815D02*
D03*
X144185D02*
D03*
X134315Y0335D02*
D03*
X133685D02*
D03*
X137815Y033D02*
D03*
X137185D02*
D03*
X137815Y03375D02*
D03*
X137185D02*
D03*
X144815D02*
D03*
X144185D02*
D03*
X141315D02*
D03*
X140685D02*
D03*
X141315Y033D02*
D03*
X140685D02*
D03*
X134315Y03425D02*
D03*
X133685D02*
D03*
X144815Y033D02*
D03*
X144185D02*
D03*
X149315Y0625D02*
D03*
X148685D02*
D03*
X148065D02*
D03*
X147435D02*
D03*
X146815D02*
D03*
X146185D02*
D03*
X124685Y04225D02*
D03*
X125315D02*
D03*
X120185D02*
D03*
X120815D02*
D03*
X116435Y04275D02*
D03*
X117065D02*
D03*
X129065Y0565D02*
D03*
X128435D02*
D03*
X125565D02*
D03*
X124935D02*
D03*
X127065Y06125D02*
D03*
X126435D02*
D03*
X136065Y0565D02*
D03*
X135435D02*
D03*
X136065Y05575D02*
D03*
X135435D02*
D03*
X139565Y0565D02*
D03*
X138935D02*
D03*
X139565Y05575D02*
D03*
X138935D02*
D03*
X129065D02*
D03*
X128435D02*
D03*
X130565Y06125D02*
D03*
X129935D02*
D03*
X134065D02*
D03*
X133435D02*
D03*
X137565D02*
D03*
X136935D02*
D03*
X141065D02*
D03*
X140435D02*
D03*
X144565D02*
D03*
X143935D02*
D03*
X129185Y04225D02*
D03*
X129815D02*
D03*
X132565Y0565D02*
D03*
X131935D02*
D03*
Y05575D02*
D03*
X132565D02*
D03*
X124935D02*
D03*
X125565D02*
D03*
X116185Y033D02*
D03*
X116815D02*
D03*
X124935D02*
D03*
X125565D02*
D03*
X129435D02*
D03*
X130065D02*
D03*
X120435D02*
D03*
X121065D02*
D03*
X142435Y05575D02*
D03*
X143065D02*
D03*
X142435Y0565D02*
D03*
X143065D02*
D03*
X149685Y0325D02*
D03*
X150315D02*
D03*
X148185D02*
D03*
X148815D02*
D03*
X146685D02*
D03*
X147315D02*
D03*
D20*
X137Y043435D02*
D03*
Y044065D02*
D03*
X133Y037935D02*
D03*
Y038565D02*
D03*
X14Y037435D02*
D03*
Y038065D02*
D03*
X1435Y036935D02*
D03*
Y037565D02*
D03*
X1365Y037685D02*
D03*
Y038315D02*
D03*
X13625Y032935D02*
D03*
Y033565D02*
D03*
X14325Y032935D02*
D03*
Y033565D02*
D03*
X13275Y03337D02*
D03*
Y034D02*
D03*
X13975Y032935D02*
D03*
Y033565D02*
D03*
X11425Y036315D02*
D03*
Y035685D02*
D03*
X11875Y036315D02*
D03*
Y035685D02*
D03*
X14625Y056935D02*
D03*
Y057565D02*
D03*
X15025Y057565D02*
D03*
Y056935D02*
D03*
X1505Y059065D02*
D03*
Y058435D02*
D03*
X1495Y056935D02*
D03*
Y057565D02*
D03*
X146Y058435D02*
D03*
Y059065D02*
D03*
X14875Y056935D02*
D03*
Y057565D02*
D03*
X147Y056935D02*
D03*
Y057565D02*
D03*
X121Y060815D02*
D03*
Y060185D02*
D03*
Y059315D02*
D03*
Y058685D02*
D03*
X118Y035685D02*
D03*
Y036315D02*
D03*
X11575Y042315D02*
D03*
Y041685D02*
D03*
X11775Y033565D02*
D03*
Y032935D02*
D03*
X124Y041815D02*
D03*
Y041185D02*
D03*
X1265Y033565D02*
D03*
Y032935D02*
D03*
X12325Y035685D02*
D03*
Y036315D02*
D03*
X1315Y035685D02*
D03*
Y036315D02*
D03*
X1285Y041815D02*
D03*
Y041185D02*
D03*
X13125Y033315D02*
D03*
Y032685D02*
D03*
X12775Y035685D02*
D03*
Y036315D02*
D03*
X1225Y035685D02*
D03*
Y036315D02*
D03*
X1195Y041815D02*
D03*
Y041185D02*
D03*
X122Y033315D02*
D03*
Y032685D02*
D03*
X127Y035685D02*
D03*
Y036315D02*
D03*
X15075Y035185D02*
D03*
Y035815D02*
D03*
X15025Y037185D02*
D03*
Y037815D02*
D03*
X1495Y037815D02*
D03*
Y037185D02*
D03*
X14875Y037815D02*
D03*
Y037185D02*
D03*
X14725Y037815D02*
D03*
Y037185D02*
D03*
X1465Y037185D02*
D03*
Y037815D02*
D03*
X14625Y035185D02*
D03*
Y035815D02*
D03*
D21*
X13225Y048935D02*
D03*
Y049565D02*
D03*
X13225Y048065D02*
D03*
Y047435D02*
D03*
X1395Y050315D02*
D03*
Y049685D02*
D03*
X12025Y047185D02*
D03*
Y047815D02*
D03*
X13975Y032065D02*
D03*
Y031435D02*
D03*
X14325Y032065D02*
D03*
Y031435D02*
D03*
X13275Y032565D02*
D03*
Y031935D02*
D03*
X13625Y032065D02*
D03*
Y031435D02*
D03*
X14975Y058435D02*
D03*
Y059065D02*
D03*
X14675Y058435D02*
D03*
Y059065D02*
D03*
X14675Y061565D02*
D03*
Y060935D02*
D03*
X11625Y061065D02*
D03*
Y060435D02*
D03*
X122Y031435D02*
D03*
Y032065D02*
D03*
X1265Y031435D02*
D03*
Y032065D02*
D03*
X13125Y031185D02*
D03*
Y031815D02*
D03*
X11775Y031435D02*
D03*
Y032065D02*
D03*
X147Y035815D02*
D03*
Y035185D02*
D03*
X15Y035185D02*
D03*
Y035815D02*
D03*
X15Y033435D02*
D03*
Y034065D02*
D03*
D22*
X135013Y047547D02*
D03*
Y047744D02*
D03*
Y04735D02*
D03*
Y047154D02*
D03*
Y048335D02*
D03*
Y048531D02*
D03*
Y048138D02*
D03*
Y047941D02*
D03*
Y048728D02*
D03*
Y048925D02*
D03*
Y049122D02*
D03*
X138487Y049126D02*
D03*
Y049323D02*
D03*
Y048929D02*
D03*
X138487Y048732D02*
D03*
X138487Y047354D02*
D03*
Y047157D02*
D03*
Y047551D02*
D03*
Y047748D02*
D03*
Y048535D02*
D03*
Y048339D02*
D03*
Y047945D02*
D03*
Y048142D02*
D03*
X135013Y049319D02*
D03*
D23*
X136253Y046518D02*
D03*
X136056D02*
D03*
X135662D02*
D03*
X135859D02*
D03*
X135859Y049982D02*
D03*
X135662D02*
D03*
X136056D02*
D03*
X136253D02*
D03*
X13704D02*
D03*
X136844D02*
D03*
X13645D02*
D03*
X136647D02*
D03*
X137828D02*
D03*
X137631D02*
D03*
X137237D02*
D03*
X137434D02*
D03*
X137434Y046518D02*
D03*
X137237D02*
D03*
X137631D02*
D03*
X137828D02*
D03*
X13704D02*
D03*
X136844D02*
D03*
X13645D02*
D03*
X136647D02*
D03*
D24*
X11425Y0572D02*
D03*
Y0533D02*
D03*
D25*
X1215Y05175D02*
D03*
Y04945D02*
D03*
X11825Y04595D02*
D03*
Y04825D02*
D03*
D26*
X122254Y047144D02*
D03*
Y046356D02*
D03*
X12123D02*
D03*
X12125Y04675D02*
D03*
X12123Y047144D02*
D03*
D27*
X13425Y038D02*
D03*
X13375D02*
D03*
Y03525D02*
D03*
X13425D02*
D03*
X14125Y0375D02*
D03*
X14075D02*
D03*
Y03475D02*
D03*
X14125D02*
D03*
X14475Y0375D02*
D03*
X14425D02*
D03*
Y03475D02*
D03*
X14475D02*
D03*
X13775Y0375D02*
D03*
X13725D02*
D03*
Y03475D02*
D03*
X13775D02*
D03*
X127Y06025D02*
D03*
X1265D02*
D03*
Y0575D02*
D03*
X127D02*
D03*
X1305Y06025D02*
D03*
X13D02*
D03*
Y0575D02*
D03*
X1305D02*
D03*
X134Y06025D02*
D03*
X1335D02*
D03*
Y0575D02*
D03*
X134D02*
D03*
X141D02*
D03*
X1405D02*
D03*
Y06025D02*
D03*
X141D02*
D03*
X117Y039D02*
D03*
X1165D02*
D03*
Y04175D02*
D03*
X117D02*
D03*
X12075Y0385D02*
D03*
X12025D02*
D03*
Y04125D02*
D03*
X12075D02*
D03*
X12525Y0385D02*
D03*
X12475D02*
D03*
Y04125D02*
D03*
X12525D02*
D03*
X12975Y0385D02*
D03*
X12925D02*
D03*
Y04125D02*
D03*
X12975D02*
D03*
X1375Y0575D02*
D03*
X137D02*
D03*
Y06025D02*
D03*
X1375D02*
D03*
X1445Y0575D02*
D03*
X144D02*
D03*
Y06025D02*
D03*
X1445D02*
D03*
D28*
X1415Y03175D02*
D03*
X1405Y03215D02*
D03*
Y03135D02*
D03*
X145Y03175D02*
D03*
X144Y03215D02*
D03*
Y03135D02*
D03*
X1345Y03225D02*
D03*
X1335Y03265D02*
D03*
Y03185D02*
D03*
X138Y03175D02*
D03*
X137Y03215D02*
D03*
Y03135D02*
D03*
X116D02*
D03*
Y03215D02*
D03*
X117Y03175D02*
D03*
X12025Y03135D02*
D03*
Y03215D02*
D03*
X12125Y03175D02*
D03*
X1245Y03135D02*
D03*
Y03215D02*
D03*
X1255Y03175D02*
D03*
X1295Y03135D02*
D03*
Y03215D02*
D03*
X1305Y03175D02*
D03*
D29*
X13125Y04933D02*
D03*
Y04767D02*
D03*
D30*
X149Y05895D02*
D03*
X1485D02*
D03*
X148D02*
D03*
X1475D02*
D03*
X149Y0611D02*
D03*
X1485D02*
D03*
X148D02*
D03*
X1475D02*
D03*
X14775Y03575D02*
D03*
X14825D02*
D03*
X14875D02*
D03*
X14925D02*
D03*
X14775Y0336D02*
D03*
X14825D02*
D03*
X14875D02*
D03*
X14925D02*
D03*
D31*
X118512Y0605D02*
D03*
D32*
X11735Y05975D02*
D03*
Y06025D02*
D03*
Y06075D02*
D03*
Y06125D02*
D03*
X11965Y05975D02*
D03*
Y06025D02*
D03*
Y06075D02*
D03*
Y06125D02*
D03*
D33*
X11733Y05775D02*
D03*
X11917D02*
D03*
X11658Y063D02*
D03*
X11842D02*
D03*
D34*
X1205Y055D02*
D03*
X1172D02*
D03*
D35*
X114Y05875D02*
D03*
Y06205D02*
D03*
D36*
X127Y06335D02*
D03*
Y06215D02*
D03*
X1305D02*
D03*
Y06335D02*
D03*
X133Y06215D02*
D03*
Y06335D02*
D03*
X134D02*
D03*
Y06215D02*
D03*
X1365D02*
D03*
Y06335D02*
D03*
X1375D02*
D03*
Y06215D02*
D03*
X14D02*
D03*
Y06335D02*
D03*
X141Y06215D02*
D03*
Y06335D02*
D03*
X1435Y06215D02*
D03*
Y06335D02*
D03*
X1445Y06215D02*
D03*
Y06335D02*
D03*
X1295D02*
D03*
Y06215D02*
D03*
X126D02*
D03*
Y06335D02*
D03*
D37*
X11665Y03375D02*
D03*
X11535D02*
D03*
X12115D02*
D03*
X11985D02*
D03*
X12565D02*
D03*
X12435D02*
D03*
X13015D02*
D03*
X12885D02*
D03*
D79*
X142497Y038003D02*
D03*
X1425Y037D02*
D03*
X135497Y038503D02*
D03*
X1355Y0375D02*
D03*
X1185Y04175D02*
D03*
X118503Y040747D02*
D03*
X127Y05D02*
D03*
X126Y05D02*
D03*
X127Y051D02*
D03*
X126D02*
D03*
X125D02*
D03*
X142497Y051497D02*
D03*
X1445Y0515D02*
D03*
X1435D02*
D03*
X1455D02*
D03*
X144Y04325D02*
D03*
Y04525D02*
D03*
Y04425D02*
D03*
X143997Y046253D02*
D03*
X144Y04225D02*
D03*
X150003Y041747D02*
D03*
Y042747D02*
D03*
Y043747D02*
D03*
Y045747D02*
D03*
Y044747D02*
D03*
X15Y04675D02*
D03*
X1455Y0495D02*
D03*
X1435D02*
D03*
X1445D02*
D03*
X142497Y049497D02*
D03*
X13225Y04475D02*
D03*
X133253Y044753D02*
D03*
X1225Y05425D02*
D03*
Y05525D02*
D03*
Y05625D02*
D03*
X1235Y05525D02*
D03*
X1235Y05625D02*
D03*
X1285Y0485D02*
D03*
Y0465D02*
D03*
Y0475D02*
D03*
X124247Y036003D02*
D03*
X12425Y035D02*
D03*
X11825Y05D02*
D03*
X11725D02*
D03*
X11625D02*
D03*
X12725Y05475D02*
D03*
X126247Y054747D02*
D03*
X13075Y05475D02*
D03*
X129747Y054747D02*
D03*
X13425Y05475D02*
D03*
X133247Y054747D02*
D03*
X13775Y05475D02*
D03*
X136747Y054747D02*
D03*
X14475Y05475D02*
D03*
X143747Y054747D02*
D03*
X14125Y05475D02*
D03*
X140247Y054747D02*
D03*
X11525Y036D02*
D03*
X115253Y034997D02*
D03*
X119747Y036003D02*
D03*
X11975Y035D02*
D03*
X132003Y038747D02*
D03*
X132Y03975D02*
D03*
X13875Y0375D02*
D03*
X138747Y038503D02*
D03*
X114753Y040997D02*
D03*
X11475Y042D02*
D03*
X123003Y040747D02*
D03*
X123Y04175D02*
D03*
X1275Y04075D02*
D03*
X127497Y041753D02*
D03*
X1485Y055D02*
D03*
X149503Y055003D02*
D03*
X128253Y061997D02*
D03*
X12825Y063D02*
D03*
X131753Y061997D02*
D03*
X13175Y063D02*
D03*
X13525D02*
D03*
X135253Y061997D02*
D03*
X117003Y034997D02*
D03*
X117Y036D02*
D03*
X12475Y063D02*
D03*
X124753Y061997D02*
D03*
X1215Y035D02*
D03*
X121497Y036003D02*
D03*
X14225Y063D02*
D03*
X142253Y061997D02*
D03*
X13875Y063D02*
D03*
X138753Y061997D02*
D03*
X126Y035D02*
D03*
X125997Y036003D02*
D03*
X1305Y035D02*
D03*
X130497Y036003D02*
D03*
X12875Y035D02*
D03*
X128747Y036003D02*
D03*
X1475Y0395D02*
D03*
X148503Y039503D02*
D03*
D80*
X1425Y039D02*
D03*
X1355Y0395D02*
D03*
X118503Y042747D02*
D03*
X144Y04725D02*
D03*
X150003Y047747D02*
D03*
X1235Y05425D02*
D03*
X1285Y0495D02*
D03*
X12425Y037D02*
D03*
X115253Y036997D02*
D03*
X11975Y037D02*
D03*
X132003Y040747D02*
D03*
X13875Y0395D02*
D03*
X114753Y042997D02*
D03*
X123003Y042747D02*
D03*
X1275Y04275D02*
D03*
X12825Y061D02*
D03*
X13175D02*
D03*
X13525D02*
D03*
X117003Y036997D02*
D03*
X12475Y061D02*
D03*
X1215Y037D02*
D03*
X14225Y061D02*
D03*
X13875D02*
D03*
X126Y037D02*
D03*
X1305D02*
D03*
X12875D02*
D03*
D81*
X12025Y0655D02*
D03*
X11625D02*
D03*
X11825D02*
D03*
X12Y02925D02*
D03*
X122D02*
D03*
X118D02*
D03*
X128D02*
D03*
X13D02*
D03*
X126D02*
D03*
D82*
X12225Y0655D02*
D03*
X116Y02925D02*
D03*
X124D02*
D03*
D83*
X125Y05D02*
D03*
X1415Y0515D02*
D03*
Y0495D02*
D03*
X131253Y044753D02*
D03*
X11525Y05D02*
D03*
X12525Y05475D02*
D03*
X12875D02*
D03*
X13225D02*
D03*
X13575D02*
D03*
X14275D02*
D03*
X13925D02*
D03*
X147503Y055003D02*
D03*
X1495Y0395D02*
D03*
D84*
X14825Y05175D02*
D03*
X115Y04625D02*
D03*
X14525Y06575D02*
D03*
X12525D02*
D03*
X141D02*
D03*
X1395D02*
D03*
X138D02*
D03*
X1365D02*
D03*
X135D02*
D03*
X1335D02*
D03*
X132D02*
D03*
X1305D02*
D03*
X129D02*
D03*
X13375Y02925D02*
D03*
X13525D02*
D03*
X13675D02*
D03*
X1405D02*
D03*
X142D02*
D03*
X1435D02*
D03*
X14725Y029D02*
D03*
D85*
X14825Y05025D02*
D03*
X115Y04775D02*
D03*
D86*
X12025Y06325D02*
D03*
X12225Y06225D02*
D03*
D87*
X14675Y06575D02*
D03*
X12675D02*
D03*
X1425D02*
D03*
X13225Y02925D02*
D03*
X139D02*
D03*
X14575Y029D02*
D03*
D88*
X1135Y0645D02*
D03*
X14975D02*
D03*
Y03025D02*
D03*
X1135D02*
D03*
M02*
