G04*
G04 #@! TF.GenerationSoftware,Altium Limited,Altium Designer,21.3.2 (30)*
G04*
G04 Layer_Color=32896*
%FSTAX24Y24*%
%MOIN*%
G70*
G04*
G04 #@! TF.SameCoordinates,920B054E-F007-431E-A758-220852BF9C0E*
G04*
G04*
G04 #@! TF.FilePolarity,Positive*
G04*
G01*
G75*
%ADD10C,0.0050*%
%ADD15C,0.0060*%
D10*
X14305Y0336D02*
X14395D01*
X14295Y0335D02*
X14305Y0336D01*
X14295Y03088D02*
Y0335D01*
X14405Y03088D02*
Y0335D01*
X14395Y0336D02*
X14405Y0335D01*
X14295Y03244D02*
X14404D01*
X14295Y03257D02*
X14403D01*
X14295Y03088D02*
X14405D01*
X13955Y0336D02*
X14045D01*
X13945Y0335D02*
X13955Y0336D01*
X13945Y03088D02*
Y0335D01*
X14055Y03088D02*
Y0335D01*
X14045Y0336D02*
X14055Y0335D01*
X13945Y03244D02*
X14054D01*
X13945Y03257D02*
X14053D01*
X13945Y03088D02*
X14055D01*
X13305Y03335D02*
X13395D01*
X13295Y03325D02*
X13305Y03335D01*
X13295Y03063D02*
Y03325D01*
X13405Y03063D02*
Y03325D01*
X13395Y03335D02*
X13405Y03325D01*
X13295Y03219D02*
X13404D01*
X13295Y03232D02*
X13403D01*
X13295Y03063D02*
X13405D01*
X1363Y03335D02*
X1372D01*
X1362Y03325D02*
X1363Y03335D01*
X1362Y03063D02*
Y03325D01*
X1373Y03063D02*
Y03325D01*
X1372Y03335D02*
X1373Y03325D01*
X1362Y03219D02*
X13729D01*
X1362Y03232D02*
X13728D01*
X1362Y03063D02*
X1373D01*
X11695Y03387D02*
X11805D01*
X11697Y03218D02*
X11805D01*
X11696Y03231D02*
X11805D01*
X11695Y03125D02*
X11705Y03115D01*
X11695Y03125D02*
Y03387D01*
X11805Y03125D02*
Y03387D01*
X11795Y03115D02*
X11805Y03125D01*
X11705Y03115D02*
X11795D01*
X1212Y03387D02*
X1223D01*
X12122Y03218D02*
X1223D01*
X12121Y03231D02*
X1223D01*
X1212Y03125D02*
X1213Y03115D01*
X1212Y03125D02*
Y03387D01*
X1223Y03125D02*
Y03387D01*
X1222Y03115D02*
X1223Y03125D01*
X1213Y03115D02*
X1222D01*
X1257Y03387D02*
X1268D01*
X12572Y03218D02*
X1268D01*
X12571Y03231D02*
X1268D01*
X1257Y03125D02*
X1258Y03115D01*
X1257Y03125D02*
Y03387D01*
X1268Y03125D02*
Y03387D01*
X1267Y03115D02*
X1268Y03125D01*
X1258Y03115D02*
X1267D01*
X12945Y03387D02*
X13055D01*
X12947Y03218D02*
X13055D01*
X12946Y03231D02*
X13055D01*
X12945Y03125D02*
X12955Y03115D01*
X12945Y03125D02*
Y03387D01*
X13055Y03125D02*
Y03387D01*
X13045Y03115D02*
X13055Y03125D01*
X12955Y03115D02*
X13045D01*
D15*
X12995Y0305D02*
Y03086D01*
Y0305D02*
X13007D01*
X130121Y030517D01*
X130156Y030551D01*
X130173Y030586D01*
X13019Y030637D01*
Y030723D01*
X130173Y030774D01*
X130156Y030809D01*
X130121Y030843D01*
X13007Y03086D01*
X12995D01*
X130356Y0305D02*
X130305Y030517D01*
X130288Y030551D01*
Y030586D01*
X130305Y03062D01*
X130339Y030637D01*
X130408Y030654D01*
X130459Y030671D01*
X130493Y030706D01*
X13051Y03074D01*
Y030791D01*
X130493Y030826D01*
X130476Y030843D01*
X130425Y03086D01*
X130356D01*
X130305Y030843D01*
X130288Y030826D01*
X130271Y030791D01*
Y03074D01*
X130288Y030706D01*
X130322Y030671D01*
X130373Y030654D01*
X130442Y030637D01*
X130476Y03062D01*
X130493Y030586D01*
Y030551D01*
X130476Y030517D01*
X130425Y0305D01*
X130356D01*
X1262Y03051D02*
Y03087D01*
Y03051D02*
X12632D01*
X126371Y030527D01*
X126406Y030561D01*
X126423Y030596D01*
X12644Y030647D01*
Y030733D01*
X126423Y030784D01*
X126406Y030819D01*
X126371Y030853D01*
X12632Y03087D01*
X1262D01*
X12676Y03051D02*
X126589Y03087D01*
X126521Y03051D02*
X12676D01*
X12178Y03452D02*
Y03416D01*
Y03452D02*
X12166D01*
X121609Y034503D01*
X121574Y034469D01*
X121557Y034434D01*
X12154Y034383D01*
Y034297D01*
X121557Y034246D01*
X121574Y034211D01*
X121609Y034177D01*
X12166Y03416D01*
X12178D01*
X121254Y034469D02*
X121271Y034503D01*
X121322Y03452D01*
X121357D01*
X121408Y034503D01*
X121442Y034451D01*
X12146Y034366D01*
Y03428D01*
X121442Y034211D01*
X121408Y034177D01*
X121357Y03416D01*
X12134D01*
X121288Y034177D01*
X121254Y034211D01*
X121237Y034263D01*
Y03428D01*
X121254Y034331D01*
X121288Y034366D01*
X12134Y034383D01*
X121357D01*
X121408Y034366D01*
X121442Y034331D01*
X12146Y03428D01*
X11747Y03407D02*
Y03443D01*
Y03407D02*
X11759D01*
X117641Y034087D01*
X117675Y034121D01*
X117693Y034156D01*
X11771Y034207D01*
Y034293D01*
X117693Y034344D01*
X117675Y034379D01*
X117641Y034413D01*
X11759Y03443D01*
X11747D01*
X117996Y03407D02*
X117825D01*
X117807Y034224D01*
X117825Y034207D01*
X117876Y03419D01*
X117927D01*
X117979Y034207D01*
X118013Y034241D01*
X11803Y034293D01*
Y034327D01*
X118013Y034379D01*
X117979Y034413D01*
X117927Y03443D01*
X117876D01*
X117825Y034413D01*
X117807Y034396D01*
X11779Y034361D01*
X14356Y03424D02*
Y03388D01*
Y03424D02*
X14344D01*
X143389Y034223D01*
X143354Y034189D01*
X143337Y034154D01*
X14332Y034103D01*
Y034017D01*
X143337Y033966D01*
X143354Y033931D01*
X143389Y033897D01*
X14344Y03388D01*
X14356D01*
X143068Y03424D02*
X143239Y034D01*
X142982D01*
X143068Y03424D02*
Y03388D01*
X14005Y03424D02*
Y03388D01*
Y03424D02*
X13993D01*
X139879Y034223D01*
X139844Y034189D01*
X139827Y034154D01*
X13981Y034103D01*
Y034017D01*
X139827Y033966D01*
X139844Y033931D01*
X139879Y033897D01*
X13993Y03388D01*
X14005D01*
X139695Y03424D02*
X139507D01*
X13961Y034103D01*
X139558D01*
X139524Y034086D01*
X139507Y034069D01*
X13949Y034017D01*
Y033983D01*
X139507Y033931D01*
X139541Y033897D01*
X139592Y03388D01*
X139644D01*
X139695Y033897D01*
X139712Y033914D01*
X139729Y033949D01*
X13705Y03416D02*
Y0338D01*
Y03416D02*
X13693D01*
X136879Y034143D01*
X136845Y034108D01*
X136828Y034074D01*
X13681Y034023D01*
Y033937D01*
X136828Y033886D01*
X136845Y033851D01*
X136879Y033817D01*
X13693Y0338D01*
X13705D01*
X136713Y034074D02*
Y034091D01*
X136696Y034126D01*
X136678Y034143D01*
X136644Y03416D01*
X136576D01*
X136541Y034143D01*
X136524Y034126D01*
X136507Y034091D01*
Y034057D01*
X136524Y034023D01*
X136558Y033971D01*
X13673Y0338D01*
X13649D01*
X133623Y03415D02*
Y03379D01*
Y03415D02*
X133503D01*
X133452Y034133D01*
X133418Y034098D01*
X1334Y034064D01*
X133383Y034013D01*
Y033927D01*
X1334Y033876D01*
X133418Y033841D01*
X133452Y033807D01*
X133503Y03379D01*
X133623D01*
X133303Y034081D02*
X133268Y034098D01*
X133217Y03415D01*
Y03379D01*
M02*
